<svg id="Calque_1" data-name="Calque 1" xmlns="http://www.w3.org/2000/svg" viewBox="0 0 139.43 137.29"><defs><style>.cls-1{fill:#fff;}</style></defs><path class="cls-1" d="M163.42,146.09c2.17,1.18,4.55,2.26,6.71,3.68,2.56,1.7,2.48,1.88.84,4.65a15.42,15.42,0,0,1-5.3,5c-1.1.7-2.18,1.43-3.4,2.22a51.62,51.62,0,0,1,3.82,3.66c1.63,1.93,3.1,4,4.57,6.05.16.22,0,.89-.28,1.15a17.84,17.84,0,0,1-7.36,4.63l-3.89,1.45c2.85,3,5.25,6.11,6.23,10.25a5.23,5.23,0,0,1-1.45.6c-2.75.28-5.48,1-8.28.32-1.23-.28-1.42,0-1.06,1.22a20,20,0,0,1-.5,11.7,2.08,2.08,0,0,1-2,1.67,23,23,0,0,1-8.74-.38c-.37-.1-.75-.16-1.39-.29,1.11,2.47.91,4.86.6,7.25a28.71,28.71,0,0,1-.66,3.47c-.06.24-.64.52-.93.47a21.09,21.09,0,0,1-9.56-4c-.16-.12-.32-.22-.65-.44-.28.83-.59,1.58-.79,2.36a26.49,26.49,0,0,1-4.4,9.27,1.17,1.17,0,0,1-1.58.46,34.13,34.13,0,0,1-9.54-5.5c-.33-.25-.68-.48-1.07-.75a15.52,15.52,0,0,1-6.59,9.29,1.25,1.25,0,0,1-1.84-.16,18,18,0,0,1-4.9-7.62c-.28.25-.52.43-.71.64a24.31,24.31,0,0,1-7.16,5.25c-2,1.07-3.27.76-4.31-1.25-1.41-2.74-2.57-5.61-3.83-8.42-.07-.14-.11-.29-.22-.59-1,.8-1.87,1.53-2.74,2.29a16.84,16.84,0,0,1-8.19,3.54,1.36,1.36,0,0,1-1.08-.73,8,8,0,0,1-.49-2.56c0-3.19.06-6.39.1-9.65a1.28,1.28,0,0,0-.45.06c-4.49,1.52-9.06,1.22-13.64.6a1.32,1.32,0,0,1-1.28-1.4,28.07,28.07,0,0,1,1.85-13.42,1.09,1.09,0,0,0,0-.27c-2.64,0-5.3.2-7.91-.06a38.48,38.48,0,0,1-6-1.49c-.75-.21-.94-.69-.71-1.46a17.06,17.06,0,0,1,3.75-6.82l1.9-2c-.87-.29-1.63-.57-2.39-.81a28.16,28.16,0,0,1-8.4-4.37,1.25,1.25,0,0,1-.39-2,38.7,38.7,0,0,1,6.82-9,4,4,0,0,0,.37-.43c-2.17-1.24-4.37-2.39-6.44-3.73a22.37,22.37,0,0,1-2.87-2.65,1.43,1.43,0,0,1-.1-2.17c2.16-3,5.25-4.47,8.66-5.47l.53-.16c-1.84-2.35-3.71-4.68-5.51-7.07A12.77,12.77,0,0,1,38,139.9c-.37-.82.14-1.41.81-1.75,3.06-1.56,6.15-3.07,9.24-4.6.13-.07.27-.12.38-.17a58.47,58.47,0,0,1-3.12-5.19c-2-4.15-1.67-4.33,2.83-5.25,2.27-.47,4.71-.08,7.29-.08-.29-1.69-.61-3.33-.86-5a15.81,15.81,0,0,1,.34-7.52,1.68,1.68,0,0,1,1.17-.93c3.38-.36,6.77-.7,10.17-.88a32.67,32.67,0,0,1,4.65.41,11.78,11.78,0,0,0-.16-1.4,18.24,18.24,0,0,1,.18-7.68c.44-2.29,1.21-2.73,3.49-2.2a14.61,14.61,0,0,1,6.44,3.9,4.57,4.57,0,0,1,.54.77c1-2.16,1.83-4.12,2.79-6,.61-1.19,1.46-2.27,2.1-3.45.41-.74.86-.76,1.55-.5a27.62,27.62,0,0,1,7.85,4.41c.21.17.43.34.66.5.05,0,.14,0,.36,0a16.28,16.28,0,0,1,3.19-6.9c1-1.36,1.58-1.49,3-.56a16,16,0,0,1,5.57,6.4l8.39-5.38a26.89,26.89,0,0,1,7.46,9.77,16.57,16.57,0,0,1,8.68-5.12c1.66,3.55,1.87,7.3,2.06,11.23,4.12-1.09,8.18-2.12,12.62-1.51a56.67,56.67,0,0,1,.56,5.76,53.84,53.84,0,0,1-.58,5.75c.29-.1.62-.18.92-.31a15,15,0,0,1,8.75-.74,1.88,1.88,0,0,1,1.1,1.17,12.27,12.27,0,0,1-.3,7.6c-.59,1.78-1.46,3.47-2.11,5l10.54,4.3c1.79.73,2,1.08,1.18,2.84C166.25,139.83,164.79,143,163.42,146.09Zm-114,17.16-1.66,1.1c-1.23.75-2.52,1.42-3.67,2.27a18,18,0,0,0-5.83,7.21c2.62,1.93,5.34,3.59,8.64,3.91a8.08,8.08,0,0,0,2-.35c.29.63-.48.69,5.61.74,1-1.77,1.82-3.61,2.94-5.26s2.52-3.1,3.73-4.56h-2c-.4-.41-.54-.68-.76-.77-1.15-.5-2.38-.86-3.48-1.46-1.66-.9-3.23-2-4.85-3Zm5.19-37.76,0,0-3.9-1.1L51,126c-1.17-1.62-1.17-1.62-1.77-.92-.39-.63-3.11-.73-3.35-.07-.1.3.14.76.32,1.11.08.16.38.22.32.19.12.64.08,1.13.3,1.38s.74.34,1.2.53l-.35.7.59-.5.95,1.9,1.86-.76.52,2-.29.13,1.37.68c-.17-.9-.26-1.6-.44-2.28A1.51,1.51,0,0,1,53.49,128c1.24-.32,2.45-.72,4-1.19ZM52,147.64a5,5,0,0,1-.44.83c-.39.46-.82.87-1.24,1.3l.23.19,3.79-2.62-.56-1.12c.94,1.13,2,.7,3,.14.41-.23.78-.52,1.27-.85a4.75,4.75,0,0,1-.62-.81,1,1,0,0,1-.08-.78.83.83,0,0,1,.72-.35,1,1,0,0,1,.41.71c.18,1.31.29,1.39,1.67,1,.83-.4.45-.77,0-1.14a5.41,5.41,0,0,1-1.28-.76c-2.13-2.29-4.24-4.6-5.28-7.65-.22-.67-.93-.69-1.37-.14l1.28.47c-1.35,1.77-3.06,1.07-4.7,1.29l.78-2c-1.33.22-2.5.38-3.63.65-.29.07-.47.54-.71.84-1-.85-4.95.69-6.78,3,1.57,1.87,3.1,3.87,4.85,5.67a20.64,20.64,0,0,0,3.35,2.34c1.61,1.11,1.6,1.12,2-.52,0-.06.11-.1.22-.19.52.14,1.35.11,1.59.47C51,148.37,51.48,148,52,147.64Zm34.85-38.87c-3.09-.85-6.18-1.67-9.25-2.55a1.07,1.07,0,0,0-1.44.55,28.33,28.33,0,0,0-3.83,9.78,14.77,14.77,0,0,0,.8,9,1.11,1.11,0,0,0,.64-1.64,8.58,8.58,0,0,1-.49-3c0-4.59,1.8-8.72,3.64-12.81a1.35,1.35,0,0,1,1.15-.5,20.86,20.86,0,0,1,3.57.86c3.56,1.27,7.08,2.63,9.36,5.93.55.8,1.14.33,1.93.05a10.23,10.23,0,0,0-1-1.36c-1.56-1.39-3.15-2.74-4.73-4.11,2.54.61,3.93,2.74,5.75,4.51A15.3,15.3,0,0,1,97.44,103a1.38,1.38,0,0,0,.19-2,19.4,19.4,0,0,0-9.3-7.75c-1.12-.43-1.55-.1-2.18.75A17.12,17.12,0,0,0,83,102.33a12,12,0,0,0,.22,4.43c.16.59,1.47.87,2.27,1.29Zm22.22-3.21c-1.93-1.92-3.87-3.82-5.78-5.76a1.19,1.19,0,0,0-1.93-.08c-2.47,2.23-4.93,4.46-6.46,7.51a12.2,12.2,0,0,0-1.35,7.09l1.28-.25c-.52-6.12,3.78-9.38,7.47-13.18,1.45,1.34,2.8,2.5,4.06,3.75a16,16,0,0,1,4.22,8.23c.21,1,.56,1.23,1.65,1l-.79-4.44,1.18,3.34,1.58-1.35-1.61,2.5a1,1,0,0,0,1.65,0,22.11,22.11,0,0,1,2.29-2,26.75,26.75,0,0,1,10.5-4.78c.48-.09,1.35.08,1.5.38a26.6,26.6,0,0,1,2,4.95,22.89,22.89,0,0,1,.21,9.07,1.32,1.32,0,0,0,.95,1.69,2.89,2.89,0,0,0,.35-.85c.2-2.44.53-4.87.53-7.3a16.87,16.87,0,0,0-3.14-9.19,1.9,1.9,0,0,0-1.57-.59,25.17,25.17,0,0,0-11.45,4.85,17.55,17.55,0,0,1-2.22,1.32c.09-.17.14-.42.28-.5,2.77-1.59,5.53-3.2,8.34-4.71.65-.35,1.06-.6.84-1.4-.49-1.79-.84-3.62-1.43-5.38a16.32,16.32,0,0,0-4.35-7c-.38-.35-1.17-.78-1.45-.62-1.7,1-3.62,1.87-4.84,3.31-1.67,2-2.73,4.42-4.12,6.62-.5.79-.24,1.27.27,1.87A21.69,21.69,0,0,1,109.1,105.56Zm-14.46,95.9L93.89,200a9.17,9.17,0,0,0-.58.76c-1.65,2.74-4.12,4.66-6.57,6.61a2.43,2.43,0,0,0-.93,1.47c-.41,4.28-.15,8.52,2.18,12.29,2,3.21,2.1,3.48,5.55,1.2,3.62-2.38,5.49-6,7.22-9.8a1.2,1.2,0,0,0-.22-1c-1.26-1.72-2.72-3.33-3.81-5.15a36.73,36.73,0,0,1-2.12-4.94A4.42,4.42,0,0,1,95,202a28.4,28.4,0,0,0,5.08,8.25c1.49,1.52,3.11,2.92,4.71,4.33.61.54,1.3.84,2,0,1.59-1.7,3.32-3.27,4.85-5,1.85-2.13,3.61-4.38,4-7.28a27.11,27.11,0,0,0,0-3.93c-1.17-.07-1.54.34-1.53,1.37a8.61,8.61,0,0,1-1.52,5.53c-2.08,2.68-4.33,5.23-6.57,7.77-.17.19-1,.08-1.27-.18a75,75,0,0,1-5.76-6.6,22.38,22.38,0,0,1-2.83-5.71,1.54,1.54,0,0,0-2-1.22ZM72.28,124.64l0,0c-.08-.7-.25-1.28-1.19-.93-.1,0-.33-.27-.5-.42l.15-.17.78.12c0-.27,0-.47,0-.66.19-2.55,0-5.19.66-7.64.88-3.57.85-3.94-2.82-4.61a3.91,3.91,0,0,0-.48,0c-2.4-.2-4.8-.45-7.21-.56-1.53-.07-3.08.06-4.62.14-1.13.06-2,.49-2,1.81a17,17,0,0,0,.07,3.64,55.89,55.89,0,0,0,1.77,5.88c.56,1.66,1,3.37,2.52,4.58.77.63,2.51.41,2.85-.33.7,0,1.29.11,1.87.08.9,0,1.8-.27,2.7-.24,1.9.06,3.8.24,5.78.38Zm1.18,63.76c-.22,4.09-.31,8.21,1,12.13.87,2.61,2.28,5,3.26,7.61.46,1.2,1.06,1.25,2.15,1.1,4.92-.69,8.64-3.37,11.81-7a25.34,25.34,0,0,0,2-3.11c-1.45-.71-1.58-.75-1.93-.09a15.44,15.44,0,0,1-6.31,6.1,14.88,14.88,0,0,1-6.36,2.22A22.54,22.54,0,0,1,75.46,199a18.33,18.33,0,0,1-.47-8.82,1.81,1.81,0,0,0-1.07-2.42l-.49.64c-.26-.1-.58-.36-.78-.29-.55.18-1,.69-1.57.75-2.74.29-5.49.56-8.24.65-.79,0-1.27.08-1.64.76-1,1.87-2.19,3.68-3.11,5.6a17.41,17.41,0,0,0-1.44,9.29c.07.74.38,1.24,1.26,1.27,1.14,0,2.28.18,3.43.22,4.61.18,8.67-1.46,12.48-3.86a1.26,1.26,0,0,0,.4-1c-.44-2.89-1.09-5.76-1.35-8.66A21.83,21.83,0,0,1,73.46,188.4Zm73.11-46.9a3.08,3.08,0,0,1,.24-.52c3.76-5.23,4.56-11.18,4.21-17.39a1.78,1.78,0,0,0-.68-1.32,7.3,7.3,0,0,0-2.72-.8c-4.67-.22-9.34-.2-13.79,1.62l-1.75.69a2,2,0,0,0,2.65.79,26.9,26.9,0,0,1,14-1.29,1,1,0,0,1,1,1.1c0,5.61-.92,11-4.25,15.68-.63.88-.77,1.53,0,2.32l1.19-.92-.71,1.25c3.93,1.52,8,2.66,11.31,5.4a1,1,0,0,0,.86.06,10.36,10.36,0,0,0,1.94-1.11c4-3.06,6.28-7.3,7.66-12.25-.72-.32-1.49-.69-2.27-1a37.56,37.56,0,0,0-13-3c-.74,0-1,.18-1.23.88-.85,2.46-1.75,4.91-2.78,7.31A14.48,14.48,0,0,1,146.57,141.5Zm-39.09-18.11,0,0,.24.86-5.64-6.09c-2.78,2.44-3.61,5.41-3.5,8.85-.31-.19-.59-.41-.6-.63a6.82,6.82,0,0,1,.17-2.36c1-2.48-.19-4.14-1.94-5.63-.12-.11-.22-.23-.34-.33l-2.76-2.36c-.78,2.26-1.39,4.17-2.09,6s-.6,3.44,1.22,4.67a11.1,11.1,0,0,1,1.61,1.67l-.27.26a16.43,16.43,0,0,0-8.37-5,22.75,22.75,0,0,0-1.42,10,24.79,24.79,0,0,1-.82-3.38c-.09-.42-.44-1.05-.74-1.1-2.54-.36-5.1-.61-7.65-.87-.62-.06-1,.24-.9.92.36,2.13.72,4.27,1.11,6.4.14.79.7,1,1.44,1.08,1.06,0,2.12.15,2.93.21-.21-1.12-.46-2.29-.64-3.48,0-.15.33-.49.51-.5,1.18,0,2.36,0,3.54,0l0,.52-2.6.79.28,3.08s.21.05.39.12.37.18.67.33c-.25.12-.36.23-.43.21-3.08-1-6.12-.17-9.14.24-1.33.19-1.6,1-.93,2.16,1,1.75,2,3.47,3.15,5.14.27.41.86.59,1.31.88l.22-.27.32,1.86c-.42-.17-.87-.21-1.12-.46-.85-.88-1.6-1.85-2.46-2.72a2,2,0,0,0-1.23-.71,14.16,14.16,0,0,0-6.69,1.83c-1,.62-1.12.86-.29,1.79,1,1.13,2,2.27,3.09,3.3,2.21,2.08,1.53,1.91,4.37.87,1-.37,2.08-.56,3.13-.83l.16.47c-3.44,1.2-6.89,2.35-9.43,5.16a15.36,15.36,0,0,0,5.55,4.78,9.88,9.88,0,0,0,2.2.63l.68.81a2,2,0,0,1-.66,0c-.92-.34-1.82-.79-2.76-1.07a3.16,3.16,0,0,0-1.91-.12c-2.77,1.1-4.32,3.43-5.76,6a13.8,13.8,0,0,0,7.78,2.78,2,2,0,0,0,1.74-.71c.87-1,1.81-1.88,2.74-2.79a1.53,1.53,0,0,1,.52-.23c-2.13,3.07-4.58,5.91-5.07,9.89a20.91,20.91,0,0,0,11,.07,29.37,29.37,0,0,1-3.68,1.13c-.47.12-1.12.23-1.33.56a15.86,15.86,0,0,0-2.69,7.29c-.07,1,.28,1.33,1.21,1.17,2.18-.38,4.36-.8,6.54-1.15a2.41,2.41,0,0,0,2.35-2.56,12.27,12.27,0,0,1,.49-2.44,3,3,0,0,1,.37-.71,3.27,3.27,0,0,1,.16,1.48,22.12,22.12,0,0,0,.49,8.38c.23,1,.68,1.15,1.51.88a21.78,21.78,0,0,0,7.49-4,13.35,13.35,0,0,0,1.21-1.28l.34.38a40.63,40.63,0,0,1-3.67,3.05A2.32,2.32,0,0,0,91,190.77c0,2.78,1.38,5,2.62,7.43.32-.14.53-.22.74-.33a14,14,0,0,0,4.26-4.24c1-1.35,1.63-2.64.77-4.31a6.93,6.93,0,0,1-.47-1.83,4.17,4.17,0,0,1,0-.93c1.3,3.48,2.84,6.65,5.86,9,2.91-2.56,4.35-5.88,5.67-9.31a1.49,1.49,0,0,1,0,1c-.55,1.52-1,3.08-1.73,4.54a1.46,1.46,0,0,0,.23,1.81,13,13,0,0,0,5.7,3.73,1.2,1.2,0,0,0,1.08-.49,21,21,0,0,0,1.94-4.44c.67-2.92.67-4.19-1.61-5.43l0,0c-2-1.71-2-1.71-1.89-2.25a29.27,29.27,0,0,0,9.39,5.1c1.72.6,2.11.4,1.9-1.38-.33-2.65-1-5.27-1.54-7.89a18.18,18.18,0,0,0-.76-2.26l.47-.21a24.8,24.8,0,0,1,1.9,3.92c.56,1.92,1.48,3.06,3.6,3.08,1.61,0,3.21.24,4.82.3a.89.89,0,0,0,1-1.18c-.45-2-.94-3.9-1.48-5.84-.29-1-1.05-1.38-2.16-1.44a23,23,0,0,1-3.5-.74,11.82,11.82,0,0,1,1.9,0c2.75-.21,5.5-.46,8.24-.78,1-.1,1.1-.84.74-1.6a15.46,15.46,0,0,0-1.57-2.92c-1.27-1.66-2.7-3.2-4.06-4.8a9.38,9.38,0,0,1-.6-.9l.33-.26c1.62,1.49,3.23,3,4.86,4.48.27.25.7.61.95.55,2.31-.63,4.67-1.16,6.63-2.78a20.52,20.52,0,0,0-6.85-6.74,1.47,1.47,0,0,0-1,0c-1,.26-2,.58-3,.87l-.22-.4c4-.75,6.38-3.52,8.79-6.31-2.68-3.54-6.67-4.56-10.34-6.14a2.22,2.22,0,0,1,1.18,0c1.47.49,2.92,1,4.39,1.48a1.4,1.4,0,0,0,1.07,0,17,17,0,0,0,5-5.69,1.19,1.19,0,0,0-.38-1.08,17.24,17.24,0,0,0-7.69-1.77,2,2,0,0,0-1.08.55c-.87.71-1.68,1.47-2.3,2a12.27,12.27,0,0,0,3.38-7.3c.18-2.14.11-2.31-2-2.64-2.91-.45-5.66.26-8.4,1.06-.49.14-1,.25-1.47.38l-.14-.47c1.43-.48,2.88-.89,4.28-1.45.51-.21,1.16-.68,1.27-1.14.56-2.35,1-4.72,1.42-7.09.17-.89-.32-1.21-1.09-1-1.88.47-3.75,1-5.59,1.54a3,3,0,0,0-2.2,3.64,6,6,0,0,1-.13,1.45l-.12-.07-1.88-8.71c-3.76,1-6,3.8-8.61,6.13l1.31-2.16,0,0c.94-1,1.88-2,2.79-3a.73.73,0,0,0,.12-.62c-.9-2-1.8-4.09-2.77-6.1-.5-1.05-1.25-.92-1.94-.16-1.16,1.29-2.26,2.63-3.45,3.89A2,2,0,0,0,107.48,123.39Zm38.29,19.83c0,1.84.7,2.63,2.28,2.92,4.64.85,8.24,3.5,11.37,6.89a1.39,1.39,0,0,1,.22,1.92,40.35,40.35,0,0,1-2.41,3.51c-2.55,3.16-5.64,5.57-9.73,6.38-1.13.22-1.24.83-1.14,1.91l4.2-1.08a9.36,9.36,0,0,1-2,.94c-1,.36-1.14.93-.35,1.63a22.74,22.74,0,0,1,5.79,7.88,1.59,1.59,0,0,0,1.83,1c4.69-.17,8.89-1.88,12.92-4.08,1.73-.94,1.71-1.08.66-2.76-.25-.4-.5-.81-.79-1.19-2.72-3.54-6.61-5.48-10.41-7.52-.27-.14-.8.08-1.14.25a6.35,6.35,0,0,0-.91.75c-.31.24-.63.46-1,.69a27,27,0,0,0,6-7.67c1-2.14,1.06-2.15-.6-3.85-.89-.9-1.86-1.73-2.73-2.64-2.42-2.53-5.68-3.54-8.73-4.89A24.32,24.32,0,0,0,145.77,143.22Zm-9.47,43.17c.29,1.29.66,2.53.84,3.8a49.78,49.78,0,0,1,.76,7.06c0,2.63,0,3,2.45,4l.75.34A20.26,20.26,0,0,0,152,203.69c.8-.1,1.27-.35,1.35-1.16.14-1.37.3-2.74.42-4.12.38-4.58-1.38-8.55-3.47-12.48C145.64,187.43,141,187.24,136.3,186.39ZM116.68,199l-.28,0c0,.14-.05.28-.07.42a31.53,31.53,0,0,1-1.12,5.63,21.81,21.81,0,0,1-2.93,4.56c-.56.78-.9,1.42-.17,2.3s1.35,2,2.13,3a21.73,21.73,0,0,0,9.39,7,1.35,1.35,0,0,0,1.81-.52c3.2-4.39,3.92-9.32,3.23-14.56a1.24,1.24,0,0,0-.76-.82,22.57,22.57,0,0,1-10.12-5.73c-.41.35-.86,1-1.2.06A3.46,3.46,0,0,1,116.68,199Zm16-76c-.09,0,0,0,.13,0a30.63,30.63,0,0,1,9.84-2,1.21,1.21,0,0,0,.83-.52c.93-1.47,1.83-2.95,2.68-4.46a12.28,12.28,0,0,0,1.1-9.4c-.2-.78-.63-1-1.35-1a18.63,18.63,0,0,0-13.27,4.48,1.1,1.1,0,0,0-.35,1c.93,2.17.72,4.45.7,6.69C133,119.44,132.79,121.16,132.68,123ZM91.56,198.33a42.25,42.25,0,0,1-15.71-8.92c-.68,1.75-.31,3.28-.26,4.85.12,3.69,1.83,6.65,3.78,9.58a1.42,1.42,0,0,0,1.68.75c1.88-.47,3.79-.86,5.62-1.46C88.93,202.39,90.41,200.72,91.56,198.33Zm53-57.66c3.33-4.57,4.74-9.21,3.27-14.54a2.1,2.1,0,0,0-1.86-1.64,19.63,19.63,0,0,0-7.55-.4,38.8,38.8,0,0,0-4.52,1.34A40.74,40.74,0,0,1,144.53,140.67Zm-53.71-25.8a6.7,6.7,0,0,0-3.41-3.05A58.11,58.11,0,0,0,81.66,110c-3-.71-3.06-.69-4.63,1.84a18.24,18.24,0,0,0-3.14,9,22.3,22.3,0,0,0,.4,3.41c2.83-1.86,5.33-3.7,8-5.21S87.88,116.28,90.82,114.87Zm55.82,49.42a9,9,0,0,0,5.25-1.91,17.23,17.23,0,0,0,5.19-7.38,2.12,2.12,0,0,0-.15-1.62,15.11,15.11,0,0,0-6-5.78,42.45,42.45,0,0,0-4.68-1.59C147.65,152.31,148.17,158.25,146.64,164.29Zm-85-16.19a9.57,9.57,0,0,0-4.52,1.16,21.88,21.88,0,0,0-6.23,5.43c-1.32,1.62-1.29,1.82,0,3.5a22.76,22.76,0,0,0,7.48,6.11,16.06,16.06,0,0,0,3.24.94A38.14,38.14,0,0,1,61.68,148.1Zm72.18,39.79c-4.33,4.47-9.61,7.13-15.24,9.54a18.76,18.76,0,0,0,4.22,3.22c2.81,1.33,5.89,1.47,9,1.43a1.09,1.09,0,0,0,1.21-1c.55-2.59,1.23-5.16,1.65-7.77A8.53,8.53,0,0,0,133.86,187.89ZM96.63,200s0,0,0,.12c1.54,4.54,4.69,7.7,8.71,10.1a.82.82,0,0,0,.73,0c2.6-1.82,5.16-3.71,6.71-6.59a7.58,7.58,0,0,0,.8-5c-1.06.76-2.46,0-3.16,1.37-.11-.18-.22-.49-.31-.48C105.65,199.69,101.18,199.86,96.63,200Zm-25-14.46a4.85,4.85,0,0,0-.28-.51,43.17,43.17,0,0,1-6.56-10.21c-.13-.31-.57-.5-.85-.72.53-1.23-.68-2-.8-3.21-3.29,3.63-5.47,7.48-5.72,12.21a1.36,1.36,0,0,0,.7,1.06,51,51,0,0,0,6.06,2A11.32,11.32,0,0,0,71.61,185.56ZM138,183.88a2.58,2.58,0,0,0,.52.18,11.12,11.12,0,0,0,1.62.35c4.07.43,7.53-1.34,11-3.08a.82.82,0,0,0,.28-.74,73.68,73.68,0,0,0-2.66-7.34,22.83,22.83,0,0,0-2.87-3.92C143.13,174.34,140.54,179.1,138,183.88ZM71,128.4a12.35,12.35,0,0,0-1.77-.45c-4.21-.32-7.9,1.32-11.52,3.15a1.39,1.39,0,0,0-.4,1.24A44.06,44.06,0,0,0,59,138.6a7.1,7.1,0,0,0,3.82,4.16c.14-1.19,1.54-2,.67-3.17,1.47-.42,1.1-2,1.77-2.8a14.67,14.67,0,0,0,1.65-3.08c.47-1,1.76-1.66,1.38-3.05C69.76,130.67,69.92,129.23,71,128.4Zm59.13-6.68a1.86,1.86,0,0,0,.12-.33,16.92,16.92,0,0,0-3.08-11.66,1.77,1.77,0,0,0-1.32-.46,19.19,19.19,0,0,0-8.78,3c-1,.59-1.82,1.31-2.73,2,1.4.53,2.54,1.43,3.92,1.08a5,5,0,0,0,.86.65c1.54.73,3.12,1.35,4.62,2.14C125.93,119.27,128,120.51,130.17,121.72Zm-20-8.36a.9.9,0,0,0,0-.3,4.3,4.3,0,0,0-.13-.7c-1-3.83-3.69-6.26-7-8.14a1.32,1.32,0,0,0-1.1,0,17.23,17.23,0,0,0-5.55,4.74,7.07,7.07,0,0,0-1,4.92c2.17-.23,2.28-.28,2.5-.94a4,4,0,0,0,1.2.43C102.74,113.38,106.36,113.36,110.13,113.36Zm41.31,16.94a14.62,14.62,0,0,0,4.26-5.08c1.15-2.48,2.27-5,1.88-7.85-.12-.84-.47-1.15-1.31-1.12a18,18,0,0,0-8.46,2.48,15.64,15.64,0,0,0-2.37,2.15c1.09.09,1.79.12,2.47.22,2.86.4,3.36.9,3.57,3.49,0,.27,0,.55,0,.82Zm7.8,29.45c5-.64,8.66-3.49,11.56-7.51a1,1,0,0,0-.22-.92,19.83,19.83,0,0,0-2.49-1.33,16.82,16.82,0,0,0-8.27-1.75,7.85,7.85,0,0,0-1.58.46l-.12.41c1.19,1.1,2.39,2.18,3.55,3.3a1.44,1.44,0,0,1,.38,1.91C161.07,156.11,160.17,157.94,159.24,159.75Zm-97.16,8.59c-1,1-1.9,1.85-2.69,2.81-3.26,4-5,8.68-6.12,13.63a1.28,1.28,0,0,0,.84,1.69,27.28,27.28,0,0,0,13.38,2.63,9.88,9.88,0,0,0,5.72-2c-.52-.91-1.1-1.24-2.14-.73a12.31,12.31,0,0,1-3,.86c-3.55.72-6.93-.31-10.29-1.16s-3.38-1-2.08-4.32a33.73,33.73,0,0,1,6.43-11C63,169.94,62.48,169.31,62.08,168.34Zm73.79,18.11h-.52c-.54.41-1.08.73-.83,1.68a32.77,32.77,0,0,1,.92,4.88,30.4,30.4,0,0,1-.72,9.92c-.15.65-.23,1.36-1.28,1.34a20.05,20.05,0,0,1-14.55-6c-.88-.9-1.5-.85-2.57-.1,1.17,1.11,2.21,2.24,3.4,3.2a19.92,19.92,0,0,0,14.64,4.43,1.57,1.57,0,0,0,1.66-1.32,29,29,0,0,0,1.22-10.91C137,191.21,136.34,188.84,135.87,186.45ZM83.12,209.07c-1.28.26-2.55.47-3.79.8-1,.26-1.38-.15-1.76-.92-.72-1.49-1.5-2.94-2.43-4.72A27,27,0,0,0,72.62,218C77.17,217.35,82.89,212.42,83.12,209.07ZM53.84,180.15c-1.35.6-2.66.84-3.5,1.61-2,1.87-4.22,3.59-5.55,6.12-.66,1.27-.65,1.42.78,1.8.34.08.64.34,1,.39.63.09,1.27.09,2.12.14.66,1.18,8.53.36,10.36-1.3-.26-.12-.5-.24-.75-.33-1.55-.59-3.1-1.18-4.66-1.73a1.32,1.32,0,0,1-.93-1.77C53,183.58,53.39,182.09,53.84,180.15Zm82.27,5.55a16.51,16.51,0,0,0,1.77.51,27.23,27.23,0,0,0,16.43-2.35c1.73-.85,1.75-.88,1.18-2.68a28.2,28.2,0,0,0-5.7-10.72,47.32,47.32,0,0,0-3.57-3.25c-.45,1-.61,1.54.14,2.16,4,3.32,5.85,8,7.84,12.78-1.07.42-2,.81-3,1.14-4.34,1.47-8.73,2.33-13.27,1C136.75,184,136.62,184.93,136.11,185.7Zm1.29,15.88c-.36,1.31-.75,2.5-1,3.73a1.09,1.09,0,0,1-1.21,1c-1.29.05-2.57.15-3.88.23,0,.2,0,.34.07.42,2.31,3.21,5,5.9,8.91,7.13.67.22.88-.09,1-.64.4-2.94.46-5.87-1-8.59A6.6,6.6,0,0,0,137.4,201.58ZM106,225.07c3.66-3.51,6.48-8.81,4-12.42-1,.86-2,1.72-3.06,2.59a1.48,1.48,0,0,1-2,0c-.75-.54-1.52-1.06-2.31-1.62C101.67,217,103.36,222.64,106,225.07ZM61.67,165.72c-.34,0-.58,0-.81-.05s-.54-.13-.81-.19A20.67,20.67,0,0,1,47.82,157a1.43,1.43,0,0,1,.27-2.29c1.38-1.19,2.81-2.32,4.13-3.56a15.32,15.32,0,0,1,8.58-3.65c1.15-.17,1.45-.65,1.35-1.73a9.27,9.27,0,0,0-4.64.88c-4.73,1.65-8.14,5.06-11.36,8.69a1.3,1.3,0,0,0-.09,1.2,22.45,22.45,0,0,0,7.26,7.84A22.94,22.94,0,0,0,62,167.59ZM48.3,152.14l-.12-.32c-4.17-.13-8.31-.2-11.32,3.86l1.44.87a3.09,3.09,0,0,0,1.1,1.61,25,25,0,0,0,4.42,2,28.75,28.75,0,0,0,4.25.7c-1-1.52-1.77-2.76-2.62-3.94a1.28,1.28,0,0,1,.18-1.95C46.57,154.06,47.42,153.08,48.3,152.14Zm115.8,36c-.94-3.56-5.28-8.77-8.55-8.62.23,1,.42,1.92.7,2.86a1,1,0,0,1-.67,1.41c-1.13.53-2.24,1.1-3.52,1.73A16.4,16.4,0,0,0,164.1,188.1ZM72.43,126.56c-.36-.11-.65-.24-1-.3a18.76,18.76,0,0,0-2.46-.38c-5.33-.24-10.29,1.61-15.36,2.83a.93.93,0,0,0-.77,1.21,22.37,22.37,0,0,0,2.74,8.54,18.33,18.33,0,0,0,6.77,6.46c.37-1.32.36-1.31-.53-1.94a16.93,16.93,0,0,1-7.53-12.39c-.07-.6,0-.85.66-1,3.14-.65,6.26-1.39,9.41-2a10.59,10.59,0,0,1,5.64,0A1.68,1.68,0,0,0,72.43,126.56Zm33.25-25.38a16.45,16.45,0,0,0,.47-3.55,12,12,0,0,0-1.08-3.33c-.11-.29-.8-.41-.83-.66-.23-1.81-1.49-2.62-2.94-3.49-1.68,3.45-2.8,6.78-1.74,10.48,1.06-.68,2.08-1.88,3-1.78C103.55,99,104.45,100.22,105.68,101.18Zm-33.54,1.49c.47,2.5.12,5,1.74,7.18.63-1.16,1.27-2.24,1.83-3.37a1.63,1.63,0,0,1,2.16-.88c1,.26,2,.42,3.15.64A10.92,10.92,0,0,0,76.46,100L76,101.1l-.26,0L76,99.6c-1.19-1-3-1.46-3.46-.86a3,3,0,0,0,.77,3.93Zm53.79,2.6a12.88,12.88,0,0,0,1.82-.33,1.72,1.72,0,0,1,2.25.92c.39.7.82,1.37,1.34,2.24a17.91,17.91,0,0,0,1-11.34C128.74,97.87,125.82,101.74,125.93,105.27Zm19.75,61c.77-3.76,1.76-7.53,1.17-11.46l-7.76,5.07ZM82.62,119.54c-3.15,1.95-6.56,3.68-9,7.1l9,1.48Zm47.68,13.29,8.77-.79a37.14,37.14,0,0,0-7.1-7.48Zm14.38,9.81a44.61,44.61,0,0,0-5.08-9.86c-1.17,2.78-2.24,5.34-3.23,7.68ZM74.5,187.47a42.11,42.11,0,0,0,8.82,6.63v-8.51ZM127,192.9l-8.66-4.19c.59,3.26-1,5.85-2.22,8.51l.2.31Zm-4.41-66.44a17.21,17.21,0,0,1,8.38-2.63c-2.35-2.79-5.38-4.2-8.38-5.65ZM89.64,124l3-8.76a37.4,37.4,0,0,0-9,3.62Zm22-9.33,0-.36-10-.73,4.8,7.16Zm24.14,70.21c1.95-2.53,4.19-5.13,5.5-8.42l-7.45.78ZM147,153.65c-.59-3.36-1.14-6.46-1.68-9.52-1.92,2.27-3.68,4.35-5.48,6.46ZM72.75,127.43a33.21,33.21,0,0,0-6.12,8.5H74C73.59,133.11,73.17,130.29,72.75,127.43Zm54.72,64.71a26.85,26.85,0,0,0,7.15-6l-8-.92Zm-32.53,6.64,9.37.82c-1.45-2.76-2.7-5.12-3.86-7.3Zm-24.06-56L66,136.66c-.92,3-2.83,5.5-2.74,8.52Zm-2.4,9.55-6-5.26-1.24,8.61Zm-7.33,4.48,1.22,9.3c1.69-2.21,3.33-4.18,5.78-5.37Zm60.53-39a31,31,0,0,0-8.78-2.93q1.77,3.66,3.4,7.06ZM62.8,168.64l4,9,4-6.52Zm12.43,9.56-7.64.82,5.16,6.7Zm17.51,20.05L90,190.46c-1.68,1.3-3.57,2.77-5.72,4.46Zm.65-83.31,5.34,5.3,2.3-6.55Zm14.83,78.77-2.89,5.88,9.06-1.37Zm37.12-25.49-6.53,2.4,3,5.11ZM77.1,202l-.2.07c.44.95.82,1.93,1.33,2.84,1.07,1.89,1.12,2,3.18,1.32,1.53-.47,3-1.17,4.47-1.77l-.13-.31c-.73.26-1.45.57-2.2.77s-1.55.31-2.33.46a1.81,1.81,0,0,1-2-.73C78.57,203.78,77.82,202.92,77.1,202Zm78.84-43.52c1-.52,3.39-3.28,3.17-4.23a7.91,7.91,0,0,0-1.77-2.64,8.64,8.64,0,0,0-1.28-1.21,6.64,6.64,0,0,0-1-.53C158.11,154.16,158.83,153.4,155.94,158.52Zm-28.51,44.21a13.58,13.58,0,0,0,6,.8.67.67,0,0,0,.5-.39c.4-2,.77-4,1.14-5.95l-.28-.05c-.51,1.57-1,3.15-1.55,4.69a1.51,1.51,0,0,1-1,.86C130.61,202.79,129,202.73,127.43,202.73ZM57.51,137.66l.34-.09c-.13-.45-.28-.89-.37-1.35-.27-1.35-.55-2.69-.78-4.05a1.43,1.43,0,0,1,1-1.77,20.84,20.84,0,0,0,2.15-1.11c-1,.19-1.88.59-2.83.79-1.5.31-1.94.86-1.44,2.31C56.18,134.16,56.86,135.91,57.51,137.66Zm51.81,71.24-.13-.18c-.6.49-1.2,1-1.8,1.47-1.34,1.1-1.88,1.13-3.25.11-1-.72-2-1.47-2.94-2.21l-.38.41,4.25,4.54.63-.29Zm20.5-96.18.31,0L128,107.39,122.38,109l.09.33,3.12-.61a1.81,1.81,0,0,1,2.16.77C128.42,110.56,129.13,111.64,129.82,112.72Zm-23.19-6.85.09-.06c-.68-.69-1.33-1.41-2-2.06s-1.58-1.29-2.11-1.73L98,106.26a39.29,39.29,0,0,0,3.29-2.37,1.64,1.64,0,0,1,2.07-.22C104.46,104.38,105.54,105.14,106.63,105.87Zm41,77.88.05.13,5.9-1.9c-.94-2.11-1.82-4.1-2.7-6.09l-.3.12c.46,1.41.82,2.85,1.4,4.21.41,1,.14,1.44-.73,1.82C150.06,182.58,148.87,183.18,147.66,183.75Zm-3.84-60.55,0,.21c1.35.44,3.13.51,3.94,1.42s.87,2.79,1.29,4.4c.05-1.66.12-3.22.11-4.77a.88.88,0,0,0-.57-.63C147,123.58,145.4,123.4,143.82,123.2Zm-68.67-9.74.14.07c.82-1.27,1.59-2.59,2.5-3.79a1.89,1.89,0,0,1,1.46-.64c1.55.14,3.09.46,4.64.71A40.14,40.14,0,0,0,78,108.3c-.2,0-.59.24-.71.47C76.56,110.32,75.86,111.89,75.15,113.46Zm-18,67.5-.44.06c-.34,1-.7,2-1,3a.66.66,0,0,0,.23.61c1.23.54,2.49,1,3.74,1.53l.31-.44C57.5,185.09,55.85,183.92,57.16,181Zm81.7,20.27,2.85,3.89h.08l-1.39-2.89,1.84.63.08-.23Zm17.43-12.56.09-.25-4.16-1.57,1.54,3.77.12,0c-.26-.94-.52-1.89-.8-2.89Zm-.14-10.5,3.52,2,.18-.26-2.5-1.61,1.13-.43-.06-.2Zm-54.66,39.66v-4l-.35,0C100.52,215.21,101.38,216.5,101.49,217.83Zm58-57.4-.21.39,3.28,2,.14-.22Zm-3.12-29.72.06-.27c-.39-.08-.79-.18-1.18-.25s-.93-.15-1.39-.23a5.26,5.26,0,0,1-.53-.15l-.11.43ZM84.86,209.65c-.68.41-.56.38-.4,1.09a18.43,18.43,0,0,1,.25,2.79l.15,0ZM112,216.48a14.59,14.59,0,0,0-.16-3.74l-.37,0C111.63,214,111.81,215.25,112,216.48Zm-13.69-116-.17-3.29h-.18v2.27L97.15,99l-.09.16Z" transform="translate(-33.46 -89.18)"/><path class="cls-1" d="M60.18,209a17,17,0,0,1-1.75,0c-1-.1-2-.25-2.93-.44a.82.82,0,0,1-.56-.49c-.29-1.47-.52-2.94-.75-4.42,0-.07.13-.17.3-.38.23,1.29.46,2.45.63,3.61a1.4,1.4,0,0,0,1.39,1.34l2.71.27,1,.1Z" transform="translate(-33.46 -89.18)"/><path class="cls-1" d="M39.9,177.38c-1.83-.17-3.09-1.39-4.61-2.57l2.81-5.58.5.23c-.13.27-.24.55-.38.81-.65,1.26-1.28,2.53-2,3.77a.8.8,0,0,0,.36,1.26C37.73,176,38.81,176.69,39.9,177.38Z" transform="translate(-33.46 -89.18)"/><path class="cls-1" d="M40.34,136c-.67.44-1.35.87-2,1.33-1.87,1.3-1.92,1.46-1,3.54.3.7.67,1.37,1,2.06l-.36.22a19,19,0,0,1-1.09-1.76c-1.39-3-1.51-2.24,1-4.28a27.22,27.22,0,0,1,2.26-1.54Z" transform="translate(-33.46 -89.18)"/><path class="cls-1" d="M52.67,113c.24-1.46.46-2.93.73-4.38a.73.73,0,0,1,.47-.48c1.4-.35,2.81-.66,4.21-1l.15.45a3.61,3.61,0,0,1-.8.32c-3.33.51-3.33.51-4.08,3.77-.1.44-.19.89-.28,1.33Z" transform="translate(-33.46 -89.18)"/><path class="cls-1" d="M86.57,222.75c.72.93,1.44,1.85,2.15,2.78a1.22,1.22,0,0,0,1.66.4L93,224.72l1.11-.52.16.26a5.11,5.11,0,0,1-.75.57c-.7.35-1.43.66-2.15,1-1.72.75-2.21.65-3.44-.81-.61-.71-1.12-1.5-1.68-2.25Z" transform="translate(-33.46 -89.18)"/><path class="cls-1" d="M128.24,221c-.36,3.22-3.16,4.46-5.75,2.56A12.07,12.07,0,0,1,124,224a1.91,1.91,0,0,0,2.73-.79C127.22,222.49,127.7,221.79,128.24,221Z" transform="translate(-33.46 -89.18)"/><path class="cls-1" d="M120,92c-1.07-.9-1.91-2.13-2.91-2.29s-2.17.77-3.26,1.23l-.15-.35c1.21-.49,2.47-1.45,3.64-1.35S119.42,90.55,120,92Z" transform="translate(-33.46 -89.18)"/><path class="cls-1" d="M149.06,107.28a18.15,18.15,0,0,1-.24-2c0-1-.54-1.32-1.41-1.34s-1.71,0-2.56,0l0-.51c1.27.12,2.84-.17,3.71.48s.68,2.18,1,3.33Z" transform="translate(-33.46 -89.18)"/><path class="cls-1" d="M89.47,91.43c-2.34-1.26-4-.77-5,1.87l-.36-.45c.64-.85,1.1-2,1.94-2.45C87.18,89.83,88.37,90.73,89.47,91.43Z" transform="translate(-33.46 -89.18)"/><path class="cls-1" d="M169.24,136.65c.09-.25.15-.51.25-.76.79-1.95.8-1.95-1.14-2.9-.52-.25-1-.47-1.57-.71l.15-.3c1.07.6,2.14,1.17,3.18,1.81a.94.94,0,0,1,.24.82c-.22.74-.54,1.45-.82,2.17Z" transform="translate(-33.46 -89.18)"/><path class="cls-1" d="M154.74,205.61c.44-1.28.87-2.56,1.31-3.83a4.65,4.65,0,0,1-1.33,3.8Z" transform="translate(-33.46 -89.18)"/><path class="cls-1" d="M34.94,138.36a9,9,0,0,1-1,.83s-.47-.36-.44-.47A1.38,1.38,0,0,1,34,138C34.14,137.87,34.48,138.14,34.94,138.36Z" transform="translate(-33.46 -89.18)"/><path class="cls-1" d="M154.72,205.58l-3.66,1-.1-.46,3.78-.49Z" transform="translate(-33.46 -89.18)"/><path class="cls-1" d="M170.83,167.89l2.06,3-.23.16-2.11-2.9Z" transform="translate(-33.46 -89.18)"/><path d="M116.1,187c2.28,1.24,2.28,2.51,1.61,5.43a21,21,0,0,1-1.94,4.44,1.2,1.2,0,0,1-1.08.49,13,13,0,0,1-5.7-3.73,1.46,1.46,0,0,1-.23-1.81c.69-1.46,1.18-3,1.73-4.54a1.49,1.49,0,0,0,0-1c-1.32,3.43-2.76,6.75-5.67,9.31-3-2.37-4.56-5.54-5.86-9a4.17,4.17,0,0,0,0,.93,6.93,6.93,0,0,0,.47,1.83c.86,1.67.24,3-.77,4.31a14,14,0,0,1-4.26,4.24c-.21.11-.42.19-.74.33-1.24-2.39-2.61-4.65-2.62-7.43a2.32,2.32,0,0,1,1.17-2.22,40.63,40.63,0,0,0,3.67-3.05l-.34-.38a13.35,13.35,0,0,1-1.21,1.28,21.78,21.78,0,0,1-7.49,4c-.83.27-1.28.08-1.51-.88a22.12,22.12,0,0,1-.49-8.38,3.27,3.27,0,0,0-.16-1.48,3,3,0,0,0-.37.71,12.27,12.27,0,0,0-.49,2.44,2.41,2.41,0,0,1-2.35,2.56c-2.18.35-4.36.77-6.54,1.15-.93.16-1.28-.2-1.21-1.17a15.86,15.86,0,0,1,2.69-7.29c.21-.33.86-.44,1.33-.56a29.37,29.37,0,0,0,3.68-1.13,20.91,20.91,0,0,1-11-.07c.49-4,2.94-6.82,5.07-9.89a1.53,1.53,0,0,0-.52.23c-.93.91-1.87,1.81-2.74,2.79a2,2,0,0,1-1.74.71,13.8,13.8,0,0,1-7.78-2.78c1.44-2.57,3-4.9,5.76-6a3.16,3.16,0,0,1,1.91.12c.94.28,1.84.73,2.76,1.07a2,2,0,0,0,.66,0l-.68-.81a9.88,9.88,0,0,1-2.2-.63,15.36,15.36,0,0,1-5.55-4.78c2.54-2.81,6-4,9.43-5.16l-.16-.47c-1,.27-2.12.46-3.13.83-2.84,1-2.16,1.21-4.37-.87-1.09-1-2.1-2.17-3.09-3.3-.83-.93-.75-1.17.29-1.79A14.16,14.16,0,0,1,71,143.75a2,2,0,0,1,1.23.71c.86.87,1.61,1.84,2.46,2.72.25.25.7.29,1.12.46l-.32-1.86-.22.27c-.45-.29-1-.47-1.31-.88-1.11-1.67-2.15-3.39-3.15-5.14-.67-1.18-.4-2,.93-2.16,3-.41,6.06-1.28,9.14-.24.07,0,.18-.09.43-.21-.3-.15-.48-.25-.67-.33s-.37-.11-.39-.12L80,133.89l2.6-.79,0-.52c-1.18,0-2.36,0-3.54,0-.18,0-.53.35-.51.5.18,1.19.43,2.36.64,3.48-.81-.06-1.87-.16-2.93-.21-.74,0-1.3-.29-1.44-1.08-.39-2.13-.75-4.27-1.11-6.4-.11-.68.28-1,.9-.92,2.55.26,5.11.51,7.65.87.3,0,.65.68.74,1.1a24.79,24.79,0,0,0,.82,3.38,22.75,22.75,0,0,1,1.42-10,16.43,16.43,0,0,1,8.37,5l.27-.26a11.1,11.1,0,0,0-1.61-1.67c-1.82-1.23-1.92-2.8-1.22-4.67s1.31-3.78,2.09-6L95.84,118c.12.1.22.22.34.33,1.75,1.49,2.91,3.15,1.94,5.63a6.82,6.82,0,0,0-.17,2.36c0,.22.29.44.6.63-.11-3.44.72-6.41,3.5-8.85l5.64,6.09-.24-.86a12.58,12.58,0,0,0,1.46-1.26c.94-1.1,1.81-2.26,2.81-3.54.87,1.86,1.65,3.56,2.55,5.5.06-.45.19-.72.11-.9q-1.08-2.31-2.22-4.59c-.3-.59-.72-.57-1.1-.06q-1.8,2.43-3.58,4.88a2,2,0,0,1,0-3.15c1.19-1.26,2.29-2.6,3.45-3.89.69-.76,1.44-.89,1.94.16,1,2,1.87,4.06,2.77,6.1a.73.73,0,0,1-.12.62c-.91,1-1.85,2-2.79,3,.62-1.91-.94-3-1.37-4.36l-2.72,2.47.19.29L111.1,123c.32.91.59,1.81,1,2.67.1.23.5.34.76.5l-1.31,2.16c2.59-2.33,4.85-5.09,8.61-6.13l1.88,8.71.12.07a6,6,0,0,0,.13-1.45,3,3,0,0,1,2.2-3.64c1.84-.58,3.71-1.07,5.59-1.54.77-.2,1.26.12,1.09,1-.45,2.37-.86,4.74-1.42,7.09-.11.46-.76.93-1.27,1.14-1.4.56-2.85,1-4.28,1.45l.14.47c.49-.13,1-.24,1.47-.38,2.74-.8,5.49-1.51,8.4-1.06,2.15.33,2.22.5,2,2.64a12.27,12.27,0,0,1-3.38,7.3c.62-.54,1.43-1.3,2.3-2a2,2,0,0,1,1.08-.55,17.24,17.24,0,0,1,7.69,1.77,1.19,1.19,0,0,1,.38,1.08,17,17,0,0,1-5,5.69,1.4,1.4,0,0,1-1.07,0c-1.47-.46-2.92-1-4.39-1.48a2.22,2.22,0,0,0-1.18,0c3.67,1.58,7.66,2.6,10.34,6.14-2.41,2.79-4.81,5.56-8.79,6.31l.22.4c1-.29,2-.61,3-.87a1.47,1.47,0,0,1,1,0,20.52,20.52,0,0,1,6.85,6.74c-2,1.62-4.32,2.15-6.63,2.78-.25.06-.68-.3-.95-.55-1.63-1.48-3.24-3-4.86-4.48l-.33.26a9.38,9.38,0,0,0,.6.9c1.36,1.6,2.79,3.14,4.06,4.8a15.46,15.46,0,0,1,1.57,2.92c.36.76.22,1.5-.74,1.6-2.74.32-5.49.57-8.24.78a11.82,11.82,0,0,0-1.9,0,23,23,0,0,0,3.5.74c1.11.06,1.87.4,2.16,1.44.54,1.94,1,3.88,1.48,5.84a.89.89,0,0,1-1,1.18c-1.61-.06-3.21-.29-4.82-.3-2.12,0-3-1.16-3.6-3.08a24.8,24.8,0,0,0-1.9-3.92l-.47.21a18.18,18.18,0,0,1,.76,2.26c.56,2.62,1.21,5.24,1.54,7.89.21,1.78-.18,2-1.9,1.38a29.27,29.27,0,0,1-9.39-5.1c-.11.54-.11.54,1.89,2.25a3.14,3.14,0,0,0-.31,1,12.06,12.06,0,0,1-1.35,7.12l-4.78-3.9-.23.29c1.34,1.12,2.61,2.31,4,3.33,1.14.81,1.51.63,2-.67A13.16,13.16,0,0,0,116.1,187ZM93.74,144.44c.05.61.25,1.07.09,1.3a10.54,10.54,0,0,1-1.66,1.87c-.21.19-.69.14-1,.12-.54,0-1.08-.15-1.95-.27.45.77.59,1.28.93,1.55.81.67.59,1.3.2,2.06a16,16,0,0,0-.52,1.61c-.53,1.45.08,3.6-2.58,3.82a3.53,3.53,0,0,0,1.3.87c.86.15,1.06.74,1.13,1.42a8.07,8.07,0,0,0,1,3.74c.18.3,0,.93-.19,1.33a10.45,10.45,0,0,1-1,1.5l.2.3,2.14-.48c1.19,1.07,2.24,2.11,3.4,3,.61.47.94.83.61,1.63a4.32,4.32,0,0,0,0,1.46,3.46,3.46,0,0,0,.57-.29c1.56-1.31,1.55-1.31,3.26-.18.09.06.29-.07.42,0,1,.1,2,.18,3,.37.19,0,.31.49.43.77.23.56.44,1.12.66,1.69h.36l.94-2.55c.65.36,1.69-1,2.09.89,0-1.08.09-1.83,1.19-1.39.07,0,.23-.26.38-.35.89-.48,1.75-1.12,2.68,0a6.73,6.73,0,0,0,1.6,1,7.44,7.44,0,0,0-.2-1.91c-.39-.91,0-1.43.62-2a24,24,0,0,0,2.09-2.51,1.23,1.23,0,0,1,1.48-.61,7.12,7.12,0,0,0,1.6,0l.1-.33-1.77-1.67,1.26-2c-.6-.57-.3-1.08.44-1.36-.16-.34-.47-.67-.41-.92a2.29,2.29,0,0,1,.64-1.32,13,13,0,0,1,2.12-1l-.07-.33-2.65-.86c.24-2.07-1.19-3.59-1.85-5.32l1.36-1.91-.2-.27-2.11.64c-1.46-1-2.3-2.8-4.11-3.47a1.14,1.14,0,0,1-.74-1.6,5.55,5.55,0,0,0,0-1.47l-.3-.15-2,1.74-1.7-.9c-.72.66-1.12.22-1.21-.5-.37.25-.65.59-1,.63-.63.09-1.25.07-1.37-.86a5,5,0,0,0-.66-1.41l-.37.06-.45,2.57-1.83-.14a3.52,3.52,0,0,1-1.43.88,3.43,3.43,0,0,1-1.76.38c-.5-.16-.85-.85-1.27-1.3l-.29.21.55,2.12-1.54,1ZM125.21,179c.29,1.28,3.71,2.3,5.13,1.67L128.61,177l-.44.08.16,2.23ZM112.7,189.36a9.74,9.74,0,0,0-.88-1,8.66,8.66,0,0,0-1-.61c0,.48-.24,1.12,0,1.4a27.65,27.65,0,0,0,2.34,2.38l.46-.16.57-4.77-.43-.08c-.15.44-.3.87-.47,1.31S113,188.68,112.7,189.36Zm-7.92-3.94c1.6-1,1.76-2.89.48-4.95C103.3,182,103.21,182.83,104.78,185.42ZM85.34,153.93l-4.29-2.67.1-.48,5.15-1.4a11.73,11.73,0,0,0-6.64,1.46C81.42,152.39,83.09,153.68,85.34,153.93Zm35.24,30-.45.2-4.53-2.49c0,.31,0,.49.07.52,1.46.86,2.9,1.74,4.4,2.52.61.32,1-.07,1-.73-.18-1.72-.42-3.44-.66-5.15a3.47,3.47,0,0,0-.4-.88l-.22.08ZM92.44,172.22l-.21-.36c-1.54.67-2.93,1.84-5,1.64l2.08-4.72-.44-.19c-.8,1.74-1.63,3.46-2.37,5.22-.28.67.11,1,.8.78,1.27-.46,2.52-1,3.75-1.48A10.43,10.43,0,0,0,92.44,172.22ZM81,163.12l-.14-.49,4.28-3.53A9.69,9.69,0,0,0,80,163c1.2,1.07,5.41,1.37,6.69.48ZM76.13,184l2.41-6-.46-.16-2.6,6.68c2.63.34,7.21-1.23,7.83-2.71C81.07,183,79,184.16,76.13,184Zm40.36-13.2-.16.26a11.39,11.39,0,0,0,5.63,2.38c.27-1.86-1.45-5.39-2.82-5.91l2.57,5-.37.28Zm-44-25.19-.06-.33a12.24,12.24,0,0,0-5.33,1.29c-.56.27-.56.74-.13,1.16q1.77,1.74,3.6,3.44c.13.12.43.06.91.1l-4.19-4,.14-.44Zm16.45-1.32.28-.15-2.67-4.41.23-.27,5.06,1.66.11-.38a21.74,21.74,0,0,0-6.27-2A12.69,12.69,0,0,0,88.92,144.31Zm18.64,33.3,3.14,2.9a11,11,0,0,0,.51-6.76l-.48,0v5.67l-.52.15L107,175.43l-.13.1Zm29.12-22.77.06.59-4.57,3a8.62,8.62,0,0,0,4.9-3,1,1,0,0,0-.26-1c-1.8-1-3.64-2-5.47-3-.09-.05-.25.06-.33.09ZM81.54,141.38l.11-.27c-.28-.18-.57-.51-.84-.5-1.39.09-2.78.25-4.16.45-.14,0-.36.63-.27.82.65,1.27,1.36,2.51,2.08,3.74.09.16.38.22.57.33l.16-.18-2.33-4.15ZM98,173.94l-.22,0v6.45a9.16,9.16,0,0,0,3.85-5.56c-1.11,1.46-1.67,3.31-3.36,4.7Zm20.6-35.89.38.31-1.16,5.39a10.86,10.86,0,0,0,1.68-6.35c-2.3.45-5,2.6-5,3.81Zm8.73,10.16c-1.7-.81-5.22-.6-6.12.25h5.07l.15.29-3.79,3.6C124.72,151.62,126,150,127.3,148.21ZM76.48,172.64l2.79-4.54-.39-.21c-1.06,1.61-2.46,3-2.78,5.09,2,.68,5.18.56,6.13-.34Zm20.15-40.42A8.06,8.06,0,0,0,95.9,138l.64-4.49.39-.1,3.3,4.1-.42-1.84Zm-13.3,47.83-.14-.31-2.43.69v-3.17h-.34l-1.5,4.66c.85-.32,1.57-.57,2.28-.86S82.62,180.39,83.33,180.05ZM108.87,138c1-1.62.52-5.24-.68-6.49-1.82,1.11-3.45,3.86-3.18,5.2l2.87-4.69C109.21,134,108.72,135.88,108.87,138Zm13.93-9.26.16.5c1.84-.51,3.39-2,5.71-1.79l-1.38,5.87.41.09c.48-2.08,1-4.16,1.41-6.26,0-.15-.48-.6-.62-.56C126.59,127.22,124.7,128,122.8,128.69ZM73.06,163l-.39-.3-3.06,2.91.13.34,4.62.65.1-.39-2.83-1.05ZM89.17,179h-.48a11.49,11.49,0,0,0,0,4.85c.15.9.71,1.07,1.36.68,1.46-.86,2.86-1.81,4.27-2.75.11-.07.1-.32.15-.51l-4.89,3-.4-.3Zm38.9-17.05,0-.52a9.17,9.17,0,0,0-5-3c1.35,1,3,1.54,4.19,3.14L122,162.91l.13.49Zm5.74,3.6c1.09.86,2,.72,3.92-.63L135.11,162c.13.78.82,1.62.62,2.06C135.45,164.66,134.52,165,133.81,165.52Zm-63.19-3.31-.28-.31c-1.42,1.27-2.84,2.53-4.25,3.81-.73.67-.54,1.17.37,1.42,1.78.49,3.58,1,5.38,1.4.16.05.37-.11.68-.21l-6.36-1.71-.06-.4Zm61.89,9.47-.22.38-4.63.26,0,.15h5.47c-1-3-2.77-5.5-3.85-5.75Zm-30.66,12.58a9.49,9.49,0,0,0,2.89,5.38c1.35-1,3.16-4.3,3.07-5.47L105,189h-.43Zm35.29-38.76-3.29-1.24-.24.43,1.85,1.36L134,148C135,148.47,136.17,147.5,137.14,145.5Zm-9.45,9.87c1.83,1.31,2.73,1.21,3.95-.37C130.17,153.53,129.69,153.57,127.69,155.37Zm-29.75,32.1.19.08-2.08.79-.54-1.91c-1.74,1.48-.21,2.76-.26,3.82ZM76.4,135.85l.55-.11c-.2-1.15-.43-2.29-.58-3.45-.21-1.57-.06-1.77,1.49-1.72s3,.23,4.59.35c0-.14-.07-.27-.1-.27-2-.16-4-.33-6-.45-.18,0-.55.35-.53.51C76,132.42,76.2,134.14,76.4,135.85Zm22.68,53.57-.38-.22-4,5.91-.44-.08L92.94,189l-.36.09L94,195.68l.58.1ZM72.59,156.68,77.06,154l-.25-.41c-1.2.69-2.44,1.33-3.6,2.09-1.34.88-1.37,1.1-.24,2.17a31.43,31.43,0,0,0,2.66,2.06l.29-.38Zm52.21-18.23c2,.07,4.11-.69,6.44.12l-1.58,4.78.42.12,1.8-5.39A12.84,12.84,0,0,0,124.8,138.45ZM135,143.13c2.06.37,4.17.5,6.13,1.65l-3.81,4.32.28.25c1.27-1.43,2.55-2.84,3.78-4.29a.9.9,0,0,0-.21-.83A11.72,11.72,0,0,0,135,143.13ZM141.63,166l-.1.44-4.38,1.87.14.36c1.53-.65,3.06-1.28,4.56-2a.86.86,0,0,0,.05-.79,18.11,18.11,0,0,0-5.52-4.43ZM74.47,147.62c-.81-.43-3.14-.19-3.5.26a.67.67,0,0,0-.11.53,4.89,4.89,0,0,0,2.79,2l-1.13-1.63Zm6.15,9c-2.17-1.44-2.68-1.38-3.54.32C78.36,158.1,79,158.06,80.62,156.59Zm44.88,10.82c.42.63.78,1.12,1.09,1.65a1.41,1.41,0,0,0,2.32.49C128.54,167.74,127.33,167.27,125.5,167.41ZM94.13,118.9l-.44.09-1.63,5.78.37.11,1.6-5.4,3.51,3.89.32-.28Zm39,64.88c.08-2.44-1.13-5.47-2.48-6.41.49,1,1,1.85,1.39,2.79s.55,1.92.9,3.21l-6.43-.85,0,.28Zm-40.15-7A6.3,6.3,0,0,0,91.33,178c-.25.36-.09,1.08,0,1.59,0,.12.75.22,1,.09C93.61,179.13,93.66,178.8,93,176.74Zm31.61-42.52.58.12,1.13-4.76-3.23.84,0,.27,1.93-.2Zm-1.11,8.69.34.37c.53,0,1.21.1,1.57-.17a6,6,0,0,0,1.06-1.63c-.46-.16-1.14-.58-1.35-.42A11.08,11.08,0,0,0,123.5,142.91Zm-6-10.57.53-.1q-.39-1.69-.78-3.42c-2.62.74-4.48,2-4.27,2.78l3.89-2.29Zm-27.68.45c-.66.93-.7,1.19-.12,1.56s1.42.78,2.14,1.17C92.3,133.78,92.05,133.45,89.82,132.79Zm2.44-1.06.22-.38c-1.34-.81-2.68-1.64-4-2.44a.68.68,0,0,0-.54.1c-.87.59-1.54,3.4-1,4.6a16.14,16.14,0,0,1,.37-2.29,16.73,16.73,0,0,1,.94-2.08ZM103,124.92l2.64,2.22.22-.25a6,6,0,0,0-2.62-2.26.64.64,0,0,0-.59.22c-.7,1.26-1.37,2.54-2,3.83,0,.06.14.22.27.42Zm-5.76.83.19-.35L94.57,123l-1.12,3.6.38.15,1.06-2.4c.47.31.84.55,1.21.77S96.86,125.54,97.25,125.75Zm-13.52,19c-.44-.61-.65-1.21-1-1.36a4,4,0,0,0-1.78,0c-.1,0-.28.54-.19.66.28.37.63.85,1,.94A7,7,0,0,0,83.73,144.75ZM118,179.48c.56-1.59.11-2.6-1.31-3C116.25,178.22,116.55,179,118,179.48ZM83.87,168.61c-1.85-.4-2.85.19-2.54,1.68C82.81,170.66,83,170.53,83.87,168.61Zm29.54-33.22c.31-1,2.46-1,1.45-2.74C113.14,133.32,113.09,133.41,113.41,135.39Zm-11-3.88c1.48-2.23,1.48-2.23.41-2.73C101.73,130.11,101.71,130.21,102.43,131.51Z" transform="translate(-33.46 -89.18)"/><path d="M145.77,143.22a24.32,24.32,0,0,1,3.29,1c3.05,1.35,6.31,2.36,8.73,4.89.87.91,1.84,1.74,2.73,2.64,1.66,1.7,1.65,1.71.6,3.85a27,27,0,0,1-6,7.67c.32-.23.64-.45,1-.69a6.35,6.35,0,0,1,.91-.75c.34-.17.87-.39,1.14-.25,3.8,2,7.69,4,10.41,7.52.29.38.54.79.79,1.19,1,1.68,1.07,1.82-.66,2.76-4,2.2-8.23,3.91-12.92,4.08a1.59,1.59,0,0,1-1.83-1,22.74,22.74,0,0,0-5.79-7.88c-.79-.7-.64-1.27.35-1.63a9.36,9.36,0,0,0,2-.94l-4.2,1.08c-.1-1.08,0-1.69,1.14-1.91,4.09-.81,7.18-3.22,9.73-6.38a40.35,40.35,0,0,0,2.41-3.51,1.39,1.39,0,0,0-.22-1.92c-3.13-3.39-6.73-6-11.37-6.89C146.47,145.85,145.78,145.06,145.77,143.22ZM161.5,170c-.79-.63-1.31-1.29-2-1.48-.5-.14-1.2.25-1.75.53-.14.07-.2.65-.07.86.32.49.58,1.19,1.45.83C159.85,170.44,160.57,170.26,161.5,170Z" transform="translate(-33.46 -89.18)"/><path d="M136.3,186.39c4.7.85,9.34,1,14-.46,2.09,3.93,3.85,7.9,3.47,12.48-.12,1.38-.28,2.75-.42,4.12-.08.81-.55,1.06-1.35,1.16a20.26,20.26,0,0,1-10.93-2.08l-.75-.34c-2.44-1-2.47-1.39-2.45-4a49.78,49.78,0,0,0-.76-7.06C137,188.92,136.59,187.68,136.3,186.39Zm8,7.36c.22.84.22,1.69.65,2.15s1.17.1,1.78.13v-2.28Z" transform="translate(-33.46 -89.18)"/><path d="M116.68,199a3.46,3.46,0,0,0-.09,1.3c.34,1,.79.29,1.2-.06A22.57,22.57,0,0,0,127.91,206a1.24,1.24,0,0,1,.76.82c.69,5.24,0,10.17-3.23,14.56a1.35,1.35,0,0,1-1.81.52,21.73,21.73,0,0,1-9.39-7c-.78-.94-1.36-2-2.13-3s-.39-1.52.17-2.3a21.81,21.81,0,0,0,2.93-4.56,31.53,31.53,0,0,0,1.12-5.63c0-.14,0-.28.07-.42Zm5,14.3c1.09-1.88,1.06-2-1.11-3.22C119.56,212.11,119.68,212.45,121.7,213.31Z" transform="translate(-33.46 -89.18)"/><path d="M146.57,141.5A14.48,14.48,0,0,0,148.4,139c1-2.4,1.93-4.85,2.78-7.31.25-.7.49-.92,1.23-.88a37.56,37.56,0,0,1,13,3c.78.34,1.55.71,2.27,1-1.38,4.95-3.61,9.19-7.66,12.25a10.36,10.36,0,0,1-1.94,1.11,1,1,0,0,1-.86-.06c-3.31-2.74-7.38-3.88-11.31-5.4l.71-1.25Zm8.57-2.13,2,.61,1-2C156,137.12,155.66,137.29,155.14,139.37Z" transform="translate(-33.46 -89.18)"/><path d="M73.46,188.4a21.83,21.83,0,0,0-.59,4.76c.26,2.9.91,5.77,1.35,8.66a1.26,1.26,0,0,1-.4,1c-3.81,2.4-7.87,4-12.48,3.86-1.15,0-2.29-.19-3.43-.22-.88,0-1.19-.53-1.26-1.27a17.41,17.41,0,0,1,1.44-9.29c.92-1.92,2.08-3.73,3.11-5.6.37-.68.85-.74,1.64-.76,2.75-.09,5.5-.36,8.24-.65.54-.06,1-.57,1.57-.75.2-.07.52.19.78.29ZM64,199.33c2.9-.3,2.93-.52,2.64-3.58-.87.13-2-.35-2.42.8A10.93,10.93,0,0,0,64,199.33Zm3.31-5.71,0-.18c-.94,0-1.89,0-2.83,0a1.47,1.47,0,0,0-1,.49,13.72,13.72,0,0,0-2.67,6.7c.57-1.27,1-2.61,1.48-3.9.66-1.71,1.43-3.32,3.76-3A4.42,4.42,0,0,0,67.27,193.62Zm-8.09,12c2,.77,3.93.19,3.92-1.12C61.86,204.87,60.38,204.32,59.18,205.6Zm8.31-3.74,0-.35-6.18,1.19.08.36Zm-4,2.57c.12.92.57,1.34,1.29,1,.42-.2.67-.77,1-1.18l-.3-.28Z" transform="translate(-33.46 -89.18)"/><path d="M72.28,124.64l.38,1c-2-.14-3.88-.32-5.78-.38-.9,0-1.8.19-2.7.24-.58,0-1.17,0-1.87-.08-.34.74-2.08,1-2.85.33-1.49-1.21-2-2.92-2.52-4.58a55.89,55.89,0,0,1-1.77-5.88,17,17,0,0,1-.07-3.64c0-1.32.85-1.75,2-1.81,1.54-.08,3.09-.21,4.62-.14,2.41.11,4.81.36,7.21.56a3.91,3.91,0,0,1,.48,0c3.67.67,3.7,1,2.82,4.61-.61,2.45-.47,5.09-.66,7.64,0,.19,0,.39,0,.66l-.78-.12-.15.17c.17.15.4.45.5.42.94-.35,1.11.23,1.19.93-.21-.21-.44-.6-.65-.59a4.71,4.71,0,0,0-1.21.42,5.8,5.8,0,0,0,1.15.8C72.15,125.53,72.4,125.23,72.28,124.64Zm-10.11-2.51.12-.3c-.41-.39-1-.71-1.21-1.19-.71-1.74-1.26-3.54-1.93-5.29-.43-1.16.13-1.5,1.15-1.59,1.89-.15,3.78-.32,5.66-.49a62.35,62.35,0,0,0-6.41.08c-.88,0-1.18.6-1.06,1.37a17.51,17.51,0,0,0,2.59,6.92C61.27,121.92,61.8,122,62.17,122.13ZM64.82,119a8.76,8.76,0,0,0,0-1.71c-.08-.39-.35-1-.65-1.06a10.71,10.71,0,0,0-2.41-.21c-.07,0-.23.4-.22.61C61.59,118.3,62.92,119.31,64.82,119Zm-1.72,2.34,0,.41c1.47-.19,2.94-.37,4.4-.6.12,0,.16-.48.27-.86l-1.24.63-.12-1C65.86,121.82,64,120.5,63.1,121.29Zm-4.79-.15c.58-.82-.36-3.76-1.51-4.15Zm11.24-.23-.14,2.87A2,2,0,0,0,69.55,120.91Z" transform="translate(-33.46 -89.18)"/><path d="M94.61,201.42a36.31,36.31,0,0,0,2.12,5c1.09,1.82,2.55,3.43,3.81,5.15a1.2,1.2,0,0,1,.22,1c-1.73,3.76-3.6,7.42-7.22,9.8-3.45,2.28-3.57,2-5.55-1.2-2.33-3.77-2.59-8-2.18-12.29a2.43,2.43,0,0,1,.93-1.47c2.45-2,4.92-3.87,6.57-6.61a9.17,9.17,0,0,1,.58-.76l.75,1.49Zm-2.07,10c-1.23.7-1.27,1.49-.15,2.57C93.64,212.88,93.65,212.84,92.54,211.42Z" transform="translate(-33.46 -89.18)"/><path d="M114.23,111.43l-1.58,1.35c-.39-1.11-.79-2.23-1.18-3.32l-2.37-3.9a21.69,21.69,0,0,0-1.37-1.89c-.51-.6-.77-1.08-.27-1.87,1.39-2.2,2.45-4.65,4.12-6.62,1.22-1.44,3.14-2.31,4.84-3.31.28-.16,1.07.27,1.45.62a16.32,16.32,0,0,1,4.35,7c.59,1.76.94,3.59,1.43,5.38.22.8-.19,1.05-.84,1.4-2.81,1.51-5.57,3.12-8.34,4.71-.14.08-.19.33-.28.5Zm.73-8.66c1.88-1.5,1.91-1.8.44-3.45C113.11,101.19,112.83,100.8,115,102.77Zm-2.34,8.9.58.12.43-1.27-.82-.14Z" transform="translate(-33.46 -89.18)"/><path d="M132.68,123c.11-1.81.3-3.53.31-5.25,0-2.24.23-4.52-.7-6.69a1.1,1.1,0,0,1,.35-1,18.63,18.63,0,0,1,13.27-4.48c.72,0,1.15.23,1.35,1a12.28,12.28,0,0,1-1.1,9.4c-.85,1.51-1.75,3-2.68,4.46a1.21,1.21,0,0,1-.83.52,30.63,30.63,0,0,0-9.84,2C132.71,123,132.59,123,132.68,123Zm8.74-11.06c-2.46.22-3.08.88-2.75,2.41.19.86.9.82,1.21.43A19.22,19.22,0,0,0,141.42,111.91Z" transform="translate(-33.46 -89.18)"/><path d="M86.88,108.77l-1.36-.72c-.8-.42-2.11-.7-2.27-1.29a12,12,0,0,1-.22-4.43A17.12,17.12,0,0,1,86.15,94c.63-.85,1.06-1.18,2.18-.75a19.4,19.4,0,0,1,9.3,7.75,1.38,1.38,0,0,1-.19,2,15.3,15.3,0,0,0-4.51,10.48c-1.82-1.77-3.21-3.9-5.74-4.51Zm2-9.19a7.16,7.16,0,0,0-.65,1.84,1.6,1.6,0,0,0,.71,1.12c.14.11.77-.18,1-.44C90.67,101,90.52,100.64,88.91,99.58Zm3.55,12.58c.19-.68,1-1.34.13-2a1,1,0,0,0-1,.15C90.82,111.22,91.85,111.59,92.46,112.16Z" transform="translate(-33.46 -89.18)"/><path d="M50.11,163.13c1.62,1,3.19,2.05,4.85,3,1.1.6,2.33,1,3.48,1.46.22.09.36.36.76.77h2c-1.21,1.46-2.61,2.92-3.73,4.56s-2,3.49-2.94,5.26c-6.09,0-5.32-.11-5.61-.74a8.08,8.08,0,0,1-2,.35c-3.3-.32-6-2-8.64-3.91a18,18,0,0,1,5.83-7.21c1.15-.85,2.44-1.52,3.67-2.27l0,0-1,2.13-.39-.51a18.28,18.28,0,0,0-1.69,1.22c-1,.93-1,1-.49,1.52a5.5,5.5,0,0,0,1.15-.66c.51-.49.94-1.06,1.4-1.6l2.22-.88,0,0C50.9,165,51.13,164.5,50.11,163.13Zm-6.8,10-.21-.48c1.63-1.49,3.25-3,4.89-4.51l.81,1c.14-.29.23-.44.3-.6.12-.33.15-.88.35-.95a1.56,1.56,0,0,1,1.15.16c.95.55,1.85,1.19,2.77,1.79l.21-.33c-1-.75-2-1.52-3-2.24a1.08,1.08,0,0,0-.85-.17,15.85,15.85,0,0,0-6.65,5.36c-.66,1-.48,1.3.66,1.7a21.91,21.91,0,0,0,8.23,1l.91-2a.61.61,0,0,0-.57.4,1.65,1.65,0,0,1-2.14,1.29c-1.18-.21-2.39-.25-3.56-.49S44.4,173.4,43.31,173.09Zm3.92-1.63.21.45a17.48,17.48,0,0,0,2.29,0,2.51,2.51,0,0,0,1.29-.62,1,1,0,0,0-.2-.95c-.59-.34-1.45-.88-1.9-.68C48.22,170,47.78,170.82,47.23,171.46Zm5.77.64c1.1-.56,2.11-2.25,1.71-2.68Zm-2.42,1.52.45.25,1.4-2.15-.4-.26Z" transform="translate(-33.46 -89.18)"/><path d="M60.16,145.27c-1.38.4-1.49.32-1.67-1a1,1,0,0,0-.41-.71.83.83,0,0,0-.72.35,1,1,0,0,0,.08.78,4.75,4.75,0,0,0,.62.81c-.49.33-.86.62-1.27.85-1,.56-2,1-3-.14v0l1-1.1c-2,.38-2.58,1-2.8,2.53l0,0c-.55.37-1,.73-1.56-.13-.24-.36-1.07-.33-1.59-.47-.11.09-.2.13-.22.19-.42,1.64-.41,1.63-2,.52a20.64,20.64,0,0,1-3.35-2.34c-1.75-1.8-3.28-3.8-4.85-5.67,1.83-2.26,5.81-3.8,6.78-3,.24-.3.42-.77.71-.84,1.13-.27,2.3-.43,3.63-.65l-.78,2c1.64-.22,3.35.48,4.7-1.29l-1.28-.47c.44-.55,1.15-.53,1.37.14,1,3.05,3.15,5.36,5.28,7.65a5.41,5.41,0,0,0,1.28.76l-1.29.59,1.2.56A.26.26,0,0,0,60.16,145.27Zm-7-1.55c-.89.55-1.76,1.14-2.68,1.63a1.63,1.63,0,0,1-1.21.15A18.39,18.39,0,0,1,47,144.23l-.19.33c.89.54,1.75,1.13,2.68,1.58.26.13.76-.06,1.07-.25a19.1,19.1,0,0,0,2-1.41,3.1,3.1,0,0,0,.51-.78l1.53.16.14-.47-.73-.73Zm-6.1-2.1c1.71,2.07,2.37,2.17,3.84.6C49.65,140.19,48.78,140.06,47,141.62Zm1.32-2.88.08.44a13.27,13.27,0,0,0,1.41-.19c1-.24,1.64-.07,2,1a9.72,9.72,0,0,0,1,1.78l.27-.18c-.44-1-.87-2.07-1.33-3.09a.57.57,0,0,0-.47-.26C50.37,138.38,49.37,138.57,48.36,138.74Zm-.79.59-.12-.35c-1,.35-1.94.7-2.92,1-1.49.5-1.54.68-.42,1.9C44.45,140.75,44.52,140.7,47.57,139.33Zm3.25,3.86A10.46,10.46,0,0,0,50,144a1.56,1.56,0,0,0-.18.5c.19.06.46.24.57.17a2.27,2.27,0,0,0,.79-.78C51.25,143.73,50.94,143.4,50.82,143.19Z" transform="translate(-33.46 -89.18)"/><path d="M91.56,198.33c-1.15,2.39-2.63,4.06-4.89,4.8-1.83.6-3.74,1-5.62,1.46a1.42,1.42,0,0,1-1.68-.75c-2-2.93-3.66-5.89-3.78-9.58,0-1.57-.42-3.1.26-4.85A42.25,42.25,0,0,0,91.56,198.33Z" transform="translate(-33.46 -89.18)"/><path d="M144.53,140.67a40.74,40.74,0,0,0-10.66-15.24,38.8,38.8,0,0,1,4.52-1.34,19.63,19.63,0,0,1,7.55.4,2.1,2.1,0,0,1,1.86,1.64C149.27,131.46,147.86,136.1,144.53,140.67Z" transform="translate(-33.46 -89.18)"/><path d="M90.82,114.87c-2.94,1.41-5.82,2.61-8.51,4.13s-5.19,3.35-8,5.21a22.3,22.3,0,0,1-.4-3.41,18.24,18.24,0,0,1,3.14-9c1.57-2.53,1.67-2.55,4.63-1.84a58.11,58.11,0,0,1,5.75,1.82A6.7,6.7,0,0,1,90.82,114.87Z" transform="translate(-33.46 -89.18)"/><path d="M146.64,164.29c1.53-6,1-12-.37-18.28A42.45,42.45,0,0,1,151,147.6a15.11,15.11,0,0,1,6,5.78,2.12,2.12,0,0,1,.15,1.62,17.23,17.23,0,0,1-5.19,7.38A9,9,0,0,1,146.64,164.29Z" transform="translate(-33.46 -89.18)"/><path d="M61.68,148.1a38.14,38.14,0,0,0,0,17.14,16.06,16.06,0,0,1-3.24-.94,22.76,22.76,0,0,1-7.48-6.11c-1.29-1.68-1.32-1.88,0-3.5a21.88,21.88,0,0,1,6.23-5.43A9.57,9.57,0,0,1,61.68,148.1Z" transform="translate(-33.46 -89.18)"/><path d="M133.86,187.89a8.53,8.53,0,0,1,.81,5.43c-.42,2.61-1.1,5.18-1.65,7.77a1.09,1.09,0,0,1-1.21,1c-3.08,0-6.16-.1-9-1.43a18.76,18.76,0,0,1-4.22-3.22C124.25,195,129.53,192.36,133.86,187.89Z" transform="translate(-33.46 -89.18)"/><path d="M96.63,200c4.55-.16,9-.33,13.49-.46.09,0,.2.3.31.48.7-1.33,2.1-.61,3.16-1.37a7.58,7.58,0,0,1-.8,5c-1.55,2.88-4.11,4.77-6.71,6.59a.82.82,0,0,1-.73,0c-4-2.4-7.17-5.56-8.71-10.1C96.61,200.07,96.63,200,96.63,200Z" transform="translate(-33.46 -89.18)"/><path d="M71.61,185.56a11.32,11.32,0,0,1-7.45.6,51,51,0,0,1-6.06-2,1.36,1.36,0,0,1-.7-1.06c.25-4.73,2.43-8.58,5.72-12.21.12,1.24,1.33,2,.8,3.21.28.22.72.41.85.72a43.17,43.17,0,0,0,6.56,10.21A4.85,4.85,0,0,1,71.61,185.56Z" transform="translate(-33.46 -89.18)"/><path d="M138,183.88c2.59-4.78,5.18-9.54,7.89-14.55a22.83,22.83,0,0,1,2.87,3.92,73.68,73.68,0,0,1,2.66,7.34.82.82,0,0,1-.28.74c-3.47,1.74-6.93,3.51-11,3.08a11.12,11.12,0,0,1-1.62-.35A2.58,2.58,0,0,1,138,183.88Z" transform="translate(-33.46 -89.18)"/><path d="M71,128.4c-1.12.83-1.28,2.27-2.72,2.26.38,1.39-.91,2-1.38,3.05a14.67,14.67,0,0,1-1.65,3.08c-.67.84-.3,2.38-1.77,2.8.87,1.19-.53,2-.67,3.17A7.1,7.1,0,0,1,59,138.6a44.06,44.06,0,0,1-1.68-6.26,1.39,1.39,0,0,1,.4-1.24c3.62-1.83,7.31-3.47,11.52-3.15A12.35,12.35,0,0,1,71,128.4Z" transform="translate(-33.46 -89.18)"/><path d="M130.17,121.72c-2.15-1.21-4.24-2.45-6.39-3.58-1.5-.79-3.08-1.41-4.62-2.14a5,5,0,0,1-.86-.65c-1.38.35-2.52-.55-3.92-1.08.91-.66,1.78-1.38,2.73-2a19.19,19.19,0,0,1,8.78-3,1.77,1.77,0,0,1,1.32.46,16.92,16.92,0,0,1,3.08,11.66A1.86,1.86,0,0,1,130.17,121.72Z" transform="translate(-33.46 -89.18)"/><path d="M110.13,113.36c-3.77,0-7.39,0-11,0a4,4,0,0,1-1.2-.43c-.22.66-.33.71-2.5.94a7.07,7.07,0,0,1,1-4.92,17.23,17.23,0,0,1,5.55-4.74,1.32,1.32,0,0,1,1.1,0c3.29,1.88,6,4.31,7,8.14a4.3,4.3,0,0,1,.13.7A.9.9,0,0,1,110.13,113.36Z" transform="translate(-33.46 -89.18)"/><path d="M151.44,130.3v-4.89c0-.27.06-.55,0-.82-.21-2.59-.71-3.09-3.57-3.49-.68-.1-1.38-.13-2.47-.22a15.64,15.64,0,0,1,2.37-2.15,18,18,0,0,1,8.46-2.48c.84,0,1.19.28,1.31,1.12.39,2.87-.73,5.37-1.88,7.85A14.62,14.62,0,0,1,151.44,130.3Zm3.82-6.73c-1.94-.38-2.18,0-1.56,2.52A3.85,3.85,0,0,0,155.26,123.57ZM148,119.42l.06.62a5.73,5.73,0,0,0,1.86-.07c.21-.08.15-.92.21-1.41l-.34-.21Z" transform="translate(-33.46 -89.18)"/><path d="M159.24,159.75c.93-1.81,1.83-3.64,2.81-5.43a1.44,1.44,0,0,0-.38-1.91c-1.16-1.12-2.36-2.2-3.55-3.3l.12-.41a7.85,7.85,0,0,1,1.58-.46,16.82,16.82,0,0,1,8.27,1.75,19.83,19.83,0,0,1,2.49,1.33,1,1,0,0,1,.22.92C167.9,156.26,164.22,159.11,159.24,159.75Zm5.92-3-.11-.54c-.5-.13-1.26-.53-1.44-.35a7.85,7.85,0,0,0-1.07,1.88l.35.31Zm-1.35-7.54h-3l2.12,1.91Z" transform="translate(-33.46 -89.18)"/><path d="M62.08,168.34c.4,1,.88,1.6.09,2.44a33.73,33.73,0,0,0-6.43,11c-1.3,3.34-1.34,3.46,2.08,4.32s6.74,1.88,10.29,1.16a12.31,12.31,0,0,0,3-.86c1-.51,1.62-.18,2.14.73a9.88,9.88,0,0,1-5.72,2,27.28,27.28,0,0,1-13.38-2.63,1.28,1.28,0,0,1-.84-1.69c1.13-4.95,2.86-9.64,6.12-13.63C60.18,170.19,61.11,169.34,62.08,168.34Z" transform="translate(-33.46 -89.18)"/><path d="M135.87,186.45c.47,2.39,1.08,4.76,1.37,7.17A29,29,0,0,1,136,204.53a1.57,1.57,0,0,1-1.66,1.32,19.92,19.92,0,0,1-14.64-4.43c-1.19-1-2.23-2.09-3.4-3.2,1.07-.75,1.69-.8,2.57.1a20.05,20.05,0,0,0,14.55,6c1.05,0,1.13-.69,1.28-1.34a30.4,30.4,0,0,0,.72-9.92,32.77,32.77,0,0,0-.92-4.88c-.25-.95.29-1.27.83-1.68Z" transform="translate(-33.46 -89.18)"/><path d="M83.12,209.07c-.23,3.35-6,8.28-10.5,8.9a27,27,0,0,1,2.52-13.74c.93,1.78,1.71,3.23,2.43,4.72.38.77.81,1.18,1.76.92C80.57,209.54,81.84,209.33,83.12,209.07Zm-7.86-2.38h-.63l-.76,2.85.32.3c.61-.27,1.72-.52,1.73-.82A7.18,7.18,0,0,0,75.26,206.69Zm4.07,6.6.48.15,1.83-1.8-.24-.51c-.65.11-1.49,0-1.9.38S79.37,212.67,79.33,213.29Z" transform="translate(-33.46 -89.18)"/><path d="M53.84,180.15c-.45,1.94-.81,3.43-1.15,4.93a1.32,1.32,0,0,0,.93,1.77c1.56.55,3.11,1.14,4.66,1.73.25.09.49.21.75.33-1.83,1.66-9.7,2.48-10.36,1.3-.85-.05-1.49-.05-2.12-.14-.34,0-.64-.31-1-.39-1.43-.38-1.44-.53-.78-1.8,1.33-2.53,3.53-4.25,5.55-6.12C51.18,181,52.49,180.75,53.84,180.15Zm-2,10.06A12.46,12.46,0,0,0,54,190c.57-.16,1.06-.67.39-1.19a7.63,7.63,0,0,0-1.91-.81c-.18.53-.37,1.05-.54,1.58A2.5,2.5,0,0,0,51.88,190.21Zm-2.55-6.58c1.72,1.47,2.07,1.36,2.43-.56a1.37,1.37,0,0,0,.07-.34,6.54,6.54,0,0,0-.13-.75,1.87,1.87,0,0,0-.74.18C50.42,182.6,49.92,183.09,49.33,183.63Z" transform="translate(-33.46 -89.18)"/><path d="M73.43,188.44l.49-.64A1.81,1.81,0,0,1,75,190.22a18.33,18.33,0,0,0,.47,8.82,22.54,22.54,0,0,0,3.66,8.36,14.88,14.88,0,0,0,6.36-2.22,15.44,15.44,0,0,0,6.31-6.1c.35-.66.48-.62,1.93.09a25.34,25.34,0,0,1-2,3.11c-3.17,3.59-6.89,6.27-11.81,7-1.09.15-1.69.1-2.15-1.1-1-2.58-2.39-5-3.26-7.61-1.3-3.92-1.21-8-1-12.13Z" transform="translate(-33.46 -89.18)"/><path d="M94.64,201.46l-.36-2.12a1.54,1.54,0,0,1,2,1.22,22.38,22.38,0,0,0,2.83,5.71,75,75,0,0,0,5.76,6.6c.23.26,1.1.37,1.27.18,2.24-2.54,4.49-5.09,6.57-7.77a8.61,8.61,0,0,0,1.52-5.53c0-1,.36-1.44,1.53-1.37a27.11,27.11,0,0,1,0,3.93c-.43,2.9-2.19,5.15-4,7.28-1.53,1.75-3.26,3.32-4.85,5-.75.81-1.44.51-2,0-1.6-1.41-3.22-2.81-4.71-4.33A28.4,28.4,0,0,1,95,202a5.35,5.35,0,0,0-.39-.58Z" transform="translate(-33.46 -89.18)"/><path d="M136.11,185.7c.51-.77.64-1.71,1.84-1.37,4.54,1.29,8.93.43,13.27-1,1-.33,1.91-.72,3-1.14-2-4.76-3.79-9.46-7.84-12.78-.75-.62-.59-1.16-.14-2.16a47.32,47.32,0,0,1,3.57,3.25,28.2,28.2,0,0,1,5.7,10.72c.57,1.8.55,1.83-1.18,2.68a27.23,27.23,0,0,1-16.43,2.35A16.51,16.51,0,0,1,136.11,185.7Z" transform="translate(-33.46 -89.18)"/><path d="M137.4,201.58a6.6,6.6,0,0,1,2.87,3.28c1.42,2.72,1.36,5.65,1,8.59-.08.55-.29.86-1,.64-3.89-1.23-6.6-3.92-8.91-7.13-.06-.08,0-.22-.07-.42,1.31-.08,2.59-.18,3.88-.23a1.09,1.09,0,0,0,1.21-1C136.65,204.08,137,202.89,137.4,201.58Zm-3,8.74.47-.34a2.43,2.43,0,0,0,.28-.76,10.81,10.81,0,0,0-.16-1.38l-1.69.25c.21.42.41.85.62,1.27Zm5.95-4.18-1.48-2.63C137.88,205.64,138,205.82,140.35,206.14Z" transform="translate(-33.46 -89.18)"/><path d="M106,225.07c-2.63-2.43-4.32-8.08-3.38-11.41.79.56,1.56,1.08,2.31,1.62a1.48,1.48,0,0,0,2,0c1-.87,2-1.73,3.06-2.59C112.47,216.26,109.65,221.56,106,225.07Zm4.2-10.21-.47-.21c-.48.56-1.32,1.1-1.36,1.69s.74,1.2,1.15,1.81l.34-.13Zm-7.06,2.93.31.14,1.19-1.45-1.69-1.14Z" transform="translate(-33.46 -89.18)"/><path d="M146.62,141.46l-1.19.92c-.74-.79-.6-1.44,0-2.32,3.33-4.69,4.24-10.07,4.25-15.68a1,1,0,0,0-1-1.1,26.9,26.9,0,0,0-14,1.29,2,2,0,0,1-2.65-.79l1.75-.69c4.45-1.82,9.12-1.84,13.79-1.62a7.3,7.3,0,0,1,2.72.8,1.78,1.78,0,0,1,.68,1.32c.35,6.21-.45,12.16-4.21,17.39a3.08,3.08,0,0,0-.24.52Z" transform="translate(-33.46 -89.18)"/><path d="M114.19,111.46a17.55,17.55,0,0,0,2.22-1.32,25.17,25.17,0,0,1,11.45-4.85,1.9,1.9,0,0,1,1.57.59,16.87,16.87,0,0,1,3.14,9.19c0,2.43-.33,4.86-.53,7.3a2.89,2.89,0,0,1-.35.85,1.32,1.32,0,0,1-.95-1.69,22.89,22.89,0,0,0-.21-9.07,26.6,26.6,0,0,0-2-4.95c-.15-.3-1-.47-1.5-.38a26.75,26.75,0,0,0-10.5,4.78,22.11,22.11,0,0,0-2.29,2,1,1,0,0,1-1.65,0c.52-.82,1.07-1.66,1.61-2.5Z" transform="translate(-33.46 -89.18)"/><path d="M61.67,165.72l.3,1.87a22.94,22.94,0,0,1-8.65-3.17,22.45,22.45,0,0,1-7.26-7.84,1.3,1.3,0,0,1,.09-1.2c3.22-3.63,6.63-7,11.36-8.69a9.27,9.27,0,0,1,4.64-.88c.1,1.08-.2,1.56-1.35,1.73a15.32,15.32,0,0,0-8.58,3.65c-1.32,1.24-2.75,2.37-4.13,3.56a1.43,1.43,0,0,0-.27,2.29,20.67,20.67,0,0,0,12.23,8.44c.27.06.54.14.81.19S61.33,165.7,61.67,165.72Z" transform="translate(-33.46 -89.18)"/><path d="M48.3,152.14c-.88.94-1.73,1.92-2.67,2.82a1.28,1.28,0,0,0-.18,1.95c.85,1.18,1.62,2.42,2.62,3.94a28.75,28.75,0,0,1-4.25-.7,25,25,0,0,1-4.42-2,3.09,3.09,0,0,1-1.1-1.61l-1.44-.87c3-4.06,7.15-4,11.32-3.86Zm-3.38-.26-1.69.89c.41.44.89,1.27,1.22,1.21.53-.08,1-.76,1.44-1.19Zm-.74,5.56-1.24,1.69a18,18,0,0,0,2,.78c.14,0,.65-.52.61-.58C45.16,158.75,44.74,158.21,44.18,157.44Z" transform="translate(-33.46 -89.18)"/><path d="M109.1,105.56l2.37,3.9c.26,1.44.52,2.91.79,4.42-1.09.22-1.44,0-1.65-1a16,16,0,0,0-4.22-8.23c-1.26-1.25-2.61-2.41-4.06-3.75-3.69,3.8-8,7.06-7.47,13.18l-1.28.25a12.2,12.2,0,0,1,1.35-7.09c1.53-3,4-5.28,6.46-7.51a1.19,1.19,0,0,1,1.93.08C105.23,101.74,107.17,103.64,109.1,105.56Z" transform="translate(-33.46 -89.18)"/><path d="M164.1,188.1a16.4,16.4,0,0,1-12-2.62c1.28-.63,2.39-1.2,3.52-1.73a1,1,0,0,0,.67-1.41c-.28-.94-.47-1.9-.7-2.86C158.82,179.33,163.16,184.54,164.1,188.1Zm-9.5-2.32,0,.39,2,.83.27-.32c-.24-.51-.37-1.31-.75-1.45S155.13,185.57,154.6,185.78Zm3-5.17c.27,1.78.69,2,1.88,1.13Z" transform="translate(-33.46 -89.18)"/><path d="M72.43,126.56a1.68,1.68,0,0,1-2.38,1,10.59,10.59,0,0,0-5.64,0c-3.15.61-6.27,1.35-9.41,2-.61.13-.73.38-.66,1A16.93,16.93,0,0,0,61.87,143c.89.63.9.62.53,1.94a18.33,18.33,0,0,1-6.77-6.46,22.37,22.37,0,0,1-2.74-8.54.93.93,0,0,1,.77-1.21c5.07-1.22,10-3.07,15.36-2.83a18.76,18.76,0,0,1,2.46.38C71.78,126.32,72.07,126.45,72.43,126.56Z" transform="translate(-33.46 -89.18)"/><path d="M86.88,108.77l.31.16c1.57,1.37,3.16,2.72,4.72,4.11a10.23,10.23,0,0,1,1,1.36c-.79.28-1.38.75-1.93-.05-2.28-3.3-5.8-4.66-9.36-5.93a20.86,20.86,0,0,0-3.57-.86,1.35,1.35,0,0,0-1.15.5c-1.84,4.09-3.6,8.22-3.64,12.81a8.58,8.58,0,0,0,.49,3,1.11,1.11,0,0,1-.64,1.64,14.77,14.77,0,0,1-.8-9,28.33,28.33,0,0,1,3.83-9.78,1.07,1.07,0,0,1,1.44-.55C80.7,107.1,83.79,107.92,86.88,108.77Z" transform="translate(-33.46 -89.18)"/><path d="M105.68,101.18c-1.23-1-2.13-2.21-3.16-2.33-.88-.1-1.9,1.1-3,1.78-1.06-3.7.06-7,1.74-10.48,1.45.87,2.71,1.68,2.94,3.49,0,.25.72.37.83.66a12,12,0,0,1,1.08,3.33A16.45,16.45,0,0,1,105.68,101.18Zm-.18-4.57-.42,0c-1.48,1.2-1.48,1.3.29,2.65Zm-5.75,2.63c1.2-.91,1.1-1.42-.39-2.14Z" transform="translate(-33.46 -89.18)"/><path d="M72.14,102.67h1.18a3,3,0,0,1-.77-3.93c.46-.6,2.27-.14,3.46.86l-.27,1.45.26,0,.46-1.08A10.92,10.92,0,0,1,81,106.24c-1.11-.22-2.14-.38-3.15-.64a1.63,1.63,0,0,0-2.16.88c-.56,1.13-1.2,2.21-1.83,3.37C72.26,107.66,72.61,105.17,72.14,102.67Zm6.3-.39-.57.16c0,.69-.24,1.54.07,2s1.19.42,1.82.61l.23-.45Zm-5.22,2.5c-.24.58-.52.93-.45,1.16a14,14,0,0,0,.84,1.8c.36-.52,1-1,1-1.56C74.64,105.81,73.86,105.39,73.22,104.78Z" transform="translate(-33.46 -89.18)"/><path d="M125.93,105.27c-.11-3.53,2.81-7.4,6.44-8.51a17.91,17.91,0,0,1-1,11.34c-.52-.87-1-1.54-1.34-2.24a1.72,1.72,0,0,0-2.25-.92A12.88,12.88,0,0,1,125.93,105.27Zm5.35.18.33,0,.26-1.65-.27-.14-1,.73Z" transform="translate(-33.46 -89.18)"/><path d="M145.68,166.3l-6.59-6.39,7.76-5.07C147.44,158.77,146.45,162.54,145.68,166.3Zm-.56-3,.32-.08.24-1.77-1.55.73Zm.85-3.92.1-1.91-1.47,1Z" transform="translate(-33.46 -89.18)"/><path d="M82.62,119.54v8.58l-9-1.48C76.06,123.22,79.47,121.49,82.62,119.54Zm-6.57,5.55.08.31,1.75.16-.27-1.9Zm4.76-1.86v-1.91l-1.76,1.31Z" transform="translate(-33.46 -89.18)"/><path d="M130.3,132.83l1.67-8.27a37.14,37.14,0,0,1,7.1,7.48Z" transform="translate(-33.46 -89.18)"/><path d="M144.68,142.64l-8.31-2.18c1-2.34,2.06-4.9,3.23-7.68A44.61,44.61,0,0,1,144.68,142.64Z" transform="translate(-33.46 -89.18)"/><path d="M54.6,125.49l2.89,1.34c-1.55.47-2.76.87-4,1.19a1.51,1.51,0,0,0-1.24,2.11c.18.68.27,1.38.44,2.28l-1.37-.68.29-.13-.52-2-1.86.76-.95-1.9-.59.5.35-.7c-.46-.19-1-.25-1.2-.53s-.18-.74-.3-1.38c.06,0-.24,0-.32-.19-.18-.35-.42-.81-.32-1.11.24-.66,3-.56,3.35.07.6-.7.6-.7,1.77.92l-.28-1.56,3.9,1.1-2.39-.39a7.2,7.2,0,0,0,.49,1.43c.6.86,1.21,0,1.77-.1C55.28,126.3,54.79,125.84,54.6,125.49Z" transform="translate(-33.46 -89.18)"/><path d="M74.5,187.47l8.82-1.88v8.51A42.11,42.11,0,0,1,74.5,187.47Zm5.3,3.58,2.11,1.16L81.55,190Zm-1.16-.93v-1.86l-2.1.51Z" transform="translate(-33.46 -89.18)"/><path d="M127,192.9l-10.68,4.63-.2-.31c1.26-2.66,2.81-5.25,2.22-8.51Zm-5.08,1.26.3.24,1.93-1.18c-.79-.23-1.41-.58-1.6-.42C122.2,193.09,122.11,193.69,121.92,194.16Zm-2.89-.24-.7,2,2.15-1.21Z" transform="translate(-33.46 -89.18)"/><path d="M122.59,126.46v-8.28c3,1.45,6,2.86,8.38,5.65A17.21,17.21,0,0,0,122.59,126.46Z" transform="translate(-33.46 -89.18)"/><path d="M89.64,124l-6-5.14a37.4,37.4,0,0,1,9-3.62Zm.34-5.71.51-1.84-1.83.92Z" transform="translate(-33.46 -89.18)"/><path d="M111.67,114.7l-5.26,6.07-4.8-7.16,10,.73Zm-5.77.18-.11-.37-1.82.1.85,1.16Z" transform="translate(-33.46 -89.18)"/><path d="M135.81,184.91l-1.95-7.64,7.45-.78C140,179.78,137.76,182.38,135.81,184.91Z" transform="translate(-33.46 -89.18)"/><path d="M147,153.65l-7.16-3.06c1.8-2.11,3.56-4.19,5.48-6.46C145.88,147.19,146.43,150.29,147,153.65Z" transform="translate(-33.46 -89.18)"/><path d="M72.75,127.43c.42,2.86.84,5.68,1.25,8.5H66.63A33.21,33.21,0,0,1,72.75,127.43Zm-1.18,2.37-.46-.06-.71,1.59,1.58.38Zm-3.21,4.54.22.28c.35-.1.93-.13,1-.33a3,3,0,0,0-.15-1.22l-.33,0Z" transform="translate(-33.46 -89.18)"/><path d="M127.47,192.14l-.82-6.89,8,.92A26.85,26.85,0,0,1,127.47,192.14Z" transform="translate(-33.46 -89.18)"/><path d="M94.94,198.78l5.51-6.48c1.16,2.18,2.41,4.54,3.86,7.3Zm7.36-.26L101.22,197l-.85,1.61Zm-4.63-.22,1.91-.14-1.08-1.48Z" transform="translate(-33.46 -89.18)"/><path d="M70.88,142.81l-7.61,2.37c-.09-3,1.82-5.51,2.74-8.52Zm-6.14-1.53-.5,1.94.27.22,1.46-.81Z" transform="translate(-33.46 -89.18)"/><path d="M68.48,152.36l-7.23,3.35,1.24-8.61Z" transform="translate(-33.46 -89.18)"/><path d="M61.15,156.84l7,3.93c-2.45,1.19-4.09,3.16-5.78,5.37Z" transform="translate(-33.46 -89.18)"/><path d="M121.68,117.82,116.3,122q-1.64-3.4-3.4-7.06A31,31,0,0,1,121.68,117.82Z" transform="translate(-33.46 -89.18)"/><path d="M62.8,168.64l8,2.51-4,6.52Zm1.49,2.12-.16.23,1,1.64.72-1.38Zm1.56,3.3-.24.33,1.11,1.45c.13-.72.35-1.22.21-1.37S66.22,174.19,65.85,174.06Z" transform="translate(-33.46 -89.18)"/><path d="M75.23,178.2l-2.48,7.52L67.59,179Z" transform="translate(-33.46 -89.18)"/><path d="M92.74,198.25l-8.46-3.33c2.15-1.69,4-3.16,5.72-4.46ZM87.38,194l-1.1.87.19.36,1.53.42Zm1.56,2.32,1.85.48L90,195.17Z" transform="translate(-33.46 -89.18)"/><path d="M93.39,114.94l7.64-1.25-2.3,6.55Z" transform="translate(-33.46 -89.18)"/><path d="M108.22,193.71l6.17,4.51-9.06,1.37Zm3.3,4.46,0-.36-1.4-.67-.37,1.28Z" transform="translate(-33.46 -89.18)"/><path d="M145.34,168.22l-3.5,7.51-3-5.11Z" transform="translate(-33.46 -89.18)"/><path d="M77.1,202c.72.88,1.47,1.74,2.14,2.65a1.81,1.81,0,0,0,2,.73c.78-.15,1.57-.25,2.33-.46s1.47-.51,2.2-.77l.13.31c-1.49.6-2.94,1.3-4.47,1.77-2.06.63-2.11.57-3.18-1.32-.51-.91-.89-1.89-1.33-2.84Z" transform="translate(-33.46 -89.18)"/><path d="M155.94,158.52c2.89-5.12,2.17-4.36-.86-8.61a6.64,6.64,0,0,1,1,.53,8.64,8.64,0,0,1,1.28,1.21,7.91,7.91,0,0,1,1.77,2.64C159.33,155.24,157,158,155.94,158.52Z" transform="translate(-33.46 -89.18)"/><path d="M127.43,202.73c1.54,0,3.18.06,4.82,0a1.51,1.51,0,0,0,1-.86c.58-1.54,1-3.12,1.55-4.69l.28.05c-.37,2-.74,4-1.14,5.95a.67.67,0,0,1-.5.39A13.58,13.58,0,0,1,127.43,202.73Z" transform="translate(-33.46 -89.18)"/><path d="M57.51,137.66c-.65-1.75-1.33-3.5-1.93-5.27-.5-1.45-.06-2,1.44-2.31.95-.2,1.85-.6,2.83-.79a20.84,20.84,0,0,1-2.15,1.11,1.43,1.43,0,0,0-1,1.77c.23,1.36.51,2.7.78,4.05.09.46.24.9.37,1.35Z" transform="translate(-33.46 -89.18)"/><path d="M109.32,208.9l-3.62,3.85-.63.29-4.25-4.54.38-.41c1,.74,2,1.49,2.94,2.21,1.37,1,1.91,1,3.25-.11.6-.48,1.2-1,1.8-1.47Z" transform="translate(-33.46 -89.18)"/><path d="M129.82,112.72c-.69-1.08-1.4-2.16-2.07-3.27a1.81,1.81,0,0,0-2.16-.77l-3.12.61-.09-.33,5.58-1.57,2.17,5.31Z" transform="translate(-33.46 -89.18)"/><path d="M106.63,105.87c-1.09-.73-2.17-1.49-3.28-2.2a1.64,1.64,0,0,0-2.07.22A39.29,39.29,0,0,1,98,106.26l4.58-4.24c.53.44,1.35,1,2.11,1.73s1.36,1.37,2,2.06Z" transform="translate(-33.46 -89.18)"/><path d="M147.66,183.75c1.21-.57,2.4-1.17,3.62-1.71.87-.38,1.14-.84.73-1.82-.58-1.36-.94-2.8-1.4-4.21l.3-.12c.88,2,1.76,4,2.7,6.09l-5.9,1.9Z" transform="translate(-33.46 -89.18)"/><path d="M143.82,123.2c1.58.2,3.17.38,4.75.63a.88.88,0,0,1,.57.63c0,1.55-.06,3.11-.11,4.77-.42-1.61-.41-3.4-1.29-4.4s-2.59-1-3.94-1.42Z" transform="translate(-33.46 -89.18)"/><path d="M75.15,113.46c.71-1.57,1.41-3.14,2.16-4.69.12-.23.51-.51.71-.47a40.14,40.14,0,0,1,5.87,1.51c-1.55-.25-3.09-.57-4.64-.71a1.89,1.89,0,0,0-1.46.64c-.91,1.2-1.68,2.52-2.5,3.79Z" transform="translate(-33.46 -89.18)"/><path d="M57.16,181c-1.31,3,.34,4.13,2.83,4.8l-.31.44c-1.25-.5-2.51-1-3.74-1.53a.66.66,0,0,1-.23-.61c.31-1,.67-2,1-3Z" transform="translate(-33.46 -89.18)"/><path d="M53.82,146.25v0l.56,1.12L50.58,150l-.23-.19c.42-.43.85-.84,1.24-1.3a5,5,0,0,0,.44-.83l0,0c.31-.17.92-.39.9-.51C52.77,146.37,53.39,146.43,53.82,146.25Z" transform="translate(-33.46 -89.18)"/><path d="M138.86,201.23l3.46,1.39-.08.23-1.84-.63,1.39,2.89h-.08Z" transform="translate(-33.46 -89.18)"/><path d="M156.29,188.67l-3.21-1c.28,1,.54,1.95.8,2.89l-.12,0-1.54-3.77,4.16,1.57Z" transform="translate(-33.46 -89.18)"/><path class="cls-1" d="M50.11,163.13c1,1.37.79,1.83-1.19,2.44-.11-.83,1.07-1.39.49-2.32Z" transform="translate(-33.46 -89.18)"/><path d="M49.41,163.25c.58.93-.6,1.49-.49,2.32l0,0c-.43-.84-.84-.82-1.22.19v-1.41l0,0Z" transform="translate(-33.46 -89.18)"/><path d="M156.15,178.17l2.27-.51.06.2-1.13.43,2.5,1.61-.18.26Z" transform="translate(-33.46 -89.18)"/><path class="cls-1" d="M60.16,145.27a.26.26,0,0,1-.12,0l-1.2-.56,1.29-.59C60.61,144.5,61,144.87,60.16,145.27Z" transform="translate(-33.46 -89.18)"/><path d="M101.49,217.83c-.11-1.33-1-2.62-.35-4l.35,0Z" transform="translate(-33.46 -89.18)"/><path d="M159.44,160.43l3.21,2.21-.14.22-3.28-2Z" transform="translate(-33.46 -89.18)"/><path d="M156.32,130.71l-3.15-.47.11-.43a5.26,5.26,0,0,0,.53.15c.46.08.93.14,1.39.23s.79.17,1.18.25Z" transform="translate(-33.46 -89.18)"/><path d="M84.86,209.65v3.86l-.15,0a18.43,18.43,0,0,0-.25-2.79C84.3,210,84.18,210.06,84.86,209.65Z" transform="translate(-33.46 -89.18)"/><path d="M112,216.48c-.17-1.23-.35-2.46-.53-3.69l.37,0A14.59,14.59,0,0,1,112,216.48Z" transform="translate(-33.46 -89.18)"/><path d="M98.29,100.49l-1.23-1.34.09-.16.79.49V97.21h.18Z" transform="translate(-33.46 -89.18)"/><path class="cls-1" d="M93.74,144.44l.63.83,1.54-1-.55-2.12.29-.21c.42.45.77,1.14,1.27,1.3a3.43,3.43,0,0,0,1.76-.38,3.52,3.52,0,0,0,1.43-.88l1.83.14.45-2.57.37-.06a5,5,0,0,1,.66,1.41c.12.93.74,1,1.37.86.32,0,.6-.38,1-.63.09.72.49,1.16,1.21.5l1.7.9,2-1.74.3.15a5.55,5.55,0,0,1,0,1.47,1.14,1.14,0,0,0,.74,1.6c1.81.67,2.65,2.46,4.11,3.47l2.11-.64.2.27-1.36,1.91c.66,1.73,2.09,3.25,1.85,5.32l2.65.86.07.33a13,13,0,0,0-2.12,1,2.29,2.29,0,0,0-.64,1.32c-.06.25.25.58.41.92-.74.28-1,.79-.44,1.36l-1.26,2,1.77,1.67-.1.33a7.12,7.12,0,0,1-1.6,0,1.23,1.23,0,0,0-1.48.61,24,24,0,0,1-2.09,2.51c-.58.6-1,1.12-.62,2a7.44,7.44,0,0,1,.2,1.91,6.73,6.73,0,0,1-1.6-1c-.93-1.14-1.79-.5-2.68,0-.15.09-.31.38-.38.35-1.1-.44-1.16.31-1.19,1.39-.4-1.93-1.44-.53-2.09-.89l-.94,2.55h-.36c-.22-.57-.43-1.13-.66-1.69-.12-.28-.24-.74-.43-.77-1-.19-2-.27-3-.37-.13,0-.33.11-.42,0-1.71-1.13-1.7-1.13-3.26.18a3.46,3.46,0,0,1-.57.29,4.32,4.32,0,0,1,0-1.46c.33-.8,0-1.16-.61-1.63-1.16-.91-2.21-1.95-3.4-3l-2.14.48-.2-.3a10.45,10.45,0,0,0,1-1.5c.19-.4.37-1,.19-1.33a8.07,8.07,0,0,1-1-3.74c-.07-.68-.27-1.27-1.13-1.42a3.53,3.53,0,0,1-1.3-.87c2.66-.22,2.05-2.37,2.58-3.82a16,16,0,0,1,.52-1.61c.39-.76.61-1.39-.2-2.06-.34-.27-.48-.78-.93-1.55.87.12,1.41.23,1.95.27.35,0,.83.07,1-.12a10.54,10.54,0,0,0,1.66-1.87C94,145.51,93.79,145.05,93.74,144.44Zm3.58,5.31c-1.21-.28-2.23-.56-3.27-.74-.74-.12-1.55-.49-2.17.37s.24,1.37.47,2a6,6,0,0,0,.87,1.27c.34.45.7.89,1,1.25-1.34.56-2.59,1-3.77,1.59a1.17,1.17,0,0,0-.11,1.9,4.9,4.9,0,0,0,1.5.7c.77.23,1.57.36,2.47.56-.84,1-1.61,1.83-2.28,2.73a1.46,1.46,0,0,0-.17,1.85,1.55,1.55,0,0,0,1.81.72c1.19-.18,2.37-.41,3.53-.62-.28,1.41-.59,2.75-.79,4.11-.16,1.12.46,1.64,1.47,1.15,1.35-.67,2.61-1.52,4-2.34l.32.86c.33.89.61,1.8,1,2.66a1.11,1.11,0,0,0,2.08.09,21.27,21.27,0,0,0,1.09-3c.12-.35.18-.72.33-1.32,1.22.88,2.28,1.61,3.31,2.4.54.41,1.13.78,1.65.18a1.9,1.9,0,0,0,.3-1.41c-.23-1.27-.58-2.51-.9-3.82,1.49.19,2.82.31,4.13.54a1.08,1.08,0,0,0,1.32-.87,1.54,1.54,0,0,0-.28-1.23c-.81-1-1.72-1.82-2.66-2.8l3.13-1.08c.82-.26,1.33-.63,1.3-1.67s-.75-1.22-1.45-1.42c-1.15-.34-2.32-.6-3.1-.79.79-1,1.69-2,2.47-3a1.79,1.79,0,0,0,.11-1.37,1.07,1.07,0,0,0-1.34-.84c-1.5.28-3,.46-4.67.7,0-.39,0-.77,0-1.14.09-1,.27-2,.3-3.05,0-1.3-.65-1.69-1.71-1s-2,1.55-3,2.37c-.38-.92-.68-1.81-1.12-2.64q-1.14-2.2-2.31-.05a11.33,11.33,0,0,0-.73,2.1c-.12.39-.19.8-.3,1.31a29.09,29.09,0,0,0-2.39-2,6.58,6.58,0,0,0-1.69-.56,8.14,8.14,0,0,0-.32,1.51,13.55,13.55,0,0,0,.2,2C97.06,148.54,97.19,149.09,97.32,149.75Zm17.48-2,.16-.36-3.78-3-.3.21v3.72Zm-18.75-2.89-3.42,3.23,3.91.78C96.38,147.63,96.24,146.42,96.05,144.88Zm9.78,25.55L110.2,169l-3.14-2.35Zm-7.88-1,4.86,1.14-1.26-3.32Zm-5.52-4.69,3.2,3.17.75-3.83Zm23.25-.6-3.8-.45,1,3.69Zm-25.61-9.38,3.26-1.08-2.22-3Zm27.13,6.73.83-3.91-3.36,1.26Zm-2.79-8.31,3.6,1.05-1.12-3.31Zm-8.5-7.8,2.44-2.15-.13-.32-3.62-.49ZM90.15,158.11l.9,3.61,2-2.69Zm10.44-12.49,1.36-3-3.75,1.09Z" transform="translate(-33.46 -89.18)"/><path class="cls-1" d="M125.21,179l3.12.32-.16-2.23.44-.08,1.73,3.66C128.92,181.27,125.5,180.25,125.21,179Z" transform="translate(-33.46 -89.18)"/><path class="cls-1" d="M112.7,189.36c.27-.68.45-1.1.61-1.53s.32-.87.47-1.31l.43.08-.57,4.77-.46.16a27.65,27.65,0,0,1-2.34-2.38c-.22-.28,0-.92,0-1.4a8.66,8.66,0,0,1,1,.61A9.74,9.74,0,0,1,112.7,189.36Z" transform="translate(-33.46 -89.18)"/><path class="cls-1" d="M104.78,185.42c-1.57-2.59-1.48-3.43.48-4.95C106.54,182.53,106.38,184.38,104.78,185.42Z" transform="translate(-33.46 -89.18)"/><path class="cls-1" d="M85.34,153.93c-2.25-.25-3.92-1.54-5.68-3.09a11.73,11.73,0,0,1,6.64-1.46l-5.15,1.4-.1.48Z" transform="translate(-33.46 -89.18)"/><path class="cls-1" d="M120.58,184l-.84-5.93.22-.08a3.47,3.47,0,0,1,.4.88c.24,1.71.48,3.43.66,5.15.08.66-.34,1.05-1,.73-1.5-.78-2.94-1.66-4.4-2.52-.06,0,0-.21-.07-.52l4.53,2.49Z" transform="translate(-33.46 -89.18)"/><path class="cls-1" d="M92.44,172.22a10.43,10.43,0,0,1-1.41.89c-1.23.53-2.48,1-3.75,1.48-.69.24-1.08-.11-.8-.78.74-1.76,1.57-3.48,2.37-5.22l.44.19-2.08,4.72c2.09.2,3.48-1,5-1.64Z" transform="translate(-33.46 -89.18)"/><path class="cls-1" d="M81,163.12l5.7.35c-1.28.89-5.49.59-6.69-.48a9.69,9.69,0,0,1,5.13-3.89l-4.28,3.53Z" transform="translate(-33.46 -89.18)"/><path class="cls-1" d="M76.13,184c2.82.14,4.94-1,7.18-2.23-.62,1.48-5.2,3.05-7.83,2.71l2.6-6.68.46.16Z" transform="translate(-33.46 -89.18)"/><path class="cls-1" d="M116.49,170.82l4.85,2,.37-.28-2.57-5c1.37.52,3.09,4,2.82,5.91a11.39,11.39,0,0,1-5.63-2.38Z" transform="translate(-33.46 -89.18)"/><path class="cls-1" d="M72.47,145.63l-5.06,1.26-.14.44,4.19,4c-.48,0-.78,0-.91-.1q-1.83-1.69-3.6-3.44c-.43-.42-.43-.89.13-1.16a12.24,12.24,0,0,1,5.33-1.29Z" transform="translate(-33.46 -89.18)"/><path class="cls-1" d="M88.92,144.31a12.69,12.69,0,0,1-3.26-5.54,21.74,21.74,0,0,1,6.27,2l-.11.38-5.06-1.66-.23.27,2.67,4.41Z" transform="translate(-33.46 -89.18)"/><path class="cls-1" d="M107.56,177.61l-.69-2.08.13-.1,3.21,4.12.52-.15v-5.67l.48,0a11,11,0,0,1-.51,6.76Z" transform="translate(-33.46 -89.18)"/><path class="cls-1" d="M136.68,154.84,131,151.55c.08,0,.24-.14.33-.09,1.83,1,3.67,2,5.47,3a1,1,0,0,1,.26,1,8.62,8.62,0,0,1-4.9,3l4.57-3Z" transform="translate(-33.46 -89.18)"/><path class="cls-1" d="M81.54,141.38l-4.68.24,2.33,4.15L79,146c-.19-.11-.48-.17-.57-.33-.72-1.23-1.43-2.47-2.08-3.74-.09-.19.13-.8.27-.82,1.38-.2,2.77-.36,4.16-.45.27,0,.56.32.84.5Z" transform="translate(-33.46 -89.18)"/><path class="cls-1" d="M98,173.94l.27,5.62c1.69-1.39,2.25-3.24,3.36-4.7a9.16,9.16,0,0,1-3.85,5.56V174Z" transform="translate(-33.46 -89.18)"/><path class="cls-1" d="M118.57,138.05l-4.13,3.16c0-1.21,2.73-3.36,5-3.81a10.86,10.86,0,0,1-1.68,6.35l1.16-5.39Z" transform="translate(-33.46 -89.18)"/><path class="cls-1" d="M127.3,148.21c-1.33,1.76-2.58,3.41-4.69,4.14l3.79-3.6-.15-.29h-5.07C122.08,147.61,125.6,147.4,127.3,148.21Z" transform="translate(-33.46 -89.18)"/><path class="cls-1" d="M76.48,172.64h5.75c-1,.9-4.12,1-6.13.34.32-2.06,1.72-3.48,2.78-5.09l.39.21Z" transform="translate(-33.46 -89.18)"/><path class="cls-1" d="M116.1,187a13.16,13.16,0,0,1-.63,7.22c-.49,1.3-.86,1.48-2,.67-1.4-1-2.67-2.21-4-3.33l.23-.29,4.78,3.9a12.06,12.06,0,0,0,1.35-7.12,3.14,3.14,0,0,1,.31-1Z" transform="translate(-33.46 -89.18)"/><path class="cls-1" d="M96.63,132.22l3.18,3.48.42,1.84-3.3-4.1-.39.1L95.9,138A8.06,8.06,0,0,1,96.63,132.22Z" transform="translate(-33.46 -89.18)"/><path class="cls-1" d="M83.33,180.05c-.71.34-1.41.69-2.13,1s-1.43.54-2.28.86l1.5-4.66h.34v3.17l2.43-.69Z" transform="translate(-33.46 -89.18)"/><path class="cls-1" d="M108.87,138c-.15-2.07.34-4-1-6L105,136.66c-.27-1.34,1.36-4.09,3.18-5.2C109.39,132.71,109.87,136.33,108.87,138Z" transform="translate(-33.46 -89.18)"/><path class="cls-1" d="M122.8,128.69c1.9-.73,3.79-1.47,5.69-2.15.14,0,.65.41.62.56-.43,2.1-.93,4.18-1.41,6.26l-.41-.09,1.38-5.87c-2.32-.23-3.87,1.28-5.71,1.79Z" transform="translate(-33.46 -89.18)"/><path class="cls-1" d="M73.06,163l-1.43,2.16,2.83,1.05-.1.39L69.74,166l-.13-.34,3.06-2.91Z" transform="translate(-33.46 -89.18)"/><path class="cls-1" d="M89.17,179v5l.4.3,4.89-3c0,.19,0,.44-.15.51-1.41.94-2.81,1.89-4.27,2.75-.65.39-1.21.22-1.36-.68a11.49,11.49,0,0,1,0-4.85Z" transform="translate(-33.46 -89.18)"/><path class="cls-1" d="M128.07,161.92l-5.95,1.48-.13-.49,5.33-1.37c-1.17-1.6-2.84-2.15-4.19-3.14a9.17,9.17,0,0,1,5,3Z" transform="translate(-33.46 -89.18)"/><path class="cls-1" d="M133.81,165.52c.71-.51,1.64-.86,1.92-1.49.2-.44-.49-1.28-.62-2.06l2.62,2.92C135.81,166.24,134.9,166.38,133.81,165.52Z" transform="translate(-33.46 -89.18)"/><path class="cls-1" d="M70.62,162.21l-4.52,4,.06.4,6.36,1.71c-.31.1-.52.26-.68.21-1.8-.45-3.6-.91-5.38-1.4-.91-.25-1.1-.75-.37-1.42,1.41-1.28,2.83-2.54,4.25-3.81Z" transform="translate(-33.46 -89.18)"/><path class="cls-1" d="M112.82,126.19c-.26-.16-.66-.27-.76-.5-.37-.86-.64-1.76-1-2.67l-2.23,1.61-.19-.29,2.72-2.47c.43,1.32,2,2.45,1.37,4.36Z" transform="translate(-33.46 -89.18)"/><path class="cls-1" d="M132.51,171.68l-3.2-5c1.08.25,2.81,2.76,3.85,5.75h-5.47l0-.15,4.63-.26Z" transform="translate(-33.46 -89.18)"/><path class="cls-1" d="M101.85,184.26l2.72,4.77H105l2.81-4.86c.09,1.17-1.72,4.42-3.07,5.47A9.49,9.49,0,0,1,101.85,184.26Z" transform="translate(-33.46 -89.18)"/><path class="cls-1" d="M137.14,145.5c-1,2-2.18,3-3.12,2.52l1.44-2-1.85-1.36.24-.43Z" transform="translate(-33.46 -89.18)"/><path class="cls-1" d="M127.69,155.37c2-1.8,2.48-1.84,3.95-.37C130.42,156.58,129.52,156.68,127.69,155.37Z" transform="translate(-33.46 -89.18)"/><path class="cls-1" d="M97.94,187.47l-2.69,2.78c0-1.06-1.48-2.34.26-3.82l.54,1.91,2.08-.79Z" transform="translate(-33.46 -89.18)"/><path class="cls-1" d="M107.48,123.39q1.78-2.44,3.58-4.88c.38-.51.8-.53,1.1.06q1.14,2.28,2.22,4.59c.08.18,0,.45-.11.9-.9-1.94-1.68-3.64-2.55-5.5-1,1.28-1.87,2.44-2.81,3.54a12.58,12.58,0,0,1-1.46,1.26Z" transform="translate(-33.46 -89.18)"/><path class="cls-1" d="M76.4,135.85c-.2-1.71-.42-3.43-.58-5.14,0-.16.35-.52.53-.51,2,.12,4,.29,6,.45,0,0,.05.13.1.27-1.55-.12-3.07-.3-4.59-.35s-1.7.15-1.49,1.72c.15,1.16.38,2.3.58,3.45Z" transform="translate(-33.46 -89.18)"/><path class="cls-1" d="M99.08,189.42l-4.46,6.36-.58-.1L92.58,189l.36-.09,1.3,6.08.44.08,4-5.91Z" transform="translate(-33.46 -89.18)"/><path class="cls-1" d="M72.59,156.68l3.33,2.8-.29.38A31.43,31.43,0,0,1,73,157.8c-1.13-1.07-1.1-1.29.24-2.17,1.16-.76,2.4-1.4,3.6-2.09l.25.41Z" transform="translate(-33.46 -89.18)"/><path class="cls-1" d="M124.8,138.45a12.84,12.84,0,0,1,7.08-.37l-1.8,5.39-.42-.12,1.58-4.78C128.91,137.76,126.85,138.52,124.8,138.45Z" transform="translate(-33.46 -89.18)"/><path class="cls-1" d="M135,143.13a11.72,11.72,0,0,1,6.17,1.1.9.9,0,0,1,.21.83c-1.23,1.45-2.51,2.86-3.78,4.29l-.28-.25,3.81-4.32C139.12,143.63,137,143.5,135,143.13Z" transform="translate(-33.46 -89.18)"/><path class="cls-1" d="M141.63,166l-5.25-4.53a18.11,18.11,0,0,1,5.52,4.43.86.86,0,0,1-.05.79c-1.5.7-3,1.33-4.56,2l-.14-.36,4.38-1.87Z" transform="translate(-33.46 -89.18)"/><path class="cls-1" d="M74.47,147.62l-2,1.11,1.13,1.63a4.89,4.89,0,0,1-2.79-2,.67.67,0,0,1,.11-.53C71.33,147.43,73.66,147.19,74.47,147.62Z" transform="translate(-33.46 -89.18)"/><path class="cls-1" d="M80.62,156.59c-1.67,1.47-2.26,1.51-3.54.32C77.94,155.21,78.45,155.15,80.62,156.59Z" transform="translate(-33.46 -89.18)"/><path class="cls-1" d="M125.5,167.41c1.83-.14,3,.33,3.41,2.14a1.41,1.41,0,0,1-2.32-.49C126.28,168.53,125.92,168,125.5,167.41Z" transform="translate(-33.46 -89.18)"/><path class="cls-1" d="M94.13,118.9l3.73,4.19-.32.28L94,119.48l-1.6,5.4-.37-.11L93.69,119Z" transform="translate(-33.46 -89.18)"/><path class="cls-1" d="M133.15,183.78l-6.65-1,0-.28,6.43.85c-.35-1.29-.54-2.28-.9-3.21s-.9-1.82-1.39-2.79C132,178.31,133.23,181.34,133.15,183.78Z" transform="translate(-33.46 -89.18)"/><path class="cls-1" d="M93,176.74c.66,2.06.61,2.39-.59,2.89-.3.13-1,0-1-.09-.12-.51-.28-1.23,0-1.59A6.3,6.3,0,0,1,93,176.74Z" transform="translate(-33.46 -89.18)"/><path class="cls-1" d="M124.61,134.22l.46-3.73-1.93.2,0-.27,3.23-.84-1.13,4.76Z" transform="translate(-33.46 -89.18)"/><path class="cls-1" d="M123.5,142.91a11.08,11.08,0,0,1,1.62-1.85c.21-.16.89.26,1.35.42a6,6,0,0,1-1.06,1.63c-.36.27-1,.13-1.57.17Z" transform="translate(-33.46 -89.18)"/><path class="cls-1" d="M117.5,132.34l-.63-3L113,131.6c-.21-.76,1.65-2,4.27-2.78q.39,1.73.78,3.42Z" transform="translate(-33.46 -89.18)"/><path class="cls-1" d="M89.82,132.79c2.23.66,2.48,1,2,2.73-.72-.39-1.45-.74-2.14-1.17S89.16,133.72,89.82,132.79Z" transform="translate(-33.46 -89.18)"/><path class="cls-1" d="M92.26,131.73l-4-2.49a16.73,16.73,0,0,0-.94,2.08,16.14,16.14,0,0,0-.37,2.29c-.57-1.2.1-4,1-4.6a.68.68,0,0,1,.54-.1c1.35.8,2.69,1.63,4,2.44Z" transform="translate(-33.46 -89.18)"/><path class="cls-1" d="M103,124.92l-2.1,4.18c-.13-.2-.31-.36-.27-.42.65-1.29,1.32-2.57,2-3.83a.64.64,0,0,1,.59-.22,6,6,0,0,1,2.62,2.26l-.22.25Z" transform="translate(-33.46 -89.18)"/><path class="cls-1" d="M97.25,125.75c-.39-.21-.78-.41-1.15-.63s-.74-.46-1.21-.77l-1.06,2.4-.38-.15,1.12-3.6,2.87,2.4Z" transform="translate(-33.46 -89.18)"/><path class="cls-1" d="M83.73,144.75a7,7,0,0,1-2,.22c-.4-.09-.75-.57-1-.94-.09-.12.09-.65.19-.66a4,4,0,0,1,1.78,0C83.08,143.54,83.29,144.14,83.73,144.75Z" transform="translate(-33.46 -89.18)"/><path class="cls-1" d="M118,179.48c-1.44-.52-1.74-1.26-1.31-3C118.1,176.88,118.55,177.89,118,179.48Z" transform="translate(-33.46 -89.18)"/><path class="cls-1" d="M83.87,168.61c-.86,1.92-1.06,2-2.54,1.68C81,168.8,82,168.21,83.87,168.61Z" transform="translate(-33.46 -89.18)"/><path class="cls-1" d="M113.41,135.39c-.32-2-.27-2.07,1.45-2.74C115.87,134.4,113.72,134.4,113.41,135.39Z" transform="translate(-33.46 -89.18)"/><path class="cls-1" d="M102.43,131.51c-.72-1.3-.7-1.4.41-2.73C103.91,129.28,103.91,129.28,102.43,131.51Z" transform="translate(-33.46 -89.18)"/><path class="cls-1" d="M161.5,170c-.93.29-1.65.47-2.34.74-.87.36-1.13-.34-1.45-.83-.13-.21-.07-.79.07-.86.55-.28,1.25-.67,1.75-.53C160.19,168.68,160.71,169.34,161.5,170Zm-1.46,0v-.64a9.35,9.35,0,0,0-1.4-.14c-.06,0-.11.51-.16.78Z" transform="translate(-33.46 -89.18)"/><path class="cls-1" d="M144.32,193.75h2.43V196c-.61,0-1.49.19-1.78-.13S144.54,194.59,144.32,193.75Zm2,1.72.32-.42-1.35-1C145.05,195.44,145.55,195.6,146.29,195.47Z" transform="translate(-33.46 -89.18)"/><path class="cls-1" d="M121.7,213.31c-2-.86-2.14-1.2-1.11-3.22C122.76,211.34,122.79,211.43,121.7,213.31Zm-.6-.77c.82-1.09.82-1.09-.54-1.71Z" transform="translate(-33.46 -89.18)"/><path class="cls-1" d="M155.14,139.37c.52-2.08.87-2.25,3-1.42l-1,2Zm2.28-1-.3-.47a5,5,0,0,0-1.09.53c-.07,0,.2.53.31.81Z" transform="translate(-33.46 -89.18)"/><path class="cls-1" d="M64,199.33a10.93,10.93,0,0,1,.22-2.78c.4-1.15,1.55-.67,2.42-.8C66.89,198.81,66.86,199,64,199.33Zm1-2.79v1.81c1.34-.11,1-1,1.14-1.81Z" transform="translate(-33.46 -89.18)"/><path class="cls-1" d="M67.27,193.62a4.42,4.42,0,0,1-1.27.18c-2.33-.36-3.1,1.25-3.76,3-.51,1.29-.91,2.63-1.48,3.9a13.72,13.72,0,0,1,2.67-6.7,1.47,1.47,0,0,1,1-.49c.94-.07,1.89,0,2.83,0Z" transform="translate(-33.46 -89.18)"/><path class="cls-1" d="M59.18,205.6c1.2-1.28,2.68-.73,3.92-1.12C63.11,205.79,61.23,206.37,59.18,205.6Z" transform="translate(-33.46 -89.18)"/><path class="cls-1" d="M67.49,201.86l-6.15,1.2-.08-.36,6.18-1.19Z" transform="translate(-33.46 -89.18)"/><path class="cls-1" d="M63.52,204.43l2-.48.3.28c-.33.41-.58,1-1,1.18C64.09,205.77,63.64,205.35,63.52,204.43Z" transform="translate(-33.46 -89.18)"/><path class="cls-1" d="M62.17,122.13c-.37-.16-.9-.21-1.09-.49a17.51,17.51,0,0,1-2.59-6.92c-.12-.77.18-1.33,1.06-1.37a62.35,62.35,0,0,1,6.41-.08c-1.88.17-3.77.34-5.66.49-1,.09-1.58.43-1.15,1.59.67,1.75,1.22,3.55,1.93,5.29.2.48.8.8,1.21,1.19Z" transform="translate(-33.46 -89.18)"/><path class="cls-1" d="M64.82,119c-1.9.36-3.23-.65-3.31-2.37,0-.21.15-.61.22-.61a10.71,10.71,0,0,1,2.41.21c.3.08.57.67.65,1.06A8.76,8.76,0,0,1,64.82,119Zm-1.19-.69c.36-1.45.3-1.5-1.17-1.29Z" transform="translate(-33.46 -89.18)"/><path class="cls-1" d="M63.1,121.29c.9-.79,2.76.53,3.33-1.44l.12,1,1.24-.63c-.11.38-.15.84-.27.86-1.46.23-2.93.41-4.4.6Z" transform="translate(-33.46 -89.18)"/><path class="cls-1" d="M58.31,121.14,56.8,117C58,117.38,58.89,120.32,58.31,121.14Z" transform="translate(-33.46 -89.18)"/><path class="cls-1" d="M72.28,124.64c.12.59-.13.89-.69.66a5.8,5.8,0,0,1-1.15-.8,4.71,4.71,0,0,1,1.21-.42c.21,0,.44.38.65.59Z" transform="translate(-33.46 -89.18)"/><path class="cls-1" d="M69.55,120.91a2,2,0,0,1-.14,2.87Z" transform="translate(-33.46 -89.18)"/><path class="cls-1" d="M92.54,211.42c1.11,1.42,1.1,1.46-.15,2.57C91.27,212.91,91.31,212.12,92.54,211.42Z" transform="translate(-33.46 -89.18)"/><path class="cls-1" d="M115,102.77c-2.13-2-1.85-1.58.44-3.45C116.87,101,116.84,101.27,115,102.77Zm.26-2.57-1.12,1,.76.94,1-.86Z" transform="translate(-33.46 -89.18)"/><path class="cls-1" d="M112.62,111.67l.19-1.29.82.14-.43,1.27Z" transform="translate(-33.46 -89.18)"/><path class="cls-1" d="M141.42,111.91a19.22,19.22,0,0,1-1.54,2.84c-.31.39-1,.43-1.21-.43C138.34,112.79,139,112.13,141.42,111.91Z" transform="translate(-33.46 -89.18)"/><path class="cls-1" d="M88.91,99.58c1.61,1.06,1.76,1.41,1,2.52-.18.26-.81.55-1,.44a1.6,1.6,0,0,1-.71-1.12A7.16,7.16,0,0,1,88.91,99.58Z" transform="translate(-33.46 -89.18)"/><path class="cls-1" d="M92.46,112.16c-.61-.57-1.64-.94-.83-1.9a1,1,0,0,1,1-.15C93.46,110.82,92.65,111.48,92.46,112.16Z" transform="translate(-33.46 -89.18)"/><path class="cls-1" d="M43.31,173.09c1.09.31,2.16.69,3.27.92s2.38.28,3.56.49a1.65,1.65,0,0,0,2.14-1.29.61.61,0,0,1,.57-.4l-.91,2a21.91,21.91,0,0,1-8.23-1c-1.14-.4-1.32-.7-.66-1.7a15.85,15.85,0,0,1,6.65-5.36,1.08,1.08,0,0,1,.85.17c1,.72,2,1.49,3,2.24l-.21.33c-.92-.6-1.82-1.24-2.77-1.79a1.56,1.56,0,0,0-1.15-.16c-.2.07-.23.62-.35.95-.07.16-.16.31-.3.6l-.81-1c-1.64,1.52-3.26,3-4.89,4.51Z" transform="translate(-33.46 -89.18)"/><path class="cls-1" d="M47.23,171.46c.55-.64,1-1.51,1.69-1.83.45-.2,1.31.34,1.9.68a1,1,0,0,1,.2.95,2.51,2.51,0,0,1-1.29.62,17.48,17.48,0,0,1-2.29,0Z" transform="translate(-33.46 -89.18)"/><path class="cls-1" d="M46.72,166.41a19.19,19.19,0,0,1-1.39,1.6,5.5,5.5,0,0,1-1.15.66c-.47-.56-.5-.59.49-1.52a18.28,18.28,0,0,1,1.69-1.22l.39.51Z" transform="translate(-33.46 -89.18)"/><path class="cls-1" d="M47.73,164.31v1.41c.38-1,.79-1,1.22-.19l-2.22.88,0,0Z" transform="translate(-33.46 -89.18)"/><path class="cls-1" d="M53,172.1l1.71-2.68C55.11,169.85,54.1,171.54,53,172.1Z" transform="translate(-33.46 -89.18)"/><path class="cls-1" d="M50.58,173.62,52,171.46l.4.26L51,173.87Z" transform="translate(-33.46 -89.18)"/><path class="cls-1" d="M47,141.62c1.74-1.56,2.61-1.43,3.84.6C49.41,143.79,48.75,143.69,47,141.62Z" transform="translate(-33.46 -89.18)"/><path class="cls-1" d="M48.36,138.74c1-.17,2-.36,3-.5a.57.57,0,0,1,.47.26c.46,1,.89,2.06,1.33,3.09l-.27.18a9.72,9.72,0,0,1-1-1.78c-.37-1.07-1-1.24-2-1a13.27,13.27,0,0,1-1.41.19Z" transform="translate(-33.46 -89.18)"/><path class="cls-1" d="M53.13,143.69a3,3,0,0,1-.51.79,19.1,19.1,0,0,1-2,1.41c-.31.19-.81.38-1.07.25-.93-.45-1.79-1-2.68-1.58l.19-.33a18.39,18.39,0,0,0,2.24,1.27,1.63,1.63,0,0,0,1.21-.15c.92-.49,1.79-1.08,2.68-1.63Z" transform="translate(-33.46 -89.18)"/><path class="cls-1" d="M47.57,139.33c-3,1.37-3.12,1.42-3.46,2.58-1.12-1.22-1.07-1.4.42-1.9,1-.33,1.95-.68,2.92-1Z" transform="translate(-33.46 -89.18)"/><path class="cls-1" d="M53.82,146.25c-.43.18-1,.12-.92.92,0,.12-.59.34-.9.51.22-1.56.8-2.15,2.8-2.53Z" transform="translate(-33.46 -89.18)"/><path class="cls-1" d="M50.82,143.19c.12.21.43.54.37.67a2.27,2.27,0,0,1-.79.78c-.11.07-.38-.11-.57-.17A1.56,1.56,0,0,1,50,144,10.46,10.46,0,0,1,50.82,143.19Z" transform="translate(-33.46 -89.18)"/><path class="cls-1" d="M53.14,143.72l.93-1.06.73.73-.14.47-1.53-.16Z" transform="translate(-33.46 -89.18)"/><path class="cls-1" d="M155.26,123.57a3.85,3.85,0,0,1-1.56,2.52C153.08,123.54,153.32,123.19,155.26,123.57Z" transform="translate(-33.46 -89.18)"/><path class="cls-1" d="M148,119.42l1.79-1.07.34.21c-.06.49,0,1.33-.21,1.41a5.73,5.73,0,0,1-1.86.07Z" transform="translate(-33.46 -89.18)"/><path class="cls-1" d="M165.16,156.76l-2.27,1.3-.35-.31a7.85,7.85,0,0,1,1.07-1.88c.18-.18.94.22,1.44.35Z" transform="translate(-33.46 -89.18)"/><path class="cls-1" d="M163.81,149.22l-.9,1.91-2.12-1.91Z" transform="translate(-33.46 -89.18)"/><path class="cls-1" d="M75.26,206.69a7.18,7.18,0,0,1,.66,2.34c0,.3-1.12.55-1.73.82l-.32-.3.76-2.85Z" transform="translate(-33.46 -89.18)"/><path class="cls-1" d="M79.33,213.29c0-.62-.15-1.49.17-1.78s1.25-.27,1.9-.38l.24.51-1.83,1.8Z" transform="translate(-33.46 -89.18)"/><path class="cls-1" d="M51.88,190.21a2.5,2.5,0,0,1,0-.65c.17-.53.36-1.05.54-1.58a7.63,7.63,0,0,1,1.91.81c.67.52.18,1-.39,1.19A12.46,12.46,0,0,1,51.88,190.21Z" transform="translate(-33.46 -89.18)"/><path class="cls-1" d="M49.33,183.63c.59-.54,1.09-1,1.63-1.47a1.87,1.87,0,0,1,.74-.18,6.54,6.54,0,0,1,.13.75,1.37,1.37,0,0,1-.07.34C51.4,185,51.05,185.1,49.33,183.63Z" transform="translate(-33.46 -89.18)"/><path class="cls-1" d="M134.4,210.32l-.48-1c-.21-.42-.41-.85-.62-1.27l1.69-.25a10.81,10.81,0,0,1,.16,1.38,2.43,2.43,0,0,1-.28.76Z" transform="translate(-33.46 -89.18)"/><path class="cls-1" d="M140.35,206.14c-2.37-.32-2.47-.5-1.48-2.63Z" transform="translate(-33.46 -89.18)"/><path class="cls-1" d="M110.19,214.86l-.34,3.16-.34.13c-.41-.61-1.19-1.24-1.15-1.81s.88-1.13,1.36-1.69Z" transform="translate(-33.46 -89.18)"/><path class="cls-1" d="M103.13,217.79l-.19-2.45,1.69,1.14-1.19,1.45Z" transform="translate(-33.46 -89.18)"/><path class="cls-1" d="M44.92,151.88l1,.91c-.47.43-.91,1.11-1.44,1.19-.33.06-.81-.77-1.22-1.21Z" transform="translate(-33.46 -89.18)"/><path class="cls-1" d="M44.18,157.44c.56.77,1,1.31,1.32,1.89,0,.06-.47.62-.61.58a18,18,0,0,1-2-.78Z" transform="translate(-33.46 -89.18)"/><path class="cls-1" d="M154.6,185.78c.53-.21,1.16-.7,1.56-.55s.51.94.75,1.45l-.27.32-2-.83Z" transform="translate(-33.46 -89.18)"/><path class="cls-1" d="M157.58,180.61l1.88,1.13C158.27,182.61,157.85,182.39,157.58,180.61Z" transform="translate(-33.46 -89.18)"/><path class="cls-1" d="M105.5,96.61l-.13,2.62c-1.77-1.35-1.77-1.45-.29-2.65Z" transform="translate(-33.46 -89.18)"/><path class="cls-1" d="M99.75,99.24l-.39-2.14C100.85,97.82,101,98.33,99.75,99.24Z" transform="translate(-33.46 -89.18)"/><path class="cls-1" d="M78.44,102.28,80,104.63l-.23.45c-.63-.19-1.54-.19-1.82-.61s-.07-1.34-.07-2Z" transform="translate(-33.46 -89.18)"/><path class="cls-1" d="M73.22,104.78c.64.61,1.42,1,1.39,1.4,0,.54-.64,1-1,1.56a14,14,0,0,1-.84-1.8C72.7,105.71,73,105.36,73.22,104.78Z" transform="translate(-33.46 -89.18)"/><path class="cls-1" d="M131.28,105.45l-.71-1,1-.73.27.14-.26,1.65Z" transform="translate(-33.46 -89.18)"/><path class="cls-1" d="M145.12,163.28l-1-1.12,1.55-.73-.24,1.77Z" transform="translate(-33.46 -89.18)"/><path class="cls-1" d="M146,159.36l-1.37-.89,1.47-1Z" transform="translate(-33.46 -89.18)"/><path class="cls-1" d="M76.05,125.09l1.56-1.43.27,1.9-1.75-.16Z" transform="translate(-33.46 -89.18)"/><path class="cls-1" d="M80.81,123.23l-1.76-.6,1.76-1.31Z" transform="translate(-33.46 -89.18)"/><path class="cls-1" d="M54.6,125.49c.19.35.68.81-.09,1-.56.12-1.17,1-1.77.1a7.2,7.2,0,0,1-.49-1.43l2.39.39Z" transform="translate(-33.46 -89.18)"/><path class="cls-1" d="M79.8,191.05l1.75-1,.36,2.17Z" transform="translate(-33.46 -89.18)"/><path class="cls-1" d="M78.64,190.12l-2.1-1.35,2.1-.51Z" transform="translate(-33.46 -89.18)"/><path class="cls-1" d="M121.92,194.16c.19-.47.28-1.07.63-1.36.19-.16.81.19,1.6.42l-1.93,1.18Z" transform="translate(-33.46 -89.18)"/><path class="cls-1" d="M119,193.92l1.45.79-2.15,1.21Z" transform="translate(-33.46 -89.18)"/><path class="cls-1" d="M90,118.32l-1.32-.92,1.83-.92Z" transform="translate(-33.46 -89.18)"/><path class="cls-1" d="M105.9,114.88l-1.08.89-.85-1.16,1.82-.1Z" transform="translate(-33.46 -89.18)"/><path class="cls-1" d="M71.57,129.8l.41,1.91-1.58-.38.71-1.59Z" transform="translate(-33.46 -89.18)"/><path class="cls-1" d="M68.36,134.34,69.1,133l.33,0a3,3,0,0,1,.15,1.22c-.07.2-.65.23-1,.33Z" transform="translate(-33.46 -89.18)"/><path class="cls-1" d="M102.3,198.52l-1.93.13.85-1.61Z" transform="translate(-33.46 -89.18)"/><path class="cls-1" d="M97.67,198.3l.83-1.62,1.08,1.48Z" transform="translate(-33.46 -89.18)"/><path class="cls-1" d="M64.74,141.28,66,142.63l-1.46.81-.27-.22Z" transform="translate(-33.46 -89.18)"/><path class="cls-1" d="M64.29,170.76l1.58.49-.72,1.38-1-1.64Z" transform="translate(-33.46 -89.18)"/><path class="cls-1" d="M65.85,174.06c.37.13.84.16,1.08.41s-.08.65-.21,1.37l-1.11-1.45Z" transform="translate(-33.46 -89.18)"/><path class="cls-1" d="M87.38,194l.62,1.65-1.53-.42-.19-.36Z" transform="translate(-33.46 -89.18)"/><path class="cls-1" d="M88.94,196.32l1.1-1.15.75,1.63Z" transform="translate(-33.46 -89.18)"/><path class="cls-1" d="M111.52,198.17l-1.72.25.37-1.28,1.4.67Z" transform="translate(-33.46 -89.18)"/><path d="M97.32,149.75c-.13-.66-.26-1.21-.34-1.78a13.55,13.55,0,0,1-.2-2,8.14,8.14,0,0,1,.32-1.51,6.58,6.58,0,0,1,1.69.56,29.09,29.09,0,0,1,2.39,2c.11-.51.18-.92.3-1.31a11.33,11.33,0,0,1,.73-2.1q1.17-2.16,2.31.05c.44.83.74,1.72,1.12,2.64,1-.82,2-1.67,3-2.37s1.74-.34,1.71,1c0,1-.21,2-.3,3.05,0,.37,0,.75,0,1.14,1.65-.24,3.17-.42,4.67-.7a1.07,1.07,0,0,1,1.34.84,1.79,1.79,0,0,1-.11,1.37c-.78,1.08-1.68,2.08-2.47,3,.78.19,2,.45,3.1.79.7.2,1.41.36,1.45,1.42s-.48,1.41-1.3,1.67l-3.13,1.08c.94,1,1.85,1.84,2.66,2.8a1.54,1.54,0,0,1,.28,1.23,1.08,1.08,0,0,1-1.32.87c-1.31-.23-2.64-.35-4.13-.54.32,1.31.67,2.55.9,3.82a1.9,1.9,0,0,1-.3,1.41c-.52.6-1.11.23-1.65-.18-1-.79-2.09-1.52-3.31-2.4-.15.6-.21,1-.33,1.32a21.27,21.27,0,0,1-1.09,3,1.11,1.11,0,0,1-2.08-.09c-.39-.86-.67-1.77-1-2.66l-.32-.86c-1.4.82-2.66,1.67-4,2.34-1,.49-1.63,0-1.47-1.15.2-1.36.51-2.7.79-4.11-1.16.21-2.34.44-3.53.62a1.55,1.55,0,0,1-1.81-.72,1.46,1.46,0,0,1,.17-1.85c.67-.9,1.44-1.73,2.28-2.73-.9-.2-1.7-.33-2.47-.56a4.9,4.9,0,0,1-1.5-.7,1.17,1.17,0,0,1,.11-1.9c1.18-.59,2.43-1,3.77-1.59-.28-.36-.64-.8-1-1.25a6,6,0,0,1-.87-1.27c-.23-.63-1.11-1.12-.47-2s1.43-.49,2.17-.37C95.09,149.19,96.11,149.47,97.32,149.75Zm12,6.7c-.08-2.89-2.45-5.48-4.92-5.41a5.61,5.61,0,0,0-5.81,5.53,5.07,5.07,0,0,0,5.27,5.09C107,161.56,109.38,159.32,109.3,156.45Zm-9.69-8-.31.1.63,2,.4-.13C100.76,149.5,99.91,149.05,99.61,148.43Zm7.39,1,.58.21.66-1.82-.46-.18Zm-9.83,3.82.33-.52-1.62-.81-.24.46Z" transform="translate(-33.46 -89.18)"/><path d="M114.8,147.77l-3.92.52v-3.72l.3-.21,3.78,3Z" transform="translate(-33.46 -89.18)"/><path d="M96.05,144.88c.19,1.54.33,2.75.49,4l-3.91-.78Z" transform="translate(-33.46 -89.18)"/><path d="M105.83,170.43l1.23-3.8L110.2,169Z" transform="translate(-33.46 -89.18)"/><path d="M98,169.41l3.6-2.18,1.26,3.32Z" transform="translate(-33.46 -89.18)"/><path d="M92.43,164.72l3.95-.66-.75,3.83Z" transform="translate(-33.46 -89.18)"/><path d="M115.68,164.12l-2.78,3.24-1-3.69Z" transform="translate(-33.46 -89.18)"/><path d="M90.07,154.74l1-4.13,2.22,3Z" transform="translate(-33.46 -89.18)"/><path d="M117.2,161.47l-2.53-2.65,3.36-1.26Z" transform="translate(-33.46 -89.18)"/><path d="M114.41,153.16l2.48-2.26,1.12,3.31Z" transform="translate(-33.46 -89.18)"/><path d="M105.91,145.36l-1.31-3,3.62.49.13.32Z" transform="translate(-33.46 -89.18)"/><path d="M90.15,158.11l2.94.92-2,2.69Z" transform="translate(-33.46 -89.18)"/><path d="M100.59,145.62l-2.39-1.89,3.75-1.09Z" transform="translate(-33.46 -89.18)"/><path d="M160,169.94h-1.55c0-.27.1-.78.16-.78a9.35,9.35,0,0,1,1.4.14Z" transform="translate(-33.46 -89.18)"/><path d="M146.29,195.47c-.74.13-1.24,0-1-1.4l1.35,1Z" transform="translate(-33.46 -89.18)"/><path d="M121.1,212.54l-.54-1.71C121.92,211.45,121.92,211.45,121.1,212.54Z" transform="translate(-33.46 -89.18)"/><path d="M157.42,138.42l-1.08.87c-.11-.28-.38-.77-.31-.81a5,5,0,0,1,1.09-.53Z" transform="translate(-33.46 -89.18)"/><path d="M65,196.54h1.14c-.11.78.2,1.7-1.14,1.81Z" transform="translate(-33.46 -89.18)"/><path d="M63.63,118.26,62.46,117C63.93,116.76,64,116.81,63.63,118.26Z" transform="translate(-33.46 -89.18)"/><path d="M115.22,100.2l.64,1-1,.86-.76-.94Z" transform="translate(-33.46 -89.18)"/><path class="cls-1" d="M109.3,156.45c.08,2.87-2.27,5.11-5.46,5.21a5.07,5.07,0,0,1-5.27-5.09,5.61,5.61,0,0,1,5.81-5.53C106.85,151,109.22,153.56,109.3,156.45Zm-5.47,4.48c3-.1,4.85-1.9,4.78-4.71a4.7,4.7,0,0,0-4.53-4.56,5,5,0,0,0-4.8,4.89A4.25,4.25,0,0,0,103.83,160.93Z" transform="translate(-33.46 -89.18)"/><path class="cls-1" d="M99.61,148.43c.3.62,1.15,1.07.72,1.94l-.4.13-.63-2Z" transform="translate(-33.46 -89.18)"/><path class="cls-1" d="M107,149.43l.78-1.79.46.18-.66,1.82Z" transform="translate(-33.46 -89.18)"/><path class="cls-1" d="M97.17,153.25l-1.53-.87.24-.46,1.62.81Z" transform="translate(-33.46 -89.18)"/><path d="M103.83,160.93a4.25,4.25,0,0,1-4.55-4.38,5,5,0,0,1,4.8-4.89,4.7,4.7,0,0,1,4.53,4.56C108.68,159,106.86,160.83,103.83,160.93Zm2.31-2.22c.42-2.7.42-2.7-.15-4.61l-2.31-.91-2.06,1.24-.75,2,.93,2.39,2.06.73Z" transform="translate(-33.46 -89.18)"/><path class="cls-1" d="M106.14,158.71l-2.28.83-2.06-.73-.93-2.39.75-2,2.06-1.24,2.31.91C106.56,156,106.56,156,106.14,158.71Zm-2.26-.11a2.18,2.18,0,0,0,2.25-2,2.36,2.36,0,0,0-2.11-2.45,2.07,2.07,0,0,0-2.14,2.2A2.13,2.13,0,0,0,103.88,158.6Z" transform="translate(-33.46 -89.18)"/><path d="M103.88,158.6a2.13,2.13,0,0,1-2-2.22,2.07,2.07,0,0,1,2.14-2.2,2.36,2.36,0,0,1,2.11,2.45A2.18,2.18,0,0,1,103.88,158.6Z" transform="translate(-33.46 -89.18)"/></svg>