<svg id="Calque_1" data-name="Calque 1" xmlns="http://www.w3.org/2000/svg" viewBox="0 0 167.63 199.73"><defs><style>.cls-1{fill:#fff;}</style></defs><path d="M127.6,194c.09-.56.18-1.12.31-1.89l-4.61.73c-.42-1.45.13-2.1,1.31-2.39,1.75-.43,3.51-.8,5.22-1.32.46-.14.77-.75,1.15-1.15-.51-.17-1.06-.56-1.52-.47-2.24.41-4.45.95-6.88,1.49-.94-2.39-1.83-4.69-2.73-7-1.47.46-1.79,1.24-1.23,2.28a31.06,31.06,0,0,1,3.26,10.44,28.12,28.12,0,0,1,.19,4.77c-.06,2,.67,2.66,2.58,1.95,3.88-1.43,7.69-3.09,11.65-4.24a51.57,51.57,0,0,1,7.87-1.12c.58,1.69,1.05,2.89,1.42,4.12.67,2.2-.58,3.78-1.83,5.31a37.4,37.4,0,0,1-11.12,8.71,7,7,0,0,0-1.47,1.59c.55.48,1.09,1,1.66,1.44a51.76,51.76,0,0,1,5.19,4.33c2,2.21,3.79,4.71,5.65,7.11.17.22.17.56.29.83.31.69.64,1.36,1,2l.66,0c-.74,1.33-1.44,2.69-2.25,4a2.08,2.08,0,0,1-1.24.94c-2.56.32-5.08.44-7.53-.74-1.66-.8-3.48-1.25-5.21-1.91-2-.78-4-1.68-6-2.41s-2.75,0-3,2.12c-.6,5.63-2.11,11-5.52,15.61a3.76,3.76,0,0,1-6.38-.35,21.56,21.56,0,0,1-2.26-5.19,89.9,89.9,0,0,1-1.83-9.1,13.49,13.49,0,0,1,.37-3.17c.16-1.72-.54-2.29-2.21-1.8-1,.31-2,.62-3.07,1-4.56,1.52-9.27,1.71-14,1.68a25.4,25.4,0,0,1-3.27-.15c-1.54-.21-1.39-1.57-1-2.34a19.46,19.46,0,0,1,3.6-5.11c3.43-3.06,7.16-5.78,10.74-8.68a13.54,13.54,0,0,0,1.6-1.79,55.79,55.79,0,0,0-5.43-5c-2.67-1.89-4.45-4.49-6.23-7.07a27,27,0,0,1-2.66-5.48c-.12-.32.67-1.4,1.12-1.46,1.89-.23,3.92-.63,5.71-.19A100.43,100.43,0,0,1,100,198.24a37.37,37.37,0,0,1,3.63,1.83,2,2,0,0,0,2.92-1.66c.1-4.36,2.11-8.11,3.56-12.08.92-2.53,2.88-4.06,4.23-6.15.68-1.05,2-.85,2.76.24a18.4,18.4,0,0,0,1.74,1.84c0-2.14.8-2.12,2-1.7,3.37,1.21,6.81,2.23,10.1,3.61a16.76,16.76,0,0,1,4.87,3.15c2.2,2.08,4.13,4.46,6.44,7l-8.27,1.39c-.91-2.19-1.64-3.95-2.36-5.7l-.58,0a19.09,19.09,0,0,0,0,2.51,11.64,11.64,0,0,0,.68,2.2c.36,1,.19,1.69-.89,1.93s-1.66-.05-1.89-1.27c-.1-.56-.87-1-1.34-1.48Zm-16.38,32.74a23.88,23.88,0,0,1,2.14-9c.52.78,1.09,1.24,1.1,1.72a65.85,65.85,0,0,1-.15,8.89c-.2,1.63-.51,3.5-2.17,4.67a3.24,3.24,0,0,0-1,1.85c-.06.28.67,1.06.79,1,.68-.28,1.58-.61,1.84-1.17a25.05,25.05,0,0,0,1.92-5.34c.47-2.26.58-4.6.86-7a12.44,12.44,0,0,1,1.25-.22c.48,1.75,2.2,1.35,3.32,1.8a71.86,71.86,0,0,0,7.74,2.48,1.75,1.75,0,0,0,1.55-.48,1.82,1.82,0,0,0-.05-1.65c-.54-.81-1.44-1.39-2-2.2a20.49,20.49,0,0,0-8.48-6.86c1.64-.75,3.08-1.39,4.5-2.06a16.29,16.29,0,0,0,6.71-5.56,6.79,6.79,0,0,0,.53-2.15c-.78-.14-1.56-.34-2.35-.42a3.23,3.23,0,0,0-1,.28c-4.11,1.08-8.07,2.49-11.52,5.79-.17-3.72.67-7.15-.86-10.38-.16,4.23.16,8.55-3,12.59a49.52,49.52,0,0,1-1.31-5.1,1.55,1.55,0,0,1,1.26-2c.54-.1,1-.7,1.46-1.07l-.17-.35-3,.45c.52-2.21,1.09-4.1,1.36-6,.21-1.5.81-2.14,2.25-1.81a4,4,0,0,0,0-1.36c-.21-.5-.57-1.23-1-1.29s-1.43.33-1.52.7c-1,3.74-1.77,7.51-2.63,11.26-.1.44-.16,1.09-.44,1.23s-.89-.11-1.26-.35a23.3,23.3,0,0,0-9.94-3.8c-.74-.1-1.58.58-2.38.9a12.32,12.32,0,0,0,1,1.8,36.21,36.21,0,0,0,2.93,3.38c1.4,1.37,2.9,2.65,4.38,3.94.49.42,1.07.75,1.88,1.3-.68.29-.89.39-1.11.47-4.35,1.69-7.06,5.26-9.84,8.71-.92,1.14-.57,2.11.74,2.17a16.73,16.73,0,0,0,3.94-.18c3.88-.74,7.67-1.78,10.7-4.82v9.84l.5.1a13.16,13.16,0,0,0,.57-4.65,22,22,0,0,0,2.43-.27c.16,0,.23-.55.35-.85-.31-.1-.73-.38-.9-.27A18.58,18.58,0,0,0,111.22,226.72Z" transform="translate(-14.08 -50.95)"/><path d="M158.17,141.49c3.1-3.92,6.55-7.7,9.29-12,2.06-3.19,3.23-7,4.75-10.51,1.9-4.39,1.62-9.14,2.09-13.75a24.43,24.43,0,0,0-1.63-11.87,4.17,4.17,0,0,1,0-1.46c0-.27.16-.61,0-.8-2.21-3.71-3.07-8.15-6.28-11.37-.86-.87-.85-2.46-2-3.49-1.39-1.2-2.16-3.09-3.49-4.38a40.67,40.67,0,0,0-5.79-4.69,63.38,63.38,0,0,0-7.36-4.15C140.55,59.6,132.91,58.84,125,59c-8.14.16-15.32,3.19-22.44,6.62A27.26,27.26,0,0,0,92.26,74c-1.3,1.76-3.6,3.18-4.06,5.09-1,4.08-4.29,4.89-7.16,6.49a23.68,23.68,0,0,1-4.7,2.19c1.26-3.12,2.18-6.45,3.85-9.33a55,55,0,0,1,14.5-16.35,59.38,59.38,0,0,1,18.39-9.21c7.23-2.19,14.65-2.24,22.09-1.62,1.29.11,2.53.86,3.82,1,5.17.5,9.75,2.77,14.32,4.89,2.7,1.26,5,3.38,7.48,5.14,1.76,1.25,3.74,2.31,5.17,3.87a91.49,91.49,0,0,1,6.19,7.92A47.78,47.78,0,0,1,176,79.86a30.15,30.15,0,0,1,1.65,4.94c.48,1.44,1,2.86,1.47,4.32.71,2.36,1.39,4.74,2,7.13a17,17,0,0,1,.62,4.11c-.06,5,.22,10-.5,14.84A42.91,42.91,0,0,1,174,133.27c-1.3,1.9-1.9,4.29-3.24,6.16A60.61,60.61,0,0,1,165,146c-.28.28-1.41.11-1.84-.22C161.37,144.36,159.72,142.84,158.17,141.49ZM178,120.37c-.94-.4-1.44-.81-1.75-.7a6.87,6.87,0,0,0-1.55,1.14c.34.32.77,1,1,.91A12.32,12.32,0,0,0,178,120.37Zm-.46-30.61c-1-.42-2-.73-2.65.42-.15.26.21,1.18.42,1.21A1.77,1.77,0,0,0,177.55,89.76Zm-8.86,44.52a20.1,20.1,0,0,0-1.6,1.88c-.05.08.67.84.74.8a9.2,9.2,0,0,0,1.73-1.38A8.83,8.83,0,0,0,168.69,134.28ZM178.75,113c-.08-.23-.16-.46-.25-.69-.89-.55-1.79-.64-2.43.35-.15.24.23.83.37,1.25ZM175.6,85.59c-.68-.51-1.2-1.07-1.36-1a3.88,3.88,0,0,0-1.34,1.3c-.08.13.68,1,.81,1A12.24,12.24,0,0,0,175.6,85.59Zm2.93,9.91-.19-.69c-.83-.58-1.69-.76-2.41.2-.14.18.31,1.11.38,1.1A19.77,19.77,0,0,0,178.53,95.5Zm-1.66,29.06c-.79-.38-1.23-.78-1.48-.68a7.76,7.76,0,0,0-1.53,1.06c.28.37.73,1.08.83,1A16.67,16.67,0,0,0,176.87,124.56ZM171,76.83c-.89-.39-1.36-.79-1.7-.7a1.76,1.76,0,0,0-1.13,1c-.09.24.63,1.09.75,1A12.42,12.42,0,0,0,171,76.83Zm3.56,51.48-.54-.91-2.26,1.18c.23.3.57.9.65.86A22,22,0,0,0,174.6,128.31Zm4.86-19.76-.44-.82-2.25.93.67,1.28Zm-1,7.72-.53-.7a7.38,7.38,0,0,0-1.93.87c-.18.15.2,1,.44,2ZM158.68,63.9c0-.32-.05-.64-.08-.95a11.82,11.82,0,0,0-2.06,0,6.45,6.45,0,0,0-.09,1.36ZM165,142.32c-.73-.5-1.16-1-1.4-.91a7.63,7.63,0,0,0-1.63,1c.31.31.66.91.91.87A9.64,9.64,0,0,0,165,142.32Zm5-60.83c.77,1,1.55.84,2.18-.07a1.22,1.22,0,0,0-.34-1.13C170.83,79.94,170.11,80.29,170,81.49ZM142.36,56.12c-.12-.3-.23-.6-.34-.9l-2.12.68c.13.41.26.82.4,1.23Zm22.75,12.76-.45-.51a6,6,0,0,0-1.76.94c-.19.19.24,1,.4,1.49l.58,0Zm14,31-.31-.94c-.76.22-1.52.41-2.25.7a5.86,5.86,0,0,0,.23,1.06Zm-7.24,32.8c-.06-.38-.11-.76-.17-1.15a19.41,19.41,0,0,0-2.17.45c-.09,0,0,.71,0,1.08ZM164.32,139c-.12.25-.24.5-.35.75.38.14.84.49,1.12.38a8.31,8.31,0,0,0,1.58-1.1c-.26-.25-.56-.74-.75-.71A7.69,7.69,0,0,0,164.32,139ZM95.46,67.77c0-.32,0-.65,0-1H93.27l.07,1.3Zm66.7-1-.35-1a20.47,20.47,0,0,0-2.13.84,5,5,0,0,0,.28,1ZM155,61.05c-.82-.32-1.27-.66-1.53-.55a4.87,4.87,0,0,0-1.14,1c.26.27.62.81.75.76A13.36,13.36,0,0,0,155,61.05Zm-37.32-5.2-.52-1-2.12,1.25c.22.23.52.7.64.66A17.45,17.45,0,0,0,117.7,55.85Zm8.16-.06.66.13c.38-.61.77-1.22,1.16-1.83l-.34-.42c-.59.13-1.4.07-1.71.44S125.76,55.21,125.86,55.79ZM103.34,62l-.09-.94-1.94-.1c0,.49,0,1,0,1.47Zm4.38-2.61-.45-.84a13.87,13.87,0,0,0-1.65.91c-.07,0,.27.65.42,1Zm43-.69-.1-.56c-.62.1-1.39,0-1.81.37-.24.2.08,1.09.14,1.66h.55Zm-5.78-.09.6,0,1.19-1.54-.23-.42c-.59.08-1.35,0-1.7.3S144.83,58.09,144.9,58.65Zm34,45.29-.19-.49c-.51,0-1.13-.17-1.52,0s-.3.84-.44,1.29l.44.36Z" transform="translate(-14.08 -50.95)"/><path d="M29.29,146.59a9.78,9.78,0,0,0,3.31,6.83,24.29,24.29,0,0,1,1.45,2,52.91,52.91,0,0,0,4.59,5.29c1.61,1.48,3.81,2.36,5.29,3.95.67.72.55,2.59.18,3.74s-1.23.22-2-.14c-4.95-2.3-8.39-6.4-11.93-10.25-2.1-2.3-3.46-5.34-4.91-8.17a40.71,40.71,0,0,1-3.16-7.65,66.73,66.73,0,0,1-1.31-8.38c-.15-1-.27-2.05-.39-3.08a43.44,43.44,0,0,1,0-12.83c1.21-7,3.33-13.62,7.6-19.28,2.83-3.74,6.37-6.94,9.53-10.44,5.12-5.64,12-8.21,18.9-10.5a26.57,26.57,0,0,1,9-1.68c4.73.18,9.57-.89,14.13.86A16.68,16.68,0,0,1,78,79.05c-.77.74-1.66,1.77-2.57,1.85-2.59.23-5.22,0-7.84,0a6.39,6.39,0,0,0-1.07,0c-6.77,1-13.5,2.29-19.41,6C42.32,90,37.68,93.29,34,97.74c-2.85,3.47-5.45,7.1-6.88,11.43-.59,1.8-1.26,3.57-1.84,5.38a3.15,3.15,0,0,0,.06,1.09,11.75,11.75,0,0,0,1.09-.62c.12-.09.16-.32.22-.49,1.15-2.94,2.11-6,3.51-8.79a31.49,31.49,0,0,1,4.06-5.91A47.16,47.16,0,0,1,45.91,89.52a41.66,41.66,0,0,1,13.76-5.44c2.16-.44,4.2-1.65,6.5-1.68,3.34,0,6.67,0,10.27,0-.27.7-.41,1.06-.56,1.42-.54,1.36-.33,3.33-2.26,3.65a34,34,0,0,1-4.63,0c-.88,0-1.76.17-2.64.25A42.46,42.46,0,0,0,47.6,94.07,37.44,37.44,0,0,0,40.81,100a41.1,41.1,0,0,0-5,6.11c-1.74,2.63-3.81,5.32-4.53,8.27-1.3,5.3-2.95,10.69-1.55,16.35.56,2.26.27,4.74.91,7a38.52,38.52,0,0,0,3.1,7,32.38,32.38,0,0,0,3.46,5.75,85.68,85.68,0,0,0,6.07,6.29c.71.7,1.81,1.15,2.22,2a4.85,4.85,0,0,1,0,2.83c-.1.58-.68,1.07-1,1.6-4.17-2.08-7.33-5.4-10.13-9-1.41-1.84-2.43-4-3.68-5.95a10.25,10.25,0,0,0-1.44-1.43,15.46,15.46,0,0,0-2.95-7.37,12.9,12.9,0,0,0,.93,4.73A12,12,0,0,0,29.29,146.59Zm-3.47-30-.46-.23a6.23,6.23,0,0,0-1,1.76c-.33,1.6-.27,3.29-.73,4.84-.89,3-.09,6,.17,9a1.75,1.75,0,0,0,.31,1,1.5,1.5,0,0,0,1,.52c.22,0,.52-.6.53-.93,0-.77-.14-1.54-.17-2.31-.08-2.21-.23-4.42-.17-6.62S25.64,119,25.82,116.63Z" transform="translate(-14.08 -50.95)"/><path d="M156.83,162.05c-2.1-6-.91-11.79.7-17.73,1.9.35,3,2.14,4.87,3.26-1.44,1.74-2.8,3.39-4.16,5a18,18,0,0,0-1.38,1.65,1,1,0,0,0,.06.94,1,1,0,0,0,.91.19,11.69,11.69,0,0,0,2.29-1.9c1.12-1.32,2.08-2.77,3.32-4.46a35.49,35.49,0,0,1,4.41,3.63c1.86,2.08,3.39,4.46,5.13,6.65.76,1,.67,1.55-.39,2.11-2,1-3.9,2-5.83,3.11a22.5,22.5,0,0,0-1.91,1.33l.23.64a7.42,7.42,0,0,0,2.29-.29,51.85,51.85,0,0,0,5.69-3c1.05-.67,1.8-.45,2.23.45A38.56,38.56,0,0,1,178,170a60.82,60.82,0,0,1,1.08,7c0,.23.27.43.71,1.08l-7.55,1.5c-.12,0-.26-.06-.36,0-.85.37-1.71.73-2.53,1.16-.1.05,0,.76,0,.77a11,11,0,0,0,2.56.05c2.18-.35,4.34-.85,6.51-1.26.89-.17,1.34.12,1.32,1.14,0,2.11.18,4.23,0,6.32a20.52,20.52,0,0,1-1,4.5c-.62,2-1.43,4-2.1,6-.39,1.18-1.26,1.22-2.13.89-1.64-.62-3.22-1.41-4.85-2.08a2.48,2.48,0,0,0-1.4-.22,9.11,9.11,0,0,0-1.78.86,6.88,6.88,0,0,0,1.5.87c1.59.48,3.26.73,4.82,1.3,2.34.86,2.9,2.84,1.4,5.24-2.44,3.91-5,7.72-7.57,11.57-.77,1.17-1.37,1.32-2.68.33-2.23-1.68-3.27-4.07-4.55-6.32a1.35,1.35,0,0,0-2.06-.63c-.94.44-1.22,1.19-.45,2,1.08,1.16,2.25,2.23,3.32,3.41s2.19,2.58,3.43,4.05c-4.31,3.63-8.42,7.23-14.5,7.55l1.32-9.88.72-.15,2.52,3.48c1.63-.86.74-2.16.47-3-.57-1.74-1.63-3.32-2.33-5-.82-2-.27-2.84,1.53-4s3.53-2.78,5.71-4.55c.75.6,1.79,1.49,2.89,2.29,1.74,1.26,3.49,2.48,5.29,3.65.27.17.82-.07,1.24-.11-.11-.37-.1-.85-.34-1.08-1.15-1.12-2.38-2.15-3.55-3.25-1.39-1.28-2.75-2.6-4.08-3.87,1-2,2.1-3.86,2.91-5.87a19,19,0,0,0,1.26-4.91c.17-1.56,1.07-1.92,2.27-1.89,2,0,4.11.25,6.16.39.12,0,.25.11.35.08l3-.95a15.47,15.47,0,0,0-2.7-.74c-2.73-.28-5.47-.45-8.19-.66-.31-3.42-.72-6.8-.82-10.19,0-.65,1.07-1.61,1.85-1.95,2-.87,4.19-1.46,6.28-2.21a13,13,0,0,0,1.68-.9l0-.7a6.56,6.56,0,0,0-2.23-.12c-2.11.68-4.18,1.53-6.24,2.36-1.52.6-2.3.27-2.94-1.4-1-2.62-2.49-5.06-3.66-7.63a1.88,1.88,0,0,1,.31-1.68c1.46-1.51,3.1-2.84,4.56-4.35.41-.42.44-1.21.65-1.84a6.32,6.32,0,0,0-1.8.66c-1.61,1.24-3.12,2.61-4.71,3.89A13.18,13.18,0,0,1,156.83,162.05Z" transform="translate(-14.08 -50.95)"/><path d="M146.6,74.58a31.55,31.55,0,0,0,2.8,3.25,32.79,32.79,0,0,0,3.14,1.91,7,7,0,0,1,1.94,1.76c1.44,2.19,2.78,4.45,4.1,6.73.69,1.2,1.18,2.52,1.86,3.73,1.76,3.13,2,6.67,2.6,10.06a20.91,20.91,0,0,1-.2,7.48c-.78,4-2.11,7.78-3.08,11.69a9,9,0,0,1-5.16,6.89,8.16,8.16,0,0,1,.13-2.77c.68-1.59,1.79-3,2.52-4.55a23.13,23.13,0,0,0,2.38-11.08c-.06-1.27.71-2.57.67-3.83-.15-4.52-.27-9.08-2-13.33-.67-1.66-2-3-2.88-4.63-2.09-3.76-4.59-7-8.69-8.85-1.78-.79-3.34-2.07-5.09-3a31.24,31.24,0,0,0-3.37-1c-4.85-1.77-9.83-3-15-2.23-6.48.92-12.51,3.1-17.3,7.77-1.59,1.56-3.07,1.49-5.2.74a29.2,29.2,0,0,1,2-2.3C109.25,73.2,117,70.78,125.57,70a37.5,37.5,0,0,1,13.61,1.51c1.61.45,3,1.58,4.56,2.3a6.61,6.61,0,0,0,1.74.31c-.25-.55-.36-1.25-.77-1.61-4.35-3.83-9.77-4-15.14-4.25a38.52,38.52,0,0,0-14.89,2.1C108.77,72.5,103.15,75,99.34,80.45c-1.15,1.66-3.15.84-5.23.21,2-2.24,3.65-4.87,6-6.66a44.85,44.85,0,0,1,16.55-8.48,50.6,50.6,0,0,1,11.69-1.91,31.25,31.25,0,0,1,14.27,2.94c3.31,1.66,6.73,3.15,9.87,5.09a22.61,22.61,0,0,1,5,4.68,66.32,66.32,0,0,1,6,8A34.74,34.74,0,0,1,167,92c2.15,6.86,1.9,13.89.58,20.86-.75,3.92-2,7.75-3.06,11.6-.85,3-5.18,8.44-7.7,9.74-.63-1.73-1.44-3.14.26-5,4.38-4.79,6.27-10.8,7.3-17.06a41.15,41.15,0,0,0,.19-12.78,34.23,34.23,0,0,0-2-7c-.58-1.59-.89-3.28-1.53-4.84a17.55,17.55,0,0,0-1.77-2.44c-.63-1-1.17-2-1.74-3-.11-.2-.11-.51-.26-.63-1.9-1.49-3.83-3-5.74-4.44-1.16-.91-2.06-2.22-3.69-2.4A10,10,0,0,0,146.6,74.58Z" transform="translate(-14.08 -50.95)"/><path d="M15.85,141.51a12.34,12.34,0,0,0-.72-3.74,27.81,27.81,0,0,1-.57-5.5,50.9,50.9,0,0,1-.45-7,89.69,89.69,0,0,1,1.22-9.48c.24-1.45.87-2.84,1.23-4.28C19,101.87,24.49,94.07,31.8,87.47c3.23-2.92,6.33-6.08,10-8.42,3.23-2.08,7-3.32,10.68-4.7a41.25,41.25,0,0,1,13.85-2.21c4.16-.1,8.34.07,12.51.21a11.65,11.65,0,0,1,2.54.68c.17,1.5-.56,1.79-1.71,1.77-4.14-.06-8.29-.12-12.44-.1a42.86,42.86,0,0,0-20.35,5.22,48,48,0,0,0-9.45,6.13c-4.44,4-8.62,8.28-11.46,13.67-.93,1.78-2.14,3.4-3.15,5.14-2.38,4.13-2.86,8.87-3.88,13.39a45.22,45.22,0,0,0-.92,10.9c.05,2.25,1.18,4.47,1.76,6.73.14.55,0,1.17.06,1.74.63,3.45,1.37,6.86,3.23,9.92.44.71.41,1.7.82,2.43a57.92,57.92,0,0,0,4.75,7.89,95.32,95.32,0,0,0,8.56,9.19,49.66,49.66,0,0,0,5.59,4.07c1.78,1.3,1.88,2.28.22,4.2-2.34-1.43-4.77-2.82-7.1-4.38-1.87-1.25-3.62-2.69-5.42-4-.09-.07-.28-.12-.28-.19-.34-3-3.45-4-4.58-6.54s-2.89-4.8-4.2-7.27a78.25,78.25,0,0,1-4.74-10.37,4.4,4.4,0,0,0-.84-1.07Z" transform="translate(-14.08 -50.95)"/><path d="M78.55,199.89c-3.11-1.74-3.86-4.83-4.88-7.53a55.19,55.19,0,0,1-2.53-9.93,36.28,36.28,0,0,1,.16-14.71A36.93,36.93,0,0,1,80,151.81a23.31,23.31,0,0,1,3.38-2.6l1,4.15c.12.49.26,1,.36,1.48.34,1.69.92,3.12-.69,4.88s-2.27,4.29-3.17,6.55a36.36,36.36,0,0,0-1.9,6.06c-.8,3.93-.12,7.8.91,11.62.76,2.79,1.5,5.59,2.13,8.4a3.88,3.88,0,0,1-.34,2.07,36.72,36.72,0,0,1-1.73,3.71A13.72,13.72,0,0,1,78.55,199.89ZM76.61,172l-.62-.85-2.11,1.46.72,1Zm.71-4.48-.23-.55-3,1.19C75.92,169.48,76.51,169.29,77.32,167.51ZM79,161.37a19,19,0,0,0,1.36-2c0-.06-.76-.75-.94-.67a2.45,2.45,0,0,0-1.23,1.12C78.12,160.1,78.62,160.63,79,161.37Zm-5.23,17.11,2.28-1.36c-.32-.36-.66-1-.94-1C74.12,176.2,73.39,176.73,73.81,178.48Zm2.49,5.78-1.59,1.67c.28.25.72.75.82.69a6.57,6.57,0,0,0,1.5-1.23C77.09,185.32,76.67,184.81,76.3,184.26ZM76,191.05l2-1.57c-.3-.29-.61-.83-.88-.81C76.23,188.74,75.47,189.15,76,191.05Zm3.59,1.21-.66-.67-2,1.46c.31.28.85.84.92.79A21.19,21.19,0,0,0,79.61,192.26Zm-2.5-27.59,1.29-1.38c-.39-.26-.81-.77-1.16-.73s-.82.57-1.23.88Zm-.78,15.94-.66-.45-2.38,1.18c.95.46,1.68,1,1.93.88C75.73,181.9,76,181.17,76.33,180.61Zm6.82-24.86-.36-.73-2.38,1.1.43.85Z" transform="translate(-14.08 -50.95)"/><path d="M65,109.9c-1.43.9-2.4,1.59-3.43,2.13-4.12,2.17-6.2,5.8-7.46,10.08A22.3,22.3,0,0,0,55,136.56a4.45,4.45,0,0,1-.77,4.9c-.67.8-1.37,1.57-2.22,2.54-2.67-3.85-5.3-7.29-6.23-11.75a22.23,22.23,0,0,1-.13-10.13c2.49-9.74,8.54-16.15,18.2-19a7.54,7.54,0,0,1,2.27,0,4.59,4.59,0,0,1-.15,1.5,1.84,1.84,0,0,1-2,1.11,3,3,0,0,0-2.41,1.45c-.38,1.08.52,2,1.77,2.21C63.74,109.45,64.12,109.62,65,109.9Zm-12.92,4.52c.19.22.61,1.17,1.23,1.33,1.19.3,3-1.19,2.77-2.19-.18-.78-.77-1.89-1.4-2.06C53.37,111.13,52.16,112.36,52.12,114.42ZM49.67,134c2.3.06,2.23-1.15,2.3-2.2a1.84,1.84,0,0,0-1.91-2.09,1.73,1.73,0,0,0-2,2.12C48.3,132.76,49.29,133.51,49.67,134Zm1.88-8c0-2-.82-2.72-2.13-2.68-1,0-2.06.6-1.69,1.78.27.88,1.05,2,1.79,2.21S51.06,126.3,51.55,126ZM57.38,112c1.26-.49,3.09-.17,2.75-2.3a2.07,2.07,0,0,0-2.56-1.62C56.27,108.58,56.21,109.45,57.38,112Zm-4.55,8c-.14-1.66-.37-2.87-1.85-2.56-.69.14-1.74,1-1.73,1.52,0,1.1.65,2.28,2.09,2C52,120.9,52.49,120.23,52.83,120Zm1,18.83c-.78-1.1-.23-2.73-2.14-2.5-1.16.14-1.81.81-1.54,1.68a3.58,3.58,0,0,0,1.9,1.83C52.4,140,53.18,139.21,53.81,138.82Z" transform="translate(-14.08 -50.95)"/><path d="M118.64,92.28c-.78-.86-1.68-1.87-2.65-2.93.39-.29.72-.72,1.15-.84,5-1.48,9.84-4.2,15.24-1.55a1.8,1.8,0,0,0,.69.22c6.4.45,9.46,5.09,11.9,10,1.89,3.83,3,8,1.39,12.41a29.86,29.86,0,0,1-1.18,3.72c-.79,1.49-2.42,1.4-3.31-.07-.73-1.23-2-2.32-.66-4.06.45-.58.11-1.82,0-2.75a35,35,0,0,0-.57-5A14.32,14.32,0,0,0,133,91.62a10.73,10.73,0,0,0-5.43-.81C124.58,91.05,121.6,91.77,118.64,92.28Z" transform="translate(-14.08 -50.95)"/><path d="M88.56,92c2.33.5,4.37,1.29,6.38,1.27s3.9-.91,6-1.45c2.11,4.3,5.81,5.87,10.88,4.72a8.69,8.69,0,0,0,2.44,8.3c-2.25,1.52-4.67.69-5.75-2.24-.63-1.7-1.51-2.08-3.11-2.34A6.21,6.21,0,0,1,100.64,97c-.59-1.11-1.53-1.07-2.64-.82a33.82,33.82,0,0,1-5.2.78c-1.14.06-2,0-2.55,1.35-1.08,2.58-3.37,3.65-6,3.93-1.4.15-1.93.83-1.86,2.1a5.87,5.87,0,0,1-2.6,5.07,1.67,1.67,0,0,0-.53,2.54c.62,1.15,1.6,2.19.93,3.93a3.81,3.81,0,0,1-2.71,2.57c-.74-2.23-1.49-4.37-2.14-6.53-.6-2-.54-2,1.19-3.7,2.18-2.14,2.54-4.85,2.15-7.68-.2-1.46.36-1.8,1.63-1.69,3.2.29,5.51-1.38,7.33-3.7C88.27,94.38,88.26,93.07,88.56,92Z" transform="translate(-14.08 -50.95)"/><path d="M85.16,192.88c5-8.78,15.58-15.11,27-13.32-1.39,2.31-2.83,4.68-4.23,7.08a2,2,0,0,1-2.81,1A29.12,29.12,0,0,0,99.68,186c-1.92-.34-2,1.58-2.57,2.67s-.86,2.32-1.49,3.36c-.9,1.47-1.91,2.22-4,1.29-1.51-.68-3.51-.29-5.29-.38C86,193,85.61,192.92,85.16,192.88Z" transform="translate(-14.08 -50.95)"/><path d="M88.49,164c.55.69,1.06,1.42,1.66,2.06,2.33,2.49,4.7,5,6.74,7.1,3.1-1.34,5.7-2.4,8.23-3.6a5.78,5.78,0,0,0,1.84-1.65c.88-1.1,1.65-2.28,2.53-3.53.84,1.48.87,2.38-.58,3.69-1.8,1.64-3.2,3.69-5.63,4.58-1,.38-1.93,1.28-3.17.38-.33-.23-1,.05-1.79.12,1.63,2.88,5.32,1.91,7.2,4.34-2.21.52-4.3.7-6.11,1.5a56.85,56.85,0,0,0-8,4.36,35.33,35.33,0,0,0-4.26,3.79c-.91.83-1.68.62-1.92-.58a80.19,80.19,0,0,1-1.69-9.42,15,15,0,0,1,1.06-5.74c.83-2.42,2-4.73,3-7.08ZM85.9,177.67l.41.1c0,1.07,0,2.15,0,3.22.08,2,1.35,2.64,3,1.55.35-.23.64-.55,1-.78,1.84-1.17,3.69-2.32,5.55-3.47a15.93,15.93,0,0,0,1.41-.78c1.3-1,1.15-1.68-.12-2.62-2.33-1.73-4.61-3.55-6.81-5.45-1.13-1-2.25-.95-2.63.45C87,172.46,86.5,175.08,85.9,177.67Z" transform="translate(-14.08 -50.95)"/><path d="M102.14,133.53c-.14-.41-.15-1-.43-1.18-2.65-1.57-5.51-1.11-8.13-.24-2.29.75-4.61,2-5.58,4.48-.48,1.23-.45,2.65-.81,3.94-.15.52-.73.92-1.27,1.24a14.09,14.09,0,0,1,2.74-10.58c2.43-3.28,5-4.14,8.77-2.76,2.23.81,5.86-.89,6.88-3.05.75-1.6,1.68-2.92,1.49-5-.36-3.73-2.7-5-5.75-5.87-.73-.2-1.45-.42-2.17-.64l-.19-.58,6.87-3.8.56.07c-2.66,4.06.74,5.84,2.78,7.67,2.44,2.19,1.45,4.46.86,6.61a6.84,6.84,0,0,1-3.75,4.82,1.51,1.51,0,0,0-.5,1.36c1,1.57.67,2.41-1.15,2.77a4.71,4.71,0,0,0-1.27.67Z" transform="translate(-14.08 -50.95)"/><path d="M109.77,156.39c-.2.69-.53,1.85-.89,3.15-2.22-4.85-7.31-5.39-11.24-2.94a5.75,5.75,0,0,0-2,5.8,5.69,5.69,0,0,0,4.22,4.22,4.64,4.64,0,0,0,4.79-1.82c.84-1.07.84-3.74-.06-4.34a2.44,2.44,0,0,0-3.42.39,6.52,6.52,0,0,0-.81,2.14c1.08.23,1.65.34,2.21.5,0,0,0,.59-.1.62-.65.21-1.54.69-2,.44a6.42,6.42,0,0,1-2.62-2.45,3.41,3.41,0,0,1,1.36-4.32c3-2.25,6.56-.87,7.68,2.79,1.8,5.89-3.07,8.38-7.22,8.6-4.71.25-9.23-6.72-6.53-10.38,1.18-1.6,2-3.54,3.44-4.86,2.16-2,5.13-1.59,7.81-1.55.82,0,1.64,1.07,2.43,1.68S108.54,155.4,109.77,156.39Z" transform="translate(-14.08 -50.95)"/><path d="M132.16,115.83c2.78-.76,5.47-2.21,8.62-.82-1.69.63-3.07,1.12-4.44,1.64-2.94,1.14-3.4,3.68-3.68,6.38-.33,3,.78,5.29,3.78,5.92a8.27,8.27,0,0,0,5.08-.61,3.56,3.56,0,0,0,2-4c-.12-.45-.62-.81-.95-1.21-.24.46-.67.9-.71,1.37a3.2,3.2,0,0,1-2.45,3,2.62,2.62,0,0,1-3.25-1.46c-.4-1-.92-1.94-1.32-2.93-.79-2,.22-3.27,1.79-4.18a11,11,0,0,1,3.45-1.43,3.2,3.2,0,0,1,2.41.82c3.49,3.49,2.76,8-.67,11-2.18,1.88-4.5.77-6.73.34a11.6,11.6,0,0,1-3.17-1.58c-1.71-1-2-3.31-1.24-6.13a31.87,31.87,0,0,0,.7-4,1.8,1.8,0,0,0-.34-1.16c-1.87-2.47-4.1-4.67-7.07-5.54a6.44,6.44,0,0,1-3.25-1.6c-.72-.77-1.53-1.56-.66-2.61a2.36,2.36,0,0,1,3.22.4c.7,1.48,2,1.87,3.29,2.43A9.6,9.6,0,0,1,132.16,115.83ZM141.7,123l.26-1.14c-1.11-.21-2.28-.74-3.32-.54a2.75,2.75,0,0,0-1.79,2c0,1,.8,2,1.39,2.89.06.08,1.55-.47,1.54-.7a12.78,12.78,0,0,0-.73-2.8l1-.84Z" transform="translate(-14.08 -50.95)"/><path d="M79.65,227.78c-1.22-1.94.29-4.77-1.91-5.73-.13-2.58-.24-4.88-.36-7.18a7.15,7.15,0,0,1-.11-2.05c1.12-4.25,2.3-8.48,3.5-12.71a1.23,1.23,0,0,1,.73-.66c.16,0,.52.25.66.47,1.13,1.68,2.17,3.42,3.34,5.07a2.22,2.22,0,0,1,0,3.06,48.69,48.69,0,0,0-3.84,4.68,2.85,2.85,0,0,0,.31,2.49c1.27,1.84,2.78,3.51,4.23,5.29Z" transform="translate(-14.08 -50.95)"/><path d="M102.09,133.49c2.29,2,2.38,3.84.56,6.19-.61-.84-1.08-2.14-2-2.55a6.75,6.75,0,0,0-4.1-.49c-3.09.73-5.58,4.39-5.44,7.52a2.58,2.58,0,0,0,.5,1.32c1.72,2.37,5.25,3.35,8.18,2.73a13.17,13.17,0,0,1,4.66.26c.35.05.57,1,.85,1.48-.48.2-1,.61-1.45.57a13,13,0,0,0-9.62,2.78c-1.53,1.24-2.21,3.55-3.21,5.41-.44.81-.74,1.69-1.27,2.94-1.06-2-1.92-3.6-2.86-5.34l1.39-.47c3.91-1.23,5.24-3.92,3.58-7.65-.8-1.81-2-3.42-2.91-5.19a3.88,3.88,0,0,1-.18-2.07c.17-1.39.58-2.75.72-4.14.18-1.86,1.86-1.8,3-2.5,3.09-2,6.38-1.33,9.67-.76Z" transform="translate(-14.08 -50.95)"/><path d="M114.06,107.64c2.13-1.47,3-1.18,3.62.8.12.42.47,1,.82,1.1,1.32.36,1.51,1.25,1.27,2.55.45-.1,1-.32,1-.22,1.4,1.94,3.8,1.7,5.65,2.63s3.32,5.12,2.6,7c-.48,1.24-.83,2.54-1.28,3.8a4.73,4.73,0,0,1-.58.9L124,125c.56-.91,1.12-1.81,1.65-2.72.24-.42.64-.93.55-1.3-.4-1.77-.5-3.87-1.55-5.16-1.25-1.54-3.62-1.75-5.52-1.08a17.7,17.7,0,0,0-4.54,2.82c-1.3,1-1.59,2.34-1.55,4.11.05,2.8-.43,5.55-3.28,5.82a59.21,59.21,0,0,0,1.23-6.58,5,5,0,0,0-2.23-4.76,10.52,10.52,0,0,1-2.56-3,2,2,0,0,1,0-1.75c.92-1.66,5.86-2.76,7.44-1.49,1,.78,2.23,1.45,1.51,2.76s-2.13,1.25-3.39.57l1-1.93-.32-.46a10.77,10.77,0,0,0-2.36.81,1.71,1.71,0,0,0-.76,1.41c.12.48.76.88,1.26,1.18a4.84,4.84,0,0,0,4.61.38c1.12-.49,2.18-1.21,1.92-2.48a11.55,11.55,0,0,0-1.61-3.41C115.26,108.32,114.65,108.08,114.06,107.64Z" transform="translate(-14.08 -50.95)"/><path d="M82.72,233.82c3.15,0,5.93-.13,8.68.12.52.05,1.07,1.62,1.31,2.56.34,1.36.22,2.85.67,4.15a2.58,2.58,0,0,0,2,1.22c2.55,0,5.1-.35,7.64-.4.47,0,1.15.7,1.37,1.23.73,1.72,1.32,3.51,1.9,5.3a11.39,11.39,0,0,1,.24,2.1C96.77,247.21,88.35,243.08,82.72,233.82Z" transform="translate(-14.08 -50.95)"/><path d="M66.66,172.11,53.29,181a18.6,18.6,0,0,1-.57-3.16c.06-2.92.16-5.85.42-8.76a30.28,30.28,0,0,1,1-4.86,1.23,1.23,0,0,1,1.08-.36c.8.49,1.47,1.19,2.25,1.73,2.57,1.81,5.18,3.59,7.77,5.39C65.73,171.3,66.13,171.68,66.66,172.11Zm-9.67.73,2.56-1.72C57.3,170.26,56.82,170.54,57,172.84Z" transform="translate(-14.08 -50.95)"/><path d="M116.92,250.06c1-1.94,2-3.91,3.07-5.8.17-.27,1.06-.26,1.57-.16,1.87.36,3.72.83,5.59,1.22a1.76,1.76,0,0,0,2.24-1.26c.66-1.69,1.47-3.33,2.21-5,.53-1.22,1.09-1.72,2.71-1.28,2,.55,4.26.36,6.8.51-1.88,2.89-4.51,4.45-6.69,6.48a18.71,18.71,0,0,1-8.28,4.12c-2.92.75-6,1.12-8.93,1.65Z" transform="translate(-14.08 -50.95)"/><path d="M59.79,200.22l9.8-12.53,6.06,13.22C70.63,201.11,65.42,201.8,59.79,200.22Z" transform="translate(-14.08 -50.95)"/><path d="M55.83,159.52c.82-2,1.56-4.07,2.49-6s2.06-3.9,3.09-5.86c.94-1.77,1.56-1.79,2.72-.25,2.25,3,4.58,5.85,6.81,8.82a1.43,1.43,0,0,1-.28,1.24c-4.8.91-9.61,1.74-14.42,2.59Zm9.38-6.28c-.86-.34-1.37-.72-1.59-.6a7.08,7.08,0,0,0-1.36,1.27c.3.22.68.67.87.6A13.32,13.32,0,0,0,65.21,153.24Z" transform="translate(-14.08 -50.95)"/><path d="M67.85,187c-3,3.69-5.7,7.13-8.51,10.52-.37.45-1.25,1-1.6.82a2.8,2.8,0,0,1-1.23-1.63c-1.16-3.58-2.22-7.19-3.33-10.79a1.58,1.58,0,0,1,1.76-1.9C59.11,185,63.27,186,67.85,187Zm-8,1.57-1.8,1.9c.41.26.95.82,1.21.71A7.48,7.48,0,0,0,61,189.91Z" transform="translate(-14.08 -50.95)"/><path d="M57,136.36c-4.74-9.66-.06-21.56,6.51-23.31.22,1.76.35,3.51.69,5.22.4,2.09,1,4.14,1.49,6.21.27,1.09.6,2.11-.36,3.13-2.52,2.69-5,5.45-7.43,8.16A4.12,4.12,0,0,1,57,136.36Zm4.54-19a6.46,6.46,0,0,0-1.59,1c-3.13,3.78-2.94,8.13-2,12.75,2.11-.81,3.3-2.6,4.79-4.09a2.67,2.67,0,0,0,.72-3.1C62.9,121.9,62.33,119.87,61.58,117.34Z" transform="translate(-14.08 -50.95)"/><path d="M156,176.67c.29,1.37.66,2.74.84,4.13a22.74,22.74,0,0,1,.26,4.28c-.34,6-1.9,11.45-6.59,15.58-.7.62-1.38,1.3-2.31.36s-.41-1.63.15-2.52c1.54-2.48,3.31-4.89,4.32-7.58a21.58,21.58,0,0,0,.83-7,17.7,17.7,0,0,0-1.07-7.1c-.38-1,0-2.23.14-3.34,0-.33.51-.59.79-.89.53.51,1.49,1,1.51,1.52,0,.91.16,1.22,1.09,1.23.14,0,.27.79.41,1.21Z" transform="translate(-14.08 -50.95)"/><path d="M146.37,204.72c2.46,1.4,1.63,3.7,2,5.57a29.46,29.46,0,0,1,.49,5.7,45.7,45.7,0,0,1-.67,6.6,35.16,35.16,0,0,1-1.33,5.23c-.37,1.13-1.06,1.44-1.83.16-1-1.61-2-3.14-2.9-4.79a2.15,2.15,0,0,1,.32-1.85c1-1.21,2.12-2.28,3.21-3.4.9-.94,1.17-1.77.15-2.94a15.57,15.57,0,0,1-2.11-3.54,3,3,0,0,1,.61-4A18.21,18.21,0,0,0,146.37,204.72Z" transform="translate(-14.08 -50.95)"/><path d="M105.75,140a5.9,5.9,0,0,1-.52-2c.43-4.67,3.09-7.77,7.27-9.55a18.89,18.89,0,0,1,12.64-.64c2.94.81,5.15,3.13,7,5.65a8.32,8.32,0,0,1,1,1.7,12.38,12.38,0,0,1,.4,1.75c-.75-.25-1.49.57-2.35-.7-5.56-8.3-16.27-8.83-22.92-.72a9.82,9.82,0,0,0-1.08,2.63c-.25.61-.49,1.23-.73,1.84Z" transform="translate(-14.08 -50.95)"/><path d="M136.46,108.48c1.36-2.84-1.69-9.93-4.85-11.35a10.25,10.25,0,0,0-7.25-.68,1.87,1.87,0,0,1-2.34-.66c-.21-.28-.52-.49-.74-.77s-.65-.88-1-1.33a6,6,0,0,1,1.84-1c1.23-.17,2.52.06,3.76-.1,5.47-.69,9.05,2,12,6.26,1.33,1.92,1,4.07,1.46,6.11.23,1,1,2,0,3.17S137.56,109.52,136.46,108.48Z" transform="translate(-14.08 -50.95)"/><path d="M60.58,203.11h13.9a14.07,14.07,0,0,1-.79,2.06c-1.59,2.72-3.19,5.42-4.84,8.1-.74,1.18-1.55,1.59-2.54.09-1.53-2.32-3.28-4.5-4.75-6.86A13.51,13.51,0,0,1,60.58,203.11ZM69,207.39c-.67-.5-1.14-1-1.31-.95a10.77,10.77,0,0,0-1.73,1.24c.36.3.78.92,1,.85A8.27,8.27,0,0,0,69,207.39Z" transform="translate(-14.08 -50.95)"/><path d="M65.78,141.67c1.18-3.42,7.68-9.53,9-9.22,1,2.31,2,4.27,2.7,6.32A48.07,48.07,0,0,1,79,144.08c0,.19-.52.79-.7.75C74.14,143.82,70,142.75,65.78,141.67Zm8.77-2.74c-.61-1.51-1.43-1.72-2.24-1.05-.32.27-.17,1.11-.23,1.69Z" transform="translate(-14.08 -50.95)"/><path d="M57.62,162c4.62-1.43,9.43-2,14.42-2.95a5.65,5.65,0,0,1,0,1.51c-1,2.87-2,5.73-3,8.59-.34,1-1.94.72-3.3-.31-2.71-2.07-5.5-4-8.25-6Z" transform="translate(-14.08 -50.95)"/><path d="M80.66,148.57c-1.89,2.16-3.82,4.41-5.81,6.61-.5.55-1,.85-1.74-.05-2.31-3-4.75-5.86-7.1-8.81a3.56,3.56,0,0,1-.38-1.28,4.6,4.6,0,0,1,1.44-.33,82.37,82.37,0,0,1,8.75,1.49A25,25,0,0,1,80.66,148.57Z" transform="translate(-14.08 -50.95)"/><path d="M148,139.2c2,1.78,3.45,1.46,6.59-1.37a9.07,9.07,0,0,1-.2,2.76c-.89,1.9-4,2.74-5.88,1.78a5.76,5.76,0,0,0-1.36-.4,3.06,3.06,0,0,1-2.48-3.46c.07-.42,0-1.21-.12-1.27-.59-.18-1.62-.4-1.83-.12-1.35,1.81-2.76.29-4.21.07.78-.41,1.57-.79,2.33-1.24,2.14-1.28,4.5-2.2,6.15-4.27a2.87,2.87,0,0,1,3.58-.93c1.42.74,2.92,1.57,3.06,3.56a5,5,0,0,1-3.4,4.5C149.56,139,148.93,139,148,139.2Zm2.87-1.6c.54-.94,1.38-1.81,1.2-2.21a3.7,3.7,0,0,0-2-1.95,3.09,3.09,0,0,0-2.44,1,8.73,8.73,0,0,0-1.43,2.84c-.1.25.22.67.34,1a4.49,4.49,0,0,0,.85-.69c.59-.77,1.12-1.58,1.86-2.66Z" transform="translate(-14.08 -50.95)"/><path d="M85.51,131.79c.71-3.34,1.67-6,5-6.94,1.24-.35,1.13-1.32.9-2.29-.32-1.37-.59-2.72.87-3.51a24.68,24.68,0,0,0,2.28,4.36,4.47,4.47,0,0,0,8-1.58c.3-1.13-.46-2.72-1.14-3.85-.26-.44-1.8-.49-2.53-.18A2.91,2.91,0,0,0,97,120.87a4.36,4.36,0,0,1,.8-.44c.65-.11,1.31-.19,2-.28.06.8.41,1.74.1,2.33a2.29,2.29,0,0,1-2,.81,4.13,4.13,0,0,1-2.8-6,3.15,3.15,0,0,1,3.68-1.86,7.84,7.84,0,0,1,4.89,3.41c1,1.53,0,5.47-1.83,6.81a4.45,4.45,0,0,1-4.52.75c-4.14-1.36-6.28-.72-9.29,2.61Z" transform="translate(-14.08 -50.95)"/><path d="M56,181.85,68.42,173c0,1.65-.08,2.75,0,3.84a30.27,30.27,0,0,0,.7,5c.53,2,.08,2.69-1.87,2.42-2.43-.33-4.88-.53-7.29-1A27.41,27.41,0,0,1,56,181.85Z" transform="translate(-14.08 -50.95)"/><path d="M105.86,107.61c-1.7.41-3.09.91-4-1.15a3.8,3.8,0,0,0-2.46-1.54c-2.51-.57-5.17-1.21-7.54.26a10.38,10.38,0,0,0-3.47,3.41c-.88,1.47-1,3.36-1.75,5-.29.65-1.19,1-2,1.65-.87-4.9,2.78-12.26,8.52-13.63A11.37,11.37,0,0,1,105.86,107.61Z" transform="translate(-14.08 -50.95)"/><path d="M144.32,143l5.81,5.31-13.84,9.86-.62-.54Z" transform="translate(-14.08 -50.95)"/><path d="M150.11,176.56c.61,2,1.52,3.84,1.68,5.74a20.6,20.6,0,0,1-3.38,13.23c-.34.53-1.08.8-1.63,1.19-.28-.57-.52-1.16-.83-1.71a8.92,8.92,0,0,0-.73-1c2.49-3.63,2.95-7.67,2.38-11.87C147.29,179.91,147.46,178,150.11,176.56Z" transform="translate(-14.08 -50.95)"/><path d="M129,156.35c-5.19-1.64-9.83-4.3-14.73-7.28,1.49-1.63,2.75-3,4-4.42.83-.9,1.43-.66,2.11.29,2.47,3.46,5,6.88,7.53,10.3A12.21,12.21,0,0,0,129,156.35Z" transform="translate(-14.08 -50.95)"/><path d="M152.21,128.78a25,25,0,0,0-5,.45c-1,.27-1.65,1.44-2.55,2.07-1.3.9-2.67,1.7-4.06,2.48-1.54.86-3.13,1.65-4.7,2.47-.45-.88-.86-1.64-1.23-2.43-.44-.95.28-1.87,1.58-2s2.58-.07,3.84-.29a7.4,7.4,0,0,0,5.42-4c.7-1.35.62-3.09.87-4.66.07-.4,0-.82.08-1.24C148.48,122,152,126.71,152.21,128.78Z" transform="translate(-14.08 -50.95)"/><path d="M138.27,165c4.37,2,8.8,4,12.82,7.12-.94,2.16-2.83,3.32-4.44,4.38l-2.28-1.4c-.2-.12-.51-.15-.62-.32q-2.88-4.6-5.72-9.23Z" transform="translate(-14.08 -50.95)"/><path d="M129.62,165.35c-.87,1.54-1.73,3.09-2.61,4.63-1.27,2.23-2.53,4.46-3.86,6.66-1,1.67-2.28,1.88-3.77.66-.55-.45-.93-1.11-1.47-1.57a17.5,17.5,0,0,0-2-1.23c4.64-3.3,9-6.39,13.39-9.49Z" transform="translate(-14.08 -50.95)"/><path d="M127.35,161.54l-15,4.79a10.57,10.57,0,0,1-1.12-6c0-.36,1.07-.85,1.61-.83,2.42.13,4.84.34,7.24.67S124.66,161,127.35,161.54Z" transform="translate(-14.08 -50.95)"/><path d="M126.48,159.12c-2.09-.11-4.09,0-6.23-.88-1.81-.73-4.09-.31-6.16-.33-2.26,0-2.74-.61-2.17-2.78.09-.34.2-.68.29-1,.87-3.23.93-3.22,3.92-1.52,2.78,1.59,5.62,3,8.42,4.58.76.42,1.44,1,2.16,1.45Z" transform="translate(-14.08 -50.95)"/><path d="M154.59,164.07c-.53,1.69-1,3.05-1.38,4.41s-1.54,1.39-2.44.89c-3.72-2-7.36-4.22-11-6.34l.13-.69c2.34.21,4.68.37,7,.64S151.66,163.65,154.59,164.07Z" transform="translate(-14.08 -50.95)"/><path d="M134.73,139c-.42,4.2-.78,8-1.21,11.71a5.76,5.76,0,0,1-.77,1.58c-.52-.61-1.58-1.42-1.45-1.81.64-1.86-1.11-2.9-1.27-4.5a17.13,17.13,0,0,0-1.52-4.74c-.66-1.57-.47-2.13,1.21-2.22S133,139,134.73,139Z" transform="translate(-14.08 -50.95)"/><path d="M86.39,91.42c-.09,3.07-2.72,5.7-5.19,5.42a13.8,13.8,0,0,1-4.68-1.46A2.54,2.54,0,0,1,76.39,91c2.09-1.48,4.24-2.89,6.43-4.22a1.8,1.8,0,0,1,2.8,1.35C85.88,89.43,86.22,90.69,86.39,91.42Zm-6.25,3.24c2.25-.06,4.33-1.86,4.57-3.45.27-1.76-1-3-2.64-2.34a17.37,17.37,0,0,0-4,2.47,1.89,1.89,0,0,0,0,1.87A9.36,9.36,0,0,0,80.14,94.66Z" transform="translate(-14.08 -50.95)"/><path d="M103,89.41c.17-1.27.31-2.4.49-3.52a1.33,1.33,0,0,1,1.87-1.14c2.58,1,5.19,2,7.19,4.09,1.74,1.79,1.51,3.87-.69,5.17s-4.46.69-6.57-.17C103.38,93,103.37,91,103,89.41Zm1.72,0-.46.14c.59,1,1,2.24,1.81,2.76a3.63,3.63,0,0,0,4.36-.14,2.1,2.1,0,0,0,.28-2,16.58,16.58,0,0,0-3.92-2.62C105.38,87,104.42,87.58,104.75,89.46Z" transform="translate(-14.08 -50.95)"/><path d="M115.18,82.47l1.58,4.16-.66.36c-1.22-1.3-2.46-2.58-3.66-3.9-.35-.39-.58-.91-.92-1.31-1.7-2-1.71-2,1-3.64.48.94.93,1.88,1.44,2.79.12.22.43.34.66.5.18-.26.56-.56.51-.75-.26-1-.63-1.9-1.08-3.19L117.39,76c1,3.29,1.93,6.34,2.84,9.35-1.87,1-1.94-.72-2.66-1.3S117.09,81.64,115.18,82.47Z" transform="translate(-14.08 -50.95)"/><path d="M100.92,85.78c-.08,4-3.61,6.19-7.59,5.13-2.8-.76-3.62-2.64-4.29-5a1.29,1.29,0,0,1,1.1-1.78,69.66,69.66,0,0,1,8.5-.92C100.66,83.18,101,83.77,100.92,85.78Zm-2.4-.7c-2,0-3.91-.06-5.8,0-.49,0-1.36.46-1.36.72,0,.83,0,2.06.52,2.41,1.31.88,2.75,1.77,4.57.89A3.42,3.42,0,0,0,98.52,85.08Z" transform="translate(-14.08 -50.95)"/><path d="M125.93,140.13c1.19,3,2.32,5.71,3.29,8.45a41.92,41.92,0,0,1,1.19,4.76c.06.25-.1.55-.19,1a37.23,37.23,0,0,1-8.11-10.46,2.21,2.21,0,0,1,.58-2A16.54,16.54,0,0,1,125.93,140.13Z" transform="translate(-14.08 -50.95)"/><path d="M144.61,178.28a38.66,38.66,0,0,1-4.07,1.83,1.75,1.75,0,0,1-1.57-.65c-1.23-4.27-3.4-8.28-3.63-12.83,0-.1.08-.21.29-.71Z" transform="translate(-14.08 -50.95)"/><path d="M151.35,150.08l1.81,5.3c-4.83,1.23-9.16,3.49-14.49,3.19C143.12,155.68,146.76,152.16,151.35,150.08Z" transform="translate(-14.08 -50.95)"/><path d="M41.25,112.69a3.31,3.31,0,0,1-3.53-3.29c-.16-1.7,2.44-4.35,4.33-4.42,1.67-.07,4,2,4.11,3.68C46.29,110.74,44.22,112.44,41.25,112.69Z" transform="translate(-14.08 -50.95)"/><path d="M122.41,75.72l1.45,8.67-.47.46c-.52-.26-1.36-.39-1.5-.78-.82-2.24-1.42-4.55-2.21-6.8-.52-1.47.31-2,1.44-2.19a42.39,42.39,0,0,1,5.84-.53c1.79,0,1.3,1.74,1.17,2.44a45.55,45.55,0,0,1-1.8,5.83l-.64.06c-.48-2-.91-4.07-1.48-6.08-.17-.58-.76-1-1.15-1.58Z" transform="translate(-14.08 -50.95)"/><path d="M77,102.3c-.27,4-2.63,6.29-6.21,5.91C68.42,108,67.14,106.15,68,104a53.74,53.74,0,0,1,3-6.23c.89-1.6,3-1.4,4.29.51A23.34,23.34,0,0,1,77,102.3Zm-5.6,3.53c2.46,0,4.09-1.44,3.81-3.8-.11-.9-1.14-1.81-2-2.41-.25-.18-1.42.54-1.85,1.09a13.56,13.56,0,0,0-1.47,2.83C69,105.6,69.18,105.83,71.4,105.83Z" transform="translate(-14.08 -50.95)"/><path d="M67.21,122.3c-1.76-2.64-1.42-5.48-1.38-8.2,0-2.12,4.2-3.53,6.22-2.26a6.38,6.38,0,0,1,2.55,6.22,5.29,5.29,0,0,1-4.33,3.84C69.29,122.12,68.26,122.17,67.21,122.3Zm3-8.46c-2.13,0-3.56.9-3.25,2.35s.81,3.24,1.85,3.85c1.19.72,4.21-2.08,4.25-3.52C73.14,114.83,72.08,113.83,70.25,113.84Z" transform="translate(-14.08 -50.95)"/><path d="M98.2,143v-2.34a1.88,1.88,0,0,0-.74.11c-.68.38-1.32.83-2,1.25.68.8,1.2,1.95,2.07,2.34,2.24,1,3.82-.23,5.29-2.67.18,1.59.3,2.6.43,3.73-2.43.59-4.59,2-7.16,1a5.45,5.45,0,0,1-2.67-3.89c0-1.77,1.41-4.28,2.67-4.73a3.62,3.62,0,0,1,4.06,2.06C100.69,141.74,100.19,142.61,98.2,143Z" transform="translate(-14.08 -50.95)"/><path d="M117.28,92.67c2,2.92,3.57,5.27,5.17,7.61a1.39,1.39,0,0,1-.34,2.14c-1.65,1.4-4.74,1.91-6.17.7-1.93-1.63-3.14-3.59-1.68-6.43A31.28,31.28,0,0,1,117.28,92.67Zm2.09,8.65c.69-1.9.17-3.32-1.42-4.12a2,2,0,0,0-1.86.56,3.34,3.34,0,0,0-.28,2.57C116.51,101.87,117.89,102.07,119.37,101.32Z" transform="translate(-14.08 -50.95)"/><path d="M135.11,154c.66-5.09,1.24-9.61,1.88-14.5l5.37,1.15c1,1.48-.49,2.14-1,3C139.4,147,137.38,150.3,135.11,154Z" transform="translate(-14.08 -50.95)"/><path d="M127.53,164c-2.75,2-5.47,4-8.23,5.9a36.15,36.15,0,0,1-3.63,2.28c-1,.53-1.87.47-2-1a2.33,2.33,0,0,0-.45-1.12c-.91-1.27-.61-2.12.85-2.54,3.32-1,6.62-2,9.94-3,1.08-.32,2.18-.57,3.27-.85Z" transform="translate(-14.08 -50.95)"/><path d="M117.67,122.86c1-2.29,1-2.26,2.6-1a1.68,1.68,0,0,0,1.44.26c.38-.17.83-.92.72-1.25a2.58,2.58,0,0,0-1.22-1.58c-1.46-.53-3-.57-4.15.77-1,1.16-1.52,2.45-.46,3.92a3.41,3.41,0,0,1,.21,1.2l-2.44.45a35,35,0,0,1,.48-5.39c.51-2.06,2.41-2.91,4.22-3.56,1.57-.57,2.69.27,4,1.35a3.68,3.68,0,0,1-2.76,6.36C119.34,124.25,118.55,123.41,117.67,122.86Z" transform="translate(-14.08 -50.95)"/><path d="M38,122.4c-1.42,0-3.21-2.15-3.24-3.88,0-1.08,2.32-3.94,3.25-4a4.23,4.23,0,0,1,4,4.09A3.9,3.9,0,0,1,38,122.4Z" transform="translate(-14.08 -50.95)"/><path d="M40.19,129.07c.15,2.33-.86,3.45-3.13,3.57-1.61.08-4-1.28-4.05-3s1.81-4.25,3.52-4.33C38.82,125.18,40,126.43,40.19,129.07Z" transform="translate(-14.08 -50.95)"/><path d="M48.78,105.32c-2.24,0-3.25-.82-3.22-2.47,0-2.42,2.15-4.68,4.35-4.64,1.58,0,2.75,1.69,2.7,3.85S51.18,105.37,48.78,105.32Z" transform="translate(-14.08 -50.95)"/><path d="M131.24,168.77c-.47,3.69-.91,7.38-1.46,11.06,0,.26-.79.45-1.24.59-.19.06-.45-.13-.68-.18-3.88-.84-3.87-.83-2.06-4.09.8-1.45,1.48-3,2.36-4.38.73-1.16,1.67-2.19,2.51-3.28Z" transform="translate(-14.08 -50.95)"/><path d="M47.77,147.76c0,1.54-2.29,3.54-4.17,3.55s-2.85-1.39-2.87-4.39a3.24,3.24,0,0,1,3.15-3.07A4,4,0,0,1,47.77,147.76Zm-2.5-.85-.56-.72-1.84,1.31.76.92Z" transform="translate(-14.08 -50.95)"/><path d="M65.78,98.26c-1.84,0-3.73-1.64-3.66-3.15.09-2.17,1.52-3.92,3.17-3.87,2.39.06,4.29,1.26,4.31,2.71C69.64,96.41,68,98.28,65.78,98.26Zm.81-4.88-2.48,1.21c.24.35.49,1,.71,1C65.83,95.53,66.58,95.06,66.59,93.38Z" transform="translate(-14.08 -50.95)"/><path d="M39.06,142c-1.76,0-3.94-2-3.94-3.58a3.3,3.3,0,0,1,3.16-3.48A4.19,4.19,0,0,1,42,138.68,3.43,3.43,0,0,1,39.06,142Z" transform="translate(-14.08 -50.95)"/><path d="M133.71,170c.58,1.67,1.21,3.33,1.73,5a47,47,0,0,1,1.27,5c.08.41-.45.93-.71,1.39,0,0-.12,0-.18,0-3.16.66-4.25-.48-3.83-4.1.25-2.18.59-4.35.91-6.52a3.58,3.58,0,0,1,.27-.65Z" transform="translate(-14.08 -50.95)"/><path d="M81.87,144.61l-5.5-12.74c2.24.8,4.17,1.4,6,2.22.36.16.52,1.17.48,1.76-.19,2.61-.48,5.21-.74,7.81A7.18,7.18,0,0,1,81.87,144.61Z" transform="translate(-14.08 -50.95)"/><path d="M89.25,209.79c-.31.48-.61,1-1,1.48-1.62,2.2-1.54,2.62.14,4.86a2.56,2.56,0,0,1,.28,2.29c-.58,1-1.28.14-1.86-.38-1.06-.95-2.19-1.82-3.23-2.79a1.68,1.68,0,0,1-.14-2.65c.81-.88,1.52-1.85,2.3-2.76C87.4,208,87.4,208,89.25,209.79Z" transform="translate(-14.08 -50.95)"/><path d="M89.16,113.67c0-5.56,3.63-8.14,7.83-7.14a12.19,12.19,0,0,1,3.08,1.4c.41.24.62.82.93,1.24-.81.22-1.84.87-2.39.59-3.58-1.86-5.72-1.26-7.68,2.33C90.63,112.64,89.94,113,89.16,113.67Z" transform="translate(-14.08 -50.95)"/><path d="M104.88,192.42a12.35,12.35,0,0,1-1.82-.61c-1.84-1-3.19-.33-3.5,1.77a2.26,2.26,0,0,1-.9,1.54,1.62,1.62,0,0,1-1.57-.34,2.36,2.36,0,0,1,.14-1.75c.56-1.39,1.33-2.69,1.89-4.09a1.4,1.4,0,0,1,2.11-.93c1.34.51,2.74.91,4,1.54A1.71,1.71,0,0,1,106,191C105.88,191.6,105.22,192,104.88,192.42Z" transform="translate(-14.08 -50.95)"/><path d="M70.39,214.39c2.28-3.66,4-7.69,6.88-11.1-.56,3.47-1,6.7-1.63,9.89a2.26,2.26,0,0,1-1.4,1.4,21.29,21.29,0,0,1-3.5.36Z" transform="translate(-14.08 -50.95)"/><path d="M57.28,100.8c-1.65,0-3.28-2.1-3.26-4.21a3.07,3.07,0,0,1,2.84-2.68,3.69,3.69,0,0,1,3.77,3.87A3.12,3.12,0,0,1,57.28,100.8Zm1.34-3.61-.29-.89-2.15.59a7.68,7.68,0,0,0,.43,1C57.29,97.72,58,97.44,58.62,97.19Z" transform="translate(-14.08 -50.95)"/><path d="M147.74,98.49c-.77-1.33-.41-2.18,1-2.83q2.92-1.36,5.73-3c1.29-.73,1.76.31,2,1s1.62,2.09-.07,2.67c-2.63.91-5.37,1.5-8.07,2.2C148.11,98.64,147.92,98.54,147.74,98.49Z" transform="translate(-14.08 -50.95)"/><path d="M130.4,236.79c-.77,2.11-1.4,4.16-2.27,6.09a1.75,1.75,0,0,1-2.68.8c-1.06-.56-2.28-.84-3.33-1.42-.54-.3-.89-1-1.32-1.47.51-.31,1-.83,1.53-.87a4.56,4.56,0,0,1,2.44.36c1.44.76,2.11.22,2.55-1.1a5.14,5.14,0,0,0,.46-1.35C127.8,236,128.81,236.13,130.4,236.79Z" transform="translate(-14.08 -50.95)"/><path d="M146.34,94.65l-1.05-1.56,6.07-5.58c1.3-1.2,2,.37,2.64.86a2.52,2.52,0,0,1-.18,2.36C151.43,92.18,148.88,93.36,146.34,94.65Z" transform="translate(-14.08 -50.95)"/><path d="M88.13,153.81l-2.77-1.67c.33-.67.69-1.56,1.18-2.38,1.26-2.1,2.07-2.09-.16-4.28l1.69-.54c.81,1.55,1.17,3.05,2.11,3.87,1.37,1.2.9,2.44.41,3.48-.42.88-1.53,1.44-2.34,2.15Z" transform="translate(-14.08 -50.95)"/><path d="M103.41,238.09v1.84c-2.71,0-5.39,0-8.06,0-.3,0-.8-.56-.84-.9-.14-1.35-.14-2.71-.17-4.07,0-1.18.72-1.72,1.71-1.48.47.11.79,1,1.1,1.54.09.16-.05.46-.08.7-.31,2.55-.21,2.61,2.43,2.43C100.72,238,101.94,238.09,103.41,238.09Z" transform="translate(-14.08 -50.95)"/><path d="M153.86,157.35a7.32,7.32,0,0,1,.56,1.72c.09,2.31-.52,2.86-2.85,2.57-2.58-.33-5.16-.69-7.74-1l-.06-.57Z" transform="translate(-14.08 -50.95)"/><path d="M77.9,129.11l7.29-3.53.38.47c-.69,1.8-1.34,3.61-2.09,5.38-.14.33-.83.77-1,.68-1.49-.65-2.93-1.43-4.39-2.17C78,129.67,78,129.39,77.9,129.11Z" transform="translate(-14.08 -50.95)"/><path d="M157.93,98v3.31c-2.88.37-5.65.74-8.43,1-.28,0-.89-.41-.86-.51.1-.43.3-1.06.63-1.18,2.13-.78,4.3-1.46,6.47-2.14C156.36,98.33,157,98.22,157.93,98Z" transform="translate(-14.08 -50.95)"/><path d="M138.84,219.49a3,3,0,0,1,.36-.76c1.52-1.6,3.06-3.14,1.1-5.49-.29-.36,0-1.19,0-1.8a8.19,8.19,0,0,1,1.54.93,9,9,0,0,1,1.34,1.65c1.53,2.28,1.46,2.81-.5,4.67-.31.28-.72.51-.9.85C140.82,221.37,139.89,220.63,138.84,219.49Z" transform="translate(-14.08 -50.95)"/><path d="M140.82,88.16c-.28-3.24,1.69-5.68,3-8.53l3.37,2.13c-2.06,2.38-4,4.58-5.87,6.79Z" transform="translate(-14.08 -50.95)"/><path d="M128.57,82.36l1.2-7.49c.41,0,.77,0,1.12,0,2.66.12,3.13,1,1.79,3.24-.12.21-.37.4-.37.61C132.21,81,131.1,82.35,128.57,82.36Z" transform="translate(-14.08 -50.95)"/><path d="M142.93,90.25c1.5-1.89,2.89-3.88,4.54-5.63s1.84-1.72,3.52.65c-2.73,1.55-4.18,4.92-7.46,5.7Z" transform="translate(-14.08 -50.95)"/><path d="M154.21,121.84a37.38,37.38,0,0,1-3.86-2.52,29.41,29.41,0,0,1-2.82-3.07l.23-.44a14,14,0,0,1,1.73.39c1.7.61,3.4,1.23,5.06,1.93C156.41,118.9,156.27,120.09,154.21,121.84Z" transform="translate(-14.08 -50.95)"/><path d="M151.27,108.53c1.91,0,3.82,0,5.73,0,1.29,0,1.32.75,1.2,1.66s-.31,1.77-1.66,1.4c-1.83-.5-3.72-.81-5.55-1.34A8.27,8.27,0,0,1,149.1,109l2-1.08Z" transform="translate(-14.08 -50.95)"/><path d="M148.71,105.78c.51-.61.81-1.3,1.22-1.37,2.24-.39,4.5-.66,6.76-.91,1.07-.12,1.87.1,1.84,1.51s-.89,1.6-1.91,1.52C154.18,106.34,151.75,106.07,148.71,105.78Z" transform="translate(-14.08 -50.95)"/><path d="M94.5,214.3a16.9,16.9,0,0,1-1.81,1.56,3.09,3.09,0,0,1-4.39-1.63c-.48-1.47.79-2,1.59-2.42a3,3,0,0,1,2.32.45A14.55,14.55,0,0,1,94.5,214.3Z" transform="translate(-14.08 -50.95)"/><path d="M110.89,169.82c1.37,1.36,1.38,1.92-.11,3.25-.62.56-1.19,1.18-1.79,1.76a3.1,3.1,0,0,1-3.85.25c-1.15-.64-.13-1.21.49-1.64Z" transform="translate(-14.08 -50.95)"/><path d="M147.69,112.78c1.46-.79,8.49.15,9.21,1.31a2.19,2.19,0,0,1-.19,1.93,1.72,1.72,0,0,1-1.59.46C152.65,115.35,150.25,114.07,147.69,112.78Z" transform="translate(-14.08 -50.95)"/><path d="M137.52,112c-3,1.36-3.2,1.2-4.91-.49a24.36,24.36,0,0,0-3.49-2.33,7.57,7.57,0,0,1-2.07-2C131.08,107.5,133.71,110.48,137.52,112Z" transform="translate(-14.08 -50.95)"/><path d="M138.2,85.85c-1.66-2.22,0-4,.41-5.78.35-1.48,1.4-2.47,3.54-1.58C140.68,80.76,140.51,83.7,138.2,85.85Z" transform="translate(-14.08 -50.95)"/><path d="M127.55,193.93c0,.3,0,.6,0,.9,0,3.44,0,3.44-3.79,4.54a33.36,33.36,0,0,1-.25-3.81c0-.35.67-.85,1.11-1a29.08,29.08,0,0,1,3-.59Z" transform="translate(-14.08 -50.95)"/><path d="M105.16,194.67c-.36,1.71,0,3.52-1.87,3.43a2.28,2.28,0,0,1-2.38-2.41c.14-1.64,1.19-3,2.32-2.61C104.13,193.36,105.46,193.58,105.16,194.67Z" transform="translate(-14.08 -50.95)"/><path d="M122.58,233.33c2.85,0,4,1.37,3.21,3.88-.16.5-1,1.23-1.32,1.15-1-.26-2.63-.1-2.42-1.94C122.17,235.43,122.38,234.45,122.58,233.33Z" transform="translate(-14.08 -50.95)"/><path d="M69.93,217a41.49,41.49,0,0,1,5-.46c.28,0,.75,1.24.76,1.91a3.09,3.09,0,0,1-.74,2.18c-.35.28-1.52-.06-2-.47A31.07,31.07,0,0,1,69.93,217Z" transform="translate(-14.08 -50.95)"/><path d="M100.44,236.18c-.57-.48-1.56-.9-1.63-1.45a2.63,2.63,0,0,1,2.91-2.83c1.52,0,1.41,1.39,1.42,2.27C103.14,235.65,102,235.9,100.44,236.18Z" transform="translate(-14.08 -50.95)"/><path d="M135.6,76.16l2.27.73c-.74,1.91-1.49,3.81-2.23,5.72-1.62-.31-2.07-1.27-1.44-2.64C134.75,78.8,135.1,77.55,135.6,76.16Z" transform="translate(-14.08 -50.95)"/><path d="M105.91,141.59c1.41,3.44,2.94,7.14,4.46,10.84a6.33,6.33,0,0,1-3.79-5.08C106.29,145.39,106.12,143.42,105.91,141.59Z" transform="translate(-14.08 -50.95)"/><path d="M137.48,213.13c.68,1.09,1.53,1.86,1.54,2.64,0,.58-1.24,1.77-1.62,1.66a10.15,10.15,0,0,1-2.64-1.8Z" transform="translate(-14.08 -50.95)"/><path d="M149.35,145l5.09-1.88c.66,1,.91,1.8-.29,2.52C152.37,146.71,150.69,146.6,149.35,145Z" transform="translate(-14.08 -50.95)"/><path d="M106.12,82.89l2-1.86,2.93,3.08-.44.52Z" transform="translate(-14.08 -50.95)"/><path d="M93.28,112a3.27,3.27,0,0,1,3.9-1.21C96.64,112.75,95.23,113.2,93.28,112Z" transform="translate(-14.08 -50.95)"/><path d="M153,150.48c-.23-.72-.8-1.59-.58-2.14s1.22-.8,1.88-1.19l.45.38-.92,2.93Z" transform="translate(-14.08 -50.95)"/><path d="M110.42,176.36l2-2.3,1.47,1.09,0,.61-3.32,1.08Z" transform="translate(-14.08 -50.95)"/><path class="cls-1" d="M111.22,226.65a13.16,13.16,0,0,1-.57,4.65l-.5-.1v-9.84c-3,3-6.82,4.08-10.7,4.82a16.73,16.73,0,0,1-3.94.18c-1.31-.06-1.66-1-.74-2.17,2.78-3.45,5.49-7,9.84-8.71.22-.08.43-.18,1.11-.47-.81-.55-1.39-.88-1.88-1.3-1.48-1.29-3-2.57-4.38-3.94a36.21,36.21,0,0,1-2.93-3.38,12.32,12.32,0,0,1-1-1.8c.8-.32,1.64-1,2.38-.9a23.3,23.3,0,0,1,9.94,3.8c.37.24,1,.5,1.26.35s.34-.79.44-1.23c.86-3.75,1.68-7.52,2.63-11.26.09-.37,1-.78,1.52-.7s.75.79,1,1.29a4,4,0,0,1,0,1.36c-1.44-.33-2,.31-2.25,1.81-.27,1.94-.84,3.83-1.36,6l3-.45.17.35c-.48.37-.92,1-1.46,1.07a1.55,1.55,0,0,0-1.26,2,49.52,49.52,0,0,0,1.31,5.1c3.16-4,2.84-8.36,3-12.59,1.53,3.23.69,6.66.86,10.38,3.45-3.3,7.41-4.71,11.52-5.79a3.23,3.23,0,0,1,1-.28c.79.08,1.57.28,2.35.42a6.79,6.79,0,0,1-.53,2.15,16.29,16.29,0,0,1-6.71,5.56c-1.42.67-2.86,1.31-4.5,2.06a20.49,20.49,0,0,1,8.48,6.86c.55.81,1.45,1.39,2,2.2a1.82,1.82,0,0,1,.05,1.65,1.75,1.75,0,0,1-1.55.48,71.86,71.86,0,0,1-7.74-2.48c-1.12-.45-2.84,0-3.32-1.8a12.44,12.44,0,0,0-1.25.22c-.28,2.44-.39,4.78-.86,7a25.05,25.05,0,0,1-1.92,5.34c-.26.56-1.16.89-1.84,1.17-.12.05-.85-.73-.79-1a3.24,3.24,0,0,1,1-1.85c1.66-1.17,2-3,2.17-4.67a65.85,65.85,0,0,0,.15-8.89c0-.48-.58-.94-1.1-1.72a23.88,23.88,0,0,0-2.14,9Zm-15-2.06c5.42.7,14.33-4.08,15-7.81C104.15,215.05,100.4,219.78,96.27,224.59Zm15.09-11a5.83,5.83,0,0,0-.46-.69,52.28,52.28,0,0,0-4.53-4.64,17.75,17.75,0,0,0-4.7-2.62c-.84-.32-2,.05-3,.2-.14,0-.38.82-.25,1a23.53,23.53,0,0,0,3.14,3.17,27,27,0,0,0,4.68,2.93,22.85,22.85,0,0,0,4.31,1.29C110.78,214.29,111.08,213.87,111.36,213.64Zm10.4,5.17.57-.38c-.7-.45-1.37-.93-2.1-1.33a3.52,3.52,0,0,0-1.33-.46,20.76,20.76,0,0,0-2.09,0,7.34,7.34,0,0,0,.24,2.12c1.69,3.92,5.65,4.44,9,5.76,1.07.42,1.7-.4,1.12-1.41a16.48,16.48,0,0,0-2.41-3c-.72-.76-1.48-.75-2.28.13a6.21,6.21,0,0,1-1.84,1l-.5-.61Zm-5-5.08c4.68-.95,9.09-2.4,12.1-6.44A17.28,17.28,0,0,0,116.72,213.73Z" transform="translate(-14.08 -50.95)"/><path class="cls-1" d="M111.22,226.65v.06a20,20,0,0,1,1.88-1.45c.17-.11.59.17.9.27-.12.3-.19.82-.35.85A22,22,0,0,1,111.22,226.65Z" transform="translate(-14.08 -50.95)"/><path class="cls-1" d="M178,120.37a12.32,12.32,0,0,1-2.32,1.35c-.21.06-.64-.59-1-.91a6.87,6.87,0,0,1,1.55-1.14C176.57,119.56,177.07,120,178,120.37Z" transform="translate(-14.08 -50.95)"/><path class="cls-1" d="M177.55,89.76a1.77,1.77,0,0,1-2.23,1.63c-.21,0-.57-1-.42-1.21C175.57,89,176.53,89.34,177.55,89.76Z" transform="translate(-14.08 -50.95)"/><path class="cls-1" d="M168.69,134.28a8.83,8.83,0,0,1,.87,1.3,9.2,9.2,0,0,1-1.73,1.38c-.07,0-.79-.72-.74-.8A20.1,20.1,0,0,1,168.69,134.28Z" transform="translate(-14.08 -50.95)"/><path class="cls-1" d="M178.75,113l-2.31.91c-.14-.42-.52-1-.37-1.25.64-1,1.54-.9,2.43-.35C178.59,112.52,178.67,112.75,178.75,113Z" transform="translate(-14.08 -50.95)"/><path class="cls-1" d="M175.6,85.59a12.24,12.24,0,0,1-1.89,1.3c-.13,0-.89-.86-.81-1a3.88,3.88,0,0,1,1.34-1.3C174.4,84.52,174.92,85.08,175.6,85.59Z" transform="translate(-14.08 -50.95)"/><path class="cls-1" d="M178.53,95.5a19.77,19.77,0,0,1-2.22.61c-.07,0-.52-.92-.38-1.1.72-1,1.58-.78,2.41-.2Z" transform="translate(-14.08 -50.95)"/><path class="cls-1" d="M176.87,124.56a16.67,16.67,0,0,1-2.18,1.42c-.1,0-.55-.67-.83-1a7.76,7.76,0,0,1,1.53-1.06C175.64,123.78,176.08,124.18,176.87,124.56Z" transform="translate(-14.08 -50.95)"/><path class="cls-1" d="M171,76.83A12.42,12.42,0,0,1,169,78.14c-.12,0-.84-.81-.75-1a1.76,1.76,0,0,1,1.13-1C169.68,76,170.15,76.44,171,76.83Z" transform="translate(-14.08 -50.95)"/><path class="cls-1" d="M174.6,128.31a22,22,0,0,1-2.15,1.13c-.08,0-.42-.56-.65-.86l2.26-1.18Z" transform="translate(-14.08 -50.95)"/><path class="cls-1" d="M179.46,108.55l-2,1.39c-.22-.43-.44-.86-.67-1.28l2.25-.93Z" transform="translate(-14.08 -50.95)"/><path class="cls-1" d="M178.43,116.27l-2,2.17c-.24-1-.62-1.85-.44-2a7.38,7.38,0,0,1,1.93-.87Z" transform="translate(-14.08 -50.95)"/><path class="cls-1" d="M158.68,63.9l-2.23.39a6.45,6.45,0,0,1,.09-1.36,11.82,11.82,0,0,1,2.06,0C158.63,63.26,158.66,63.58,158.68,63.9Z" transform="translate(-14.08 -50.95)"/><path class="cls-1" d="M165,142.32a9.64,9.64,0,0,1-2.12,1c-.25,0-.6-.56-.91-.87a7.63,7.63,0,0,1,1.63-1C163.87,141.33,164.3,141.82,165,142.32Z" transform="translate(-14.08 -50.95)"/><path class="cls-1" d="M170,81.49c.1-1.2.82-1.55,1.84-1.2a1.22,1.22,0,0,1,.34,1.13C171.56,82.33,170.78,82.45,170,81.49Z" transform="translate(-14.08 -50.95)"/><path class="cls-1" d="M142.36,56.12l-2.06,1-.4-1.23,2.12-.68C142.13,55.52,142.24,55.82,142.36,56.12Z" transform="translate(-14.08 -50.95)"/><path class="cls-1" d="M165.11,68.88l-1.23,2-.58,0c-.16-.52-.59-1.3-.4-1.49a6,6,0,0,1,1.76-.94Z" transform="translate(-14.08 -50.95)"/><path class="cls-1" d="M179.07,99.85l-2.33.82a5.86,5.86,0,0,1-.23-1.06c.73-.29,1.49-.48,2.25-.7Z" transform="translate(-14.08 -50.95)"/><path class="cls-1" d="M171.83,132.65l-2.3.38c0-.37-.13-1.05,0-1.08a19.41,19.41,0,0,1,2.17-.45C171.72,131.89,171.77,132.27,171.83,132.65Z" transform="translate(-14.08 -50.95)"/><path class="cls-1" d="M164.32,139a7.69,7.69,0,0,1,1.6-.68c.19,0,.49.46.75.71a8.31,8.31,0,0,1-1.58,1.1c-.28.11-.74-.24-1.12-.38C164.08,139.49,164.2,139.24,164.32,139Z" transform="translate(-14.08 -50.95)"/><path class="cls-1" d="M95.46,67.77l-2.12.33-.07-1.3h2.14C95.43,67.12,95.44,67.45,95.46,67.77Z" transform="translate(-14.08 -50.95)"/><path class="cls-1" d="M162.16,66.77l-2.2.85a5,5,0,0,1-.28-1,20.47,20.47,0,0,1,2.13-.84Z" transform="translate(-14.08 -50.95)"/><path class="cls-1" d="M155,61.05a13.36,13.36,0,0,1-1.92,1.22c-.13,0-.49-.49-.75-.76a4.87,4.87,0,0,1,1.14-1C153.75,60.39,154.2,60.73,155,61.05Z" transform="translate(-14.08 -50.95)"/><path class="cls-1" d="M117.7,55.85a17.45,17.45,0,0,1-2,1c-.12,0-.42-.43-.64-.66l2.12-1.25Z" transform="translate(-14.08 -50.95)"/><path class="cls-1" d="M125.86,55.79c-.1-.58-.48-1.4-.23-1.68s1.12-.31,1.71-.44l.34.42c-.39.61-.78,1.22-1.16,1.83Z" transform="translate(-14.08 -50.95)"/><path class="cls-1" d="M103.34,62l-2,.43c0-.49,0-1,0-1.47l1.94.1Z" transform="translate(-14.08 -50.95)"/><path class="cls-1" d="M107.72,59.43,106,60.49c-.15-.34-.49-.94-.42-1a13.87,13.87,0,0,1,1.65-.91Z" transform="translate(-14.08 -50.95)"/><path class="cls-1" d="M150.68,58.74l-1.22,1.48h-.55c-.06-.57-.38-1.46-.14-1.66.42-.34,1.19-.27,1.81-.37Z" transform="translate(-14.08 -50.95)"/><path class="cls-1" d="M144.9,58.65c-.07-.56-.39-1.39-.14-1.63s1.11-.22,1.7-.3l.23.42-1.19,1.54Z" transform="translate(-14.08 -50.95)"/><path class="cls-1" d="M179,103.94l-1.71,1.21-.44-.36c.14-.45.15-1.12.44-1.29s1,0,1.52,0Z" transform="translate(-14.08 -50.95)"/><path class="cls-1" d="M25.82,116.63c-.18,2.33-.45,4.66-.51,7s.09,4.41.17,6.62c0,.77.2,1.54.17,2.31,0,.33-.31.9-.53.93a1.5,1.5,0,0,1-1-.52,1.75,1.75,0,0,1-.31-1c-.26-3-1.06-5.92-.17-9,.46-1.55.4-3.24.73-4.84a6.23,6.23,0,0,1,1-1.76Z" transform="translate(-14.08 -50.95)"/><path class="cls-1" d="M29.29,146.59a12,12,0,0,1-2.07-2.6,12.9,12.9,0,0,1-.93-4.73,15.46,15.46,0,0,1,2.95,7.37Z" transform="translate(-14.08 -50.95)"/><path class="cls-1" d="M76.61,172l-2,1.63-.72-1L76,171.14Z" transform="translate(-14.08 -50.95)"/><path class="cls-1" d="M77.32,167.51c-.81,1.78-1.4,2-3.18.64l3-1.19Z" transform="translate(-14.08 -50.95)"/><path class="cls-1" d="M79,161.37c-.42-.74-.92-1.27-.81-1.53a2.45,2.45,0,0,1,1.23-1.12c.18-.08,1,.61.94.67A19,19,0,0,1,79,161.37Z" transform="translate(-14.08 -50.95)"/><path class="cls-1" d="M73.81,178.48c-.42-1.75.31-2.28,1.34-2.37.28,0,.62.65.94,1Z" transform="translate(-14.08 -50.95)"/><path class="cls-1" d="M76.3,184.26c.37.55.79,1.06.73,1.13a6.57,6.57,0,0,1-1.5,1.23c-.1.06-.54-.44-.82-.69Z" transform="translate(-14.08 -50.95)"/><path class="cls-1" d="M76,191.05c-.55-1.9.21-2.31,1.17-2.38.27,0,.58.52.88.81Z" transform="translate(-14.08 -50.95)"/><path class="cls-1" d="M79.61,192.26a21.19,21.19,0,0,1-1.71,1.58c-.07,0-.61-.51-.92-.79l2-1.46Z" transform="translate(-14.08 -50.95)"/><path class="cls-1" d="M77.11,164.67,76,163.44c.41-.31.79-.82,1.23-.88s.77.47,1.16.73Z" transform="translate(-14.08 -50.95)"/><path class="cls-1" d="M76.33,180.61c-.35.56-.6,1.29-1.11,1.61-.25.16-1-.42-1.93-.88l2.38-1.18Z" transform="translate(-14.08 -50.95)"/><path class="cls-1" d="M83.15,155.75,80.84,157l-.43-.85,2.38-1.1Z" transform="translate(-14.08 -50.95)"/><path class="cls-1" d="M52.12,114.42c0-2.06,1.25-3.29,2.6-2.92.63.17,1.22,1.28,1.4,2.06.23,1-1.58,2.49-2.77,2.19C52.73,115.59,52.31,114.64,52.12,114.42Z" transform="translate(-14.08 -50.95)"/><path class="cls-1" d="M49.67,134c-.38-.49-1.37-1.24-1.59-2.17a1.73,1.73,0,0,1,2-2.12A1.84,1.84,0,0,1,52,131.8C51.9,132.85,52,134.06,49.67,134Z" transform="translate(-14.08 -50.95)"/><path class="cls-1" d="M51.55,126c-.49.34-1.4,1.45-2,1.31s-1.52-1.33-1.79-2.21c-.37-1.18.68-1.74,1.69-1.78C50.73,123.24,51.52,124,51.55,126Z" transform="translate(-14.08 -50.95)"/><path class="cls-1" d="M57.38,112c-1.17-2.58-1.11-3.45.19-3.92a2.07,2.07,0,0,1,2.56,1.62C60.47,111.86,58.64,111.54,57.38,112Z" transform="translate(-14.08 -50.95)"/><path class="cls-1" d="M52.83,120c-.34.24-.87.91-1.49,1-1.44.23-2.08-1-2.09-2,0-.52,1-1.38,1.73-1.52C52.46,117.12,52.69,118.33,52.83,120Z" transform="translate(-14.08 -50.95)"/><path class="cls-1" d="M53.81,138.82c-.63.39-1.41,1.17-1.78,1a3.58,3.58,0,0,1-1.9-1.83c-.27-.87.38-1.54,1.54-1.68C53.58,136.09,53,137.72,53.81,138.82Z" transform="translate(-14.08 -50.95)"/><path class="cls-1" d="M85.9,177.67c.6-2.59,1.14-5.21,1.83-7.78.38-1.4,1.5-1.43,2.63-.45,2.2,1.9,4.48,3.72,6.81,5.45,1.27.94,1.42,1.64.12,2.62a15.93,15.93,0,0,1-1.41.78c-1.86,1.15-3.71,2.3-5.55,3.47-.35.23-.64.55-1,.78-1.67,1.09-2.94.44-3-1.55,0-1.07,0-2.15,0-3.22Zm10-2.33a12.54,12.54,0,0,1-2.3-.84,27,27,0,0,1-3.36-2.45c-.73-.63-.94-.5-1.43.28-1.26,2-.79,4.16-.79,6.26,0,1.31,1,1.71,2.12,1,1.56-.89,3.12-1.79,4.62-2.78A6.28,6.28,0,0,0,95.88,175.34Z" transform="translate(-14.08 -50.95)"/><path class="cls-1" d="M141.7,123l-1.65-1.18-1,.84a12.78,12.78,0,0,1,.73,2.8c0,.23-1.48.78-1.54.7-.59-.91-1.39-1.91-1.39-2.89a2.75,2.75,0,0,1,1.79-2c1-.2,2.21.33,3.32.54Z" transform="translate(-14.08 -50.95)"/><path class="cls-1" d="M57,172.84c-.17-2.3.31-2.58,2.56-1.72Z" transform="translate(-14.08 -50.95)"/><path class="cls-1" d="M65.21,153.24a13.32,13.32,0,0,1-2.08,1.27c-.19.07-.57-.38-.87-.6a7.08,7.08,0,0,1,1.36-1.27C63.84,152.52,64.35,152.9,65.21,153.24Z" transform="translate(-14.08 -50.95)"/><path class="cls-1" d="M59.86,188.58,61,189.91a7.48,7.48,0,0,1-1.68,1.28c-.26.11-.8-.45-1.21-.71Z" transform="translate(-14.08 -50.95)"/><path class="cls-1" d="M61.58,117.34c.75,2.53,1.32,4.56,2,6.57a2.67,2.67,0,0,1-.72,3.1c-1.49,1.49-2.68,3.28-4.79,4.09-1-4.62-1.18-9,2-12.75A6.46,6.46,0,0,1,61.58,117.34Z" transform="translate(-14.08 -50.95)"/><path class="cls-1" d="M69,207.39a8.27,8.27,0,0,1-2,1.14c-.27.07-.69-.55-1-.85a10.77,10.77,0,0,1,1.73-1.24C67.82,206.36,68.29,206.89,69,207.39Z" transform="translate(-14.08 -50.95)"/><path class="cls-1" d="M74.55,138.93l-2.47.64c.06-.58-.09-1.42.23-1.69C73.12,137.21,73.94,137.42,74.55,138.93Z" transform="translate(-14.08 -50.95)"/><path class="cls-1" d="M150.82,137.6l-1.66-2.7c-.74,1.08-1.27,1.89-1.86,2.66a4.49,4.49,0,0,1-.85.69c-.12-.34-.44-.76-.34-1a8.73,8.73,0,0,1,1.43-2.84,3.09,3.09,0,0,1,2.44-1,3.7,3.7,0,0,1,2,1.95C152.2,135.79,151.36,136.66,150.82,137.6Z" transform="translate(-14.08 -50.95)"/><path class="cls-1" d="M80.14,94.66A9.36,9.36,0,0,1,78,93.21a1.89,1.89,0,0,1,0-1.87,17.37,17.37,0,0,1,4-2.47c1.63-.67,2.91.58,2.64,2.34C84.47,92.8,82.39,94.6,80.14,94.66Z" transform="translate(-14.08 -50.95)"/><path class="cls-1" d="M104.75,89.46c-.33-1.88.63-2.45,2.07-1.81a16.58,16.58,0,0,1,3.92,2.62,2.1,2.1,0,0,1-.28,2,3.63,3.63,0,0,1-4.36.14c-.85-.52-1.22-1.81-1.81-2.76Z" transform="translate(-14.08 -50.95)"/><path class="cls-1" d="M98.52,85.08a3.42,3.42,0,0,1-2.07,4c-1.82.88-3.26,0-4.57-.89-.51-.35-.54-1.58-.52-2.41,0-.26.87-.7,1.36-.72C94.61,85,96.51,85.08,98.52,85.08Z" transform="translate(-14.08 -50.95)"/><path class="cls-1" d="M71.4,105.83c-2.22,0-2.39-.23-1.48-2.29a13.56,13.56,0,0,1,1.47-2.83c.43-.55,1.6-1.27,1.85-1.09.83.6,1.86,1.51,2,2.41C75.49,104.39,73.86,105.83,71.4,105.83Z" transform="translate(-14.08 -50.95)"/><path class="cls-1" d="M70.25,113.84c1.83,0,2.89,1,2.85,2.68,0,1.44-3.06,4.24-4.25,3.52-1-.61-1.56-2.45-1.85-3.85S68.12,113.85,70.25,113.84Z" transform="translate(-14.08 -50.95)"/><path class="cls-1" d="M119.37,101.32c-1.48.75-2.86.55-3.56-1a3.34,3.34,0,0,1,.28-2.57A2,2,0,0,1,118,97.2C119.54,98,120.06,99.42,119.37,101.32Z" transform="translate(-14.08 -50.95)"/><path class="cls-1" d="M45.27,146.91l-1.64,1.51-.76-.92,1.84-1.31Z" transform="translate(-14.08 -50.95)"/><path class="cls-1" d="M66.59,93.38c0,1.68-.76,2.15-1.77,2.2-.22,0-.47-.64-.71-1Z" transform="translate(-14.08 -50.95)"/><path class="cls-1" d="M58.62,97.19c-.67.25-1.33.53-2,.71a7.68,7.68,0,0,1-.43-1l2.15-.59Z" transform="translate(-14.08 -50.95)"/><path d="M96.27,224.59c4.13-4.81,7.88-9.54,15-7.81C110.6,220.51,101.69,225.29,96.27,224.59Z" transform="translate(-14.08 -50.95)"/><path d="M111.36,213.64c-.28.23-.58.65-.76.6a22.85,22.85,0,0,1-4.31-1.29,27,27,0,0,1-4.68-2.93,23.53,23.53,0,0,1-3.14-3.17c-.13-.14.11-.93.25-1,1-.15,2.11-.52,3-.2a17.75,17.75,0,0,1,4.7,2.62A52.28,52.28,0,0,1,110.9,213,5.83,5.83,0,0,1,111.36,213.64Z" transform="translate(-14.08 -50.95)"/><path d="M121.76,218.81l-1.59,1.79.5.61a6.21,6.21,0,0,0,1.84-1c.8-.88,1.56-.89,2.28-.13a16.48,16.48,0,0,1,2.41,3c.58,1,0,1.83-1.12,1.41-3.38-1.32-7.34-1.84-9-5.76a7.34,7.34,0,0,1-.24-2.12,20.76,20.76,0,0,1,2.09,0,3.52,3.52,0,0,1,1.33.46c.73.4,1.4.88,2.1,1.33Z" transform="translate(-14.08 -50.95)"/><path d="M116.72,213.73a17.28,17.28,0,0,1,12.1-6.44C125.81,211.33,121.4,212.78,116.72,213.73Z" transform="translate(-14.08 -50.95)"/><path d="M95.88,175.34a6.28,6.28,0,0,1-1.14,1.52c-1.5,1-3.06,1.89-4.62,2.78-1.17.66-2.12.26-2.12-1,0-2.1-.47-4.27.79-6.26.49-.78.7-.91,1.43-.28a27,27,0,0,0,3.36,2.45A12.54,12.54,0,0,0,95.88,175.34Zm-4.33-1.15-1.94,1.5c.24.28.47.82.71.82C91.44,176.52,92.1,176,91.55,174.19Z" transform="translate(-14.08 -50.95)"/><path class="cls-1" d="M91.55,174.19c.55,1.77-.11,2.33-1.23,2.32-.24,0-.47-.54-.71-.82Z" transform="translate(-14.08 -50.95)"/></svg>