<svg id="Calque_1" data-name="Calque 1" xmlns="http://www.w3.org/2000/svg" viewBox="0 0 186.18 168.24"><defs><style>.cls-1{fill:#f8bd4c;}.cls-2{fill:#2b3839;}</style></defs><path class="cls-1" d="M109.21,204.89c-11.4,0-22.8.39-34-2.61-2.37-.63-3.32.57-3,2.84a21.07,21.07,0,0,0,1.6,5.65c1,2.37,2,4.77,2.83,7.21,1.43,4.14,0,5.83-4.23,4.79-14.18-3.48-25.74-11.13-35.95-21.52S21,178,16.93,164.4c-6.41-21.58-7-43.24.07-64.69,5.05-15.34,14.41-27.52,29.71-34C55.87,61.8,65.7,60,75.43,58a159.33,159.33,0,0,1,53.12-1.77,91,91,0,0,1,35.59,12.11c19.71,12,29.93,30.12,32.94,52.51,1.65,12.27,1.65,24.55-2.89,36.43-2.71,7.11-7.06,13.19-11.12,19.54-6,9.42-14.25,16-24.15,20.65-7.46,3.52-15.52,5.09-23.68,5.81C126.59,204.09,117.89,204.39,109.21,204.89Z" transform="translate(-11.91 -54.83)"/><path class="cls-2" d="M109.81,86c4.93,0,9.7.57,14.06,3.09a19.24,19.24,0,0,1,8.27,24.14c-2,5.16-5.39,9.52-8.64,13.93-4.11,5.58-8.31,11-9,18.35-.31,3.13-2.56,4.76-5.71,5.18a31.64,31.64,0,0,1-9,0c-4.89-.75-7.51-3.63-7.71-8.57-.33-8.22,2.83-15.09,8.25-21.06a24.55,24.55,0,0,0,4.05-5.47c1-2,1.47-4.12-.24-6.08A5.3,5.3,0,0,0,97.66,108c-2.1.85-4.1,1.95-6.22,2.76-3.64,1.38-5.87.48-7.72-2.93-3.62-6.7-1.57-13.29,5.27-16.63C95.55,88,102.38,85.8,109.81,86Z" transform="translate(-11.91 -54.83)"/><path class="cls-2" d="M117,168.13c-.17,6.74-7.39,11.75-13.92,9.58a14.8,14.8,0,0,1-3.82-2c-6.85-4.84-6.29-12.11,1.19-15.89,4.13-2.09,8.3-2.53,12.33.17A9,9,0,0,1,117,168.13Z" transform="translate(-11.91 -54.83)"/></svg>